<?xml version="1.0" encoding="UTF-8" standalone="no"?>
<!-- Created with Inkscape (http://www.inkscape.org/) -->

<svg
   xmlns:dc="http://purl.org/dc/elements/1.1/"
   xmlns:cc="http://creativecommons.org/ns#"
   xmlns:rdf="http://www.w3.org/1999/02/22-rdf-syntax-ns#"
   xmlns:svg="http://www.w3.org/2000/svg"
   xmlns="http://www.w3.org/2000/svg"
   xmlns:sodipodi="http://sodipodi.sourceforge.net/DTD/sodipodi-0.dtd"
   xmlns:inkscape="http://www.inkscape.org/namespaces/inkscape"
   width="744.09448"
   height="1052.3622"
   id="svg4241"
   version="1.1"
   inkscape:version="0.48.4 r9939"
   sodipodi:docname="taskit-icon-com.svg">
  <defs
     id="defs4243">
    <clipPath
       clipPathUnits="userSpaceOnUse"
       id="clipPath126-46">
      <path
         inkscape:connector-curvature="0"
         d="m 0,0 1145.197,0 0,2562.52 L 0,2562.52 0,0 z"
         id="path128-0" />
    </clipPath>
    <clipPath
       clipPathUnits="userSpaceOnUse"
       id="clipPath64-7-9">
      <path
         inkscape:connector-curvature="0"
         d="m 30.25,560.507 763.465,0 0,-540.41 -763.465,0 0,540.41 z"
         id="path66-2-8" />
    </clipPath>
    <clipPath
       clipPathUnits="userSpaceOnUse"
       id="clipPath72-6-2">
      <path
         inkscape:connector-curvature="0"
         d="M 0,0 842,0 842,596 0,596 0,0 z"
         id="path74-01-5" />
    </clipPath>
    <clipPath
       clipPathUnits="userSpaceOnUse"
       id="clipPath64-5">
      <path
         inkscape:connector-curvature="0"
         d="m 30.25,560.507 763.465,0 0,-540.41 -763.465,0 0,540.41 z"
         id="path66-4" />
    </clipPath>
    <clipPath
       clipPathUnits="userSpaceOnUse"
       id="clipPath72-9">
      <path
         inkscape:connector-curvature="0"
         d="M 0,0 842,0 842,596 0,596 0,0 z"
         id="path74-1" />
    </clipPath>
    <clipPath
       clipPathUnits="userSpaceOnUse"
       id="clipPath64-7-9-0">
      <path
         inkscape:connector-curvature="0"
         d="m 30.25,560.507 763.465,0 0,-540.41 -763.465,0 0,540.41 z"
         id="path66-2-8-2" />
    </clipPath>
    <clipPath
       clipPathUnits="userSpaceOnUse"
       id="clipPath72-6-2-4">
      <path
         inkscape:connector-curvature="0"
         d="M 0,0 842,0 842,596 0,596 0,0 z"
         id="path74-01-5-8" />
    </clipPath>
    <clipPath
       clipPathUnits="userSpaceOnUse"
       id="clipPath32-9">
      <path
         inkscape:connector-curvature="0"
         d="m 0,0 314.646,0 0,612.283 L 0,612.283 0,0 z"
         id="path34-4" />
    </clipPath>
  </defs>
  <sodipodi:namedview
     inkscape:document-units="mm"
     pagecolor="#ffffff"
     bordercolor="#666666"
     borderopacity="1.0"
     inkscape:pageopacity="0.0"
     inkscape:pageshadow="2"
     inkscape:zoom="0.43415836"
     inkscape:cx="454.28027"
     inkscape:cy="564.26456"
     inkscape:current-layer="Layer_x0020_1"
     id="namedview4245"
     showgrid="false"
     inkscape:window-width="1100"
     inkscape:window-height="717"
     inkscape:window-x="517"
     inkscape:window-y="200"
     inkscape:window-maximized="0"
     units="mm" />
  <metadata
     id="metadata4247">
    <rdf:RDF>
      <cc:Work
         rdf:about="">
        <dc:format>image/svg+xml</dc:format>
        <dc:type
           rdf:resource="http://purl.org/dc/dcmitype/StillImage" />
        <dc:title />
      </cc:Work>
    </rdf:RDF>
  </metadata>
  <g
     inkscape:label="Layer 1"
     inkscape:groupmode="layer"
     id="layer1"
     transform="translate(0,308.2677)">
    <g
       style="display:inline"
       transform="matrix(0.0232663,0,0,0.0232663,17.858872,163.63876)"
       id="Layer_x0020_1">
      <metadata
         id="CorelCorpID_0Corel-Layer" />
      <path
         inkscape:connector-curvature="0"
         style="fill:#879399;fill-opacity:1;stroke:none;display:inline"
         d="m -513.82302,-19551.152 0,3960.93 c 542.723998,47.408 975.123,507.713 975.123,1063.771 0,554.05 -432.399002,1003.013 -975.123,1050.339 l 0,31348.989 c 542.723998,47.417 975.123,496.295 975.123,1050.339 0,556.065 -432.399002,1015.54 -975.123,1062.427 l 0,3923.325 31171.69502,0 0,-3923.325 c -580.457,-9.652 -1050.339,-479.671 -1050.339,-1062.427 0,-581.963 469.882,-1042.961 1050.339,-1050.339 l 0,-31336.899 c -580.457,0 -1050.339,-480.901 -1050.339,-1062.429 0,-583.187 469.882,-1056.838 1050.339,-1063.771 l 0,-3960.93 -31171.69502,0 z m 1404.929,1392.838 28375.26902,0 0,2189.326 -28375.26902,0 0,-2189.326 z m 1633.26402,5745.972 8631.046,0 0,16312.4876 -8631.046,0 0,-16312.4876 z m 11401.953,0 13694.7,0 0,8820.4285 -13694.7,0 0,-8820.4285 z m 1228.977,10378.4758 0,10.7451 860.955,0 0,797.8278 -937.514,0 c -51.795,0 -73.666,29.143 -63.128,76.5592 9.655,35.9963 61.421,73.0692 151.775,114.1673 l 392.198,177.29493 c 371.487,173.328 557.405,451.4685 557.405,822.004404 0,422.073996 -280.406,717.976596 -847.524,886.475296 -231.096,67.6068 -522.465,100.7358 -860.955,100.7358 l -494.278,0 0,-886.475301 228.335,0 392.198,13.4315 c 170.672,0 294.69,-15.4537 380.11,-49.6964 40.403,-12.301 63.128,-41.059395 63.128,-88.647495 0,-36.0006 -20.064,-83.612404 -63.128,-114.167304 -21.955,-12.2967 -65.575,-29.7619 -126.256,-63.1278 l -531.885,-253.8543 c -65.858,-28.9689 -136.701,-92.043 -202.814,-163.8636 -126.702,-136.9749 -189.384,-293.29537 -189.384,-480.84563 0,-131.1768 26.924,-245.6492 75.216,-342.5018 115.559,-227.058 298.561,-381.5389 557.405,-467.4142 167.799,-52.6857 390.965,-88.6475 658.141,-88.6475 z m 1163.163,10.7451 1.341,0 2518.396,0 -13.43,25.5198 c -135.394,262.0012 -252.816,520.2847 -354.59,770.9648 l -543.973,0 0,2139.62893 -13.432,25.5198 -999.299,0 0,-2177.23703 -595.013,0 0,-784.3963 z m 2886.417,0 873.044,0 c 360.441,613.8363 633.423,1259.22893 823.348,1936.814134 99.121,351.916696 168.29,699.330396 214.903,1038.250596 l -936.172,0 c -11.333,-96.4072 -51.306,-260.1015 -114.167,-494.2771 l -595.013,-13.4315 c 0,-47.4162 0.301,-108.4573 13.431,-177.295 l 37.608,-163.8636 c 13.223,-63.224501 27.075,-119.462496 37.608,-165.206796 0,-12.301 15.596,-56.012304 37.608,-112.824104 l 316.982,0 c -20.147,-96.4056 -68.45,-246.8205 -151.775,-456.6691 -43.903,-109.3212 -81.069,-206.3779 -114.167,-278.03087 l -88.648,240.42277 c -165.177,413.9077 -270.175,906.2873 -316.982,1468.0569 l -25.52,139.687 -973.779,0 37.608,-240.4229 c 85.166,-520.0612 190.551,-960.4428 303.55,-1304.1932 126.434,-396.08353 306.246,-814.19043 531.886,-1251.81043 l 88.647,-165.2068 z m 1860.255,0 936.172,0 c 132.053,113.3528 274.579,270.6769 417.718,468.7574 l 51.039,75.2161 303.551,431.1493 37.608,-63.1278 49.696,-76.5592 76.559,-114.1673 177.295,-240.4228 c 140.392,-200.4573 283.793,-361.7894 429.807,-480.8457 l 937.514,0 0,2975.06473 -1000.642,0 0,-1329.7129 c -46.527,53.5581 -93.992,113.342 -151.775,202.8148 -128.28,199.576199 -220.712,401.7355 -278.031,607.1012 l -569.494,0 c -57.065,-230.8317 -156.67,-427.278901 -291.462,-607.1012 l -126.255,-163.8636 0,1290.7617 -620.533,0 -13.432,-51.0395 c -49.172,-353.1485 -124.439,-709.2533 -226.991,-1074.5155 -44.787,-159.4538 -85.603,-312.4669 -139.687,-468.7574 l 0,-1379.40913 1.341,-1.341 z m 3771.55,0 1417.017,0 c 385.356,0 714.306,127.0658 1000.642,380.1099 233.828,206.6078 354.591,465.6649 354.591,784.39623 0,343.8363 -142.354,639.9212 -417.718,873.043799 -264.112,223.198401 -562.55,329.070401 -911.995,329.070401 l -100.736,0 0,-834.0927 c 90.796,-12.301 164.865,-45.8237 228.334,-89.9906 96.333,-64.0927 138.344,-154.1393 138.344,-278.0309 0,-151.46363 -53.99,-253.32343 -189.383,-316.98203 -107.379,-53.5624 -245.828,-73.6623 -405.63,-63.1278 l -100.736,13.4315 0,2177.23693 -1012.73,0 0,-2973.72153 0,-1.341 z m -7662.639,3407.5573 150.432,0 280.717,702.4645 -154.461,0 -61.785,-159.8342 -279.374,0 -59.098,159.8342 -150.433,0 274.002,-702.4645 z m 507.708,0 298.179,0 c 75.038,0 129.856,6.1935 163.863,18.804 34.006,12.6148 60.152,34.9089 80.589,67.1572 20.435,32.2527 30.892,68.6272 30.892,110.1379 0,52.6856 -14.694,97.3038 -45.667,131.6281 -30.974,34.3286 -78.06,55.531 -139.687,64.4709 30.654,17.8843 56.602,37.7069 76.559,59.0984 19.957,21.3958 46.741,59.569 80.589,114.1673 l 85.961,137.0007 -170.579,0 -102.079,-153.1185 c -36.402,-54.6025 -61.805,-89.2127 -75.216,-103.4221 -13.412,-14.2094 -26.63,-24.2797 -41.638,-29.5492 -15.008,-5.2651 -38.617,-8.0588 -71.186,-8.0588 l -29.549,0 0,294.1486 -141.031,0 0,-702.4645 z m 706.494,0 212.217,0 126.256,478.1594 126.255,-478.1594 213.56,0 0,702.4645 -131.628,0 0,-553.3755 -139.687,553.3755 -137.001,0 -138.343,-553.3755 0,553.3755 -131.629,0 0,-702.4645 z m 812.603,0 85.961,0 0,249.8249 c 36.401,-45.6627 83.168,-68.5004 139.687,-68.5004 31.292,0 60.707,6.1892 88.648,18.804 27.939,12.6105 50.458,30.8988 68.5,53.7258 18.041,22.8313 32.762,51.0266 42.981,83.2749 10.217,32.2527 14.774,66.7038 14.774,103.4221 0,87.1733 -21.364,153.8965 -64.471,201.4717 -43.107,47.5796 -94.111,71.1867 -154.461,71.1867 -60.031,0 -108.208,-25.0878 -142.374,-75.2161 l 0,64.4709 -79.245,0 0,-702.4645 z m 1417.017,0 84.618,0 0,702.4645 -79.245,0 0,-64.4709 c -32.251,50.4506 -79.789,75.2161 -142.374,75.2161 -40.552,0 -77.474,-11.2287 -111.481,-33.5787 -34.006,-22.3542 -60.565,-53.9449 -79.245,-94.0201 -18.68,-40.0708 -28.206,-84.9555 -28.206,-137.0007 0,-50.773 8.596,-96.9922 25.52,-138.3439 16.923,-41.3516 42.712,-73.3313 76.559,-95.3632 33.847,-22.0319 70.994,-33.5786 112.824,-33.5786 30.654,0 57.983,7.2143 81.932,20.1472 23.948,12.9328 44.09,28.941 59.098,49.6963 l 0,-251.168 z m 545.317,0 85.961,0 0,702.4645 -80.589,0 0,-64.4709 c -32.251,50.4506 -78.445,75.2161 -141.03,75.2161 -40.553,0 -78.817,-11.2287 -112.824,-33.5787 -34.007,-22.3542 -60.566,-53.9449 -79.246,-94.0201 -18.679,-40.0708 -26.862,-84.9555 -26.862,-137.0007 0,-50.773 7.253,-96.9922 24.176,-138.3439 16.923,-41.3516 42.713,-73.3313 76.559,-95.3632 33.848,-22.0319 72.338,-33.5786 114.168,-33.5786 30.653,0 57.983,7.2143 81.931,20.1472 23.949,12.9328 42.748,28.941 57.756,49.6963 l 0,-251.168 z m 1091.976,0 85.961,0 0,702.4645 -80.588,0 0,-64.4709 c -32.251,50.4506 -78.446,75.2161 -141.031,75.2161 -40.552,0 -78.817,-11.2287 -112.824,-33.5787 -34.006,-22.3542 -60.565,-53.9449 -79.245,-94.0201 -18.68,-40.0708 -26.863,-84.9555 -26.863,-137.0007 0,-50.773 8.596,-96.9922 25.52,-138.3439 16.923,-41.3516 41.369,-73.3313 75.216,-95.3632 33.847,-22.0319 72.337,-33.5786 114.167,-33.5786 30.654,0 57.983,7.2143 81.932,20.1472 23.948,12.9328 42.747,28.941 57.755,49.6963 l 0,-251.168 z m 2182.61,0 85.961,0 0,702.4645 -80.589,0 0,-64.4709 c -32.25,50.4506 -79.788,75.2161 -142.373,75.2161 -40.553,0 -77.475,-11.2287 -111.481,-33.5787 -34.007,-22.3542 -60.566,-53.9449 -79.246,-94.0201 -18.679,-40.0708 -28.206,-84.9555 -28.206,-137.0007 0,-50.773 8.597,-96.9922 25.52,-138.3439 16.923,-41.3516 42.712,-73.3313 76.559,-95.3632 33.848,-22.0319 70.994,-33.5786 112.825,-33.5786 30.653,0 57.983,7.2143 81.931,20.1472 23.949,12.9328 44.091,28.941 59.099,49.6963 l 0,-251.168 z m 765.592,0 85.961,0 0,702.4645 -85.961,0 0,-702.4645 z m -7380.578,118.1967 0,178.6382 104.765,0 c 68.013,0 110.675,-2.3167 127.599,-8.0589 16.923,-5.7465 30.714,-16.8419 40.294,-30.8923 9.58,-14.0503 13.431,-31.3092 13.431,-52.3826 0,-23.6308 -6.191,-41.8846 -18.804,-56.4121 -12.613,-14.5274 -29.392,-24.3721 -52.382,-28.206 -11.496,-1.5903 -45.947,-2.6863 -103.422,-2.6863 l -111.481,0 z m -574.866,45.6669 -95.363,260.57 192.069,0 -96.706,-260.57 z m 2707.779,17.4609 c 68.013,0 123.442,23.5448 166.55,69.8435 43.106,46.303 64.47,112.1192 64.471,196.0991 0,5.1104 0.301,12.6169 0,22.8334 l -378.767,0 c 3.193,55.8791 18.591,97.9034 47.01,127.5987 28.419,29.6953 63.64,44.3238 106.108,44.3238 31.612,0 58.237,-7.5732 80.589,-24.1766 22.352,-16.6034 40.634,-42.8452 53.726,-79.2455 l 88.647,10.7451 c -14.05,52.0496 -39.904,92.1462 -77.902,120.883 -37.999,28.7369 -85.987,42.9807 -145.06,42.9807 -74.399,0 -133.708,-22.6788 -177.295,-68.5004 -43.586,-45.8216 -65.814,-110.7095 -65.814,-193.4128 0,-85.5744 23.093,-151.5282 67.158,-198.7854 44.065,-47.2572 100.33,-71.1866 170.579,-71.1866 z m 1638.636,0 c 68.013,0 123.442,23.5448 166.55,69.8435 43.106,46.303 64.47,112.1192 64.471,196.0991 0,5.1104 0.301,12.6169 0,22.8334 l -380.11,0 c 3.193,55.8791 19.934,97.9034 48.353,127.5987 28.419,29.6953 63.64,44.3238 106.109,44.3238 31.611,0 58.236,-7.5732 80.588,-24.1766 22.352,-16.6034 40.634,-42.8452 53.726,-79.2455 l 88.648,10.7451 c -14.051,52.0496 -39.905,92.1462 -77.903,120.883 -37.999,28.7369 -87.33,42.9807 -146.403,42.9807 -74.399,0 -132.365,-22.6788 -175.951,-68.5004 -43.587,-45.8216 -65.815,-110.7095 -65.815,-193.4128 0,-85.5744 21.749,-151.5282 65.815,-198.7854 44.065,-47.2572 101.673,-71.1866 171.922,-71.1866 z m 1386.125,0 c 37.679,0 68.568,8.5316 92.677,24.1766 24.107,15.6492 41.141,37.7176 51.039,65.8141 40.233,-59.3907 92.647,-89.9907 157.148,-89.9907 50.451,0 89.712,15.0389 116.854,42.9806 27.14,27.9374 40.293,70.8278 40.294,128.9419 l 0,349.2175 -85.961,0 0,-321.0115 c 0,-34.4876 -2.471,-58.7051 -8.059,-73.8729 -5.589,-15.1679 -16.204,-28.3458 -30.892,-37.6081 -14.689,-9.258 -31.243,-13.4314 -51.04,-13.4314 -35.763,0 -66.362,12.4794 -89.99,36.2649 -23.63,23.7897 -34.923,61.8039 -34.922,114.1672 l 0,295.4918 -85.961,0 0,-330.4135 c 0,-38.3172 -7.442,-68.1479 -21.491,-87.3044 -14.05,-19.1608 -36.569,-28.206 -68.5,-28.206 -24.268,0 -46.562,6.0302 -67.157,18.804 -20.596,12.7738 -36.407,31.8271 -45.667,56.4121 -9.262,24.5892 -13.432,59.8096 -13.432,106.1084 l 0,264.5994 -85.961,0 0,-509.0517 76.559,0 0,71.1866 c 15.966,-24.9072 37.968,-45.2736 64.471,-60.4415 26.503,-15.1678 56.143,-22.8334 89.991,-22.8334 z m 793.798,0 c 69.929,0 126.195,24.0219 170.58,69.8435 44.384,45.8216 67.156,108.597 67.157,189.3833 0,65.4552 -9.912,116.9439 -29.549,154.4617 -19.639,37.522 -48.442,66.549 -85.961,87.3043 -37.52,20.7554 -77.842,30.8924 -122.227,30.8924 -71.206,0 -129.36,-22.8421 -173.265,-68.5004 -43.906,-45.6626 -65.814,-111.5455 -65.814,-197.4422 0,-94.1964 26.878,-164.1903 79.245,-209.5305 43.746,-37.6812 96.93,-56.4121 159.834,-56.4121 z m 1858.912,0 c 68.014,0 123.443,23.5448 166.55,69.8435 43.107,46.303 64.471,112.1192 64.471,196.0991 0,5.1104 -1.044,12.6169 -1.341,22.8334 l -378.767,0 c 3.194,55.8791 18.591,97.9034 47.01,127.5987 28.419,29.6953 64.983,44.3238 107.452,44.3238 31.611,0 58.236,-7.5732 80.589,-24.1766 22.351,-16.6034 39.29,-42.8452 52.382,-79.2455 l 89.991,10.7451 c -14.05,52.0496 -39.905,92.1462 -77.903,120.883 -37.998,28.7369 -87.33,42.9807 -146.402,42.9807 -74.4,0 -133.709,-22.6788 -177.295,-68.5004 -43.587,-45.8216 -64.471,-110.7095 -64.471,-193.4128 0,-85.5744 21.748,-151.5282 65.814,-198.7854 44.064,-47.2572 101.674,-71.1866 171.922,-71.1866 z m -975.123,12.0883 85.962,0 0,282.0603 c 0,45.0222 1.861,75.6889 5.372,91.3338 5.428,22.6723 16.016,39.4498 33.579,52.3826 17.562,12.9329 39.949,20.1472 65.814,20.1472 25.864,0 49.858,-6.8962 72.53,-20.1472 22.671,-13.2509 38.932,-30.8944 48.353,-53.7257 9.421,-22.8313 13.431,-55.9651 13.431,-99.3927 l 0,-272.6583 87.305,0 0,509.0517 -77.903,0 0,-75.2161 c -39.595,57.478 -93.164,85.9613 -161.177,85.9613 -30.016,0 -58.594,-5.9679 -84.618,-17.4609 -26.024,-11.4973 -45.143,-25.5778 -57.755,-42.9806 -12.613,-17.4029 -21.755,-39.2456 -26.863,-64.471 -3.507,-16.9214 -4.032,-42.5271 -4.027,-79.2455 l 0,-315.6389 z m -5239.606,59.0983 c -37.679,0 -70.589,16.9666 -98.049,49.6964 -27.462,32.7297 -40.295,79.0822 -40.295,141.0301 0,60.9852 7.573,105.8291 24.177,132.9713 27.141,44.3818 63.837,65.8141 110.138,65.8141 37.678,0 70.588,-15.6235 98.049,-48.3532 27.461,-32.7297 41.637,-81.5837 41.638,-146.4027 0,-66.418 -13.952,-116.1337 -40.295,-147.7459 -26.343,-31.6123 -58.004,-47.0101 -95.363,-47.0101 z m 538.601,0 c -39.595,0 -72.411,13.7925 -99.393,40.2944 -26.982,26.5018 -42.791,61.7266 -45.667,106.1084 l 284.747,0 c -3.834,-42.7872 -15.698,-75.3107 -33.579,-96.7064 -27.461,-33.2068 -62.362,-49.6964 -106.108,-49.6964 z m 527.856,0 c -38.318,0 -69.659,15.7202 -95.363,47.0101 -25.705,31.2942 -38.952,81.7126 -38.952,149.089 0,65.1371 14.177,112.8112 41.638,145.0596 27.461,32.2527 59.347,48.3532 96.706,48.3532 37.679,0 70.363,-14.8541 96.707,-45.6669 26.342,-30.8128 38.95,-77.8057 38.951,-141.0302 0,-69.6071 -13.473,-120.5477 -40.295,-153.1184 -26.822,-32.5707 -60.117,-49.6964 -99.392,-49.6964 z m 546.66,0 c -38.319,0 -71.002,15.7202 -96.707,47.0101 -25.705,31.2942 -37.608,81.7126 -37.608,149.089 0,65.1371 12.833,112.8112 40.294,145.0596 27.461,32.2527 60.69,48.3532 98.05,48.3532 37.679,0 69.02,-14.8541 95.363,-45.6669 26.343,-30.8128 40.294,-77.8057 40.295,-141.0302 0,-69.6071 -13.473,-120.5477 -40.295,-153.1184 -26.823,-32.5707 -60.118,-49.6964 -99.392,-49.6964 z m 562.777,0 c -39.595,0 -72.411,13.7925 -99.393,40.2944 -26.982,26.5018 -41.448,61.7266 -44.323,106.1084 l 283.403,0 c -3.834,-42.7872 -14.355,-75.3107 -32.235,-96.7064 -27.462,-33.2068 -63.706,-49.6964 -107.452,-49.6964 z m 529.199,0 c -38.318,0 -71.002,15.7202 -96.706,47.0101 -25.705,31.2942 -37.609,81.7126 -37.609,149.089 0,65.1371 12.834,112.8112 40.295,145.0596 27.461,32.2527 60.69,48.3532 98.049,48.3532 37.679,0 69.02,-14.8541 95.364,-45.6669 26.342,-30.8128 40.294,-77.8057 40.294,-141.0302 0,-69.6071 -13.473,-120.5477 -40.294,-153.1184 -26.823,-32.5707 -60.118,-49.6964 -99.393,-49.6964 z m 1650.724,0 c -43.107,0 -79.033,16.1049 -107.451,48.3532 -28.419,32.2527 -42.981,81.2656 -42.981,146.4028 0,65.1414 14.562,113.991 42.981,146.4027 28.418,32.4074 64.344,48.3532 107.451,48.3532 42.788,0 77.69,-15.7825 106.109,-48.3532 28.418,-32.5707 42.98,-82.3487 42.98,-149.089 0,-62.9022 -14.402,-109.9616 -42.98,-142.3733 -28.579,-32.4074 -63.64,-49.6964 -106.109,-49.6964 z m 530.542,0 c -38.317,0 -69.658,15.7202 -95.363,47.0101 -25.705,31.2942 -38.951,81.7126 -38.951,149.089 0,65.1371 14.176,112.8112 41.637,145.0596 27.461,32.2527 59.347,48.3532 96.707,48.3532 37.679,0 70.363,-14.8541 96.706,-45.6669 26.343,-30.8128 38.951,-77.8057 38.951,-141.0302 0,-69.6071 -13.472,-120.5477 -40.294,-153.1184 -26.823,-32.5707 -60.117,-49.6964 -99.393,-49.6964 z m 1328.37,0 c -39.595,0 -72.411,13.7925 -99.393,40.2944 -26.982,26.5018 -41.448,61.7266 -44.323,106.1084 l 283.403,0 c -3.834,-42.7872 -14.354,-75.3107 -32.235,-96.7064 -27.461,-33.2068 -63.706,-49.6964 -107.452,-49.6964 z m -11705.503,1794.4409 13693.357,0 0,13693.3578 -13693.357,0 0,-13693.3578 z M 2524.37,8493.6994 l 8631.046,0 0,8631.0466 -8631.046,0 0,-8631.0466 z M 892.44898,20263.674 l 28373.92602,0 0,2189.326 -28373.92602,0 0,-2189.326 z"
         id="rect3346-3-1-4-3-9-3-9-0-2-9-2-1" />
    </g>
  </g>
</svg>
