<?xml version="1.0" encoding="UTF-8" standalone="no"?>
<!-- Created with Inkscape (http://www.inkscape.org/) -->

<svg
   xmlns:dc="http://purl.org/dc/elements/1.1/"
   xmlns:cc="http://creativecommons.org/ns#"
   xmlns:rdf="http://www.w3.org/1999/02/22-rdf-syntax-ns#"
   xmlns:svg="http://www.w3.org/2000/svg"
   xmlns="http://www.w3.org/2000/svg"
   xmlns:sodipodi="http://sodipodi.sourceforge.net/DTD/sodipodi-0.dtd"
   xmlns:inkscape="http://www.inkscape.org/namespaces/inkscape"
   width="297mm"
   height="210mm"
   id="svg4241"
   version="1.1"
   inkscape:version="0.48.4 r9939"
   sodipodi:docname="taskit-icon-sbc.svg">
  <defs
     id="defs4243">
    <clipPath
       clipPathUnits="userSpaceOnUse"
       id="clipPath126-46">
      <path
         inkscape:connector-curvature="0"
         d="m 0,0 1145.197,0 0,2562.52 L 0,2562.52 0,0 z"
         id="path128-0" />
    </clipPath>
    <clipPath
       clipPathUnits="userSpaceOnUse"
       id="clipPath64-7-9">
      <path
         inkscape:connector-curvature="0"
         d="m 30.25,560.507 763.465,0 0,-540.41 -763.465,0 0,540.41 z"
         id="path66-2-8" />
    </clipPath>
    <clipPath
       clipPathUnits="userSpaceOnUse"
       id="clipPath72-6-2">
      <path
         inkscape:connector-curvature="0"
         d="M 0,0 842,0 842,596 0,596 0,0 z"
         id="path74-01-5" />
    </clipPath>
    <clipPath
       clipPathUnits="userSpaceOnUse"
       id="clipPath64-5">
      <path
         inkscape:connector-curvature="0"
         d="m 30.25,560.507 763.465,0 0,-540.41 -763.465,0 0,540.41 z"
         id="path66-4" />
    </clipPath>
    <clipPath
       clipPathUnits="userSpaceOnUse"
       id="clipPath72-9">
      <path
         inkscape:connector-curvature="0"
         d="M 0,0 842,0 842,596 0,596 0,0 z"
         id="path74-1" />
    </clipPath>
    <clipPath
       clipPathUnits="userSpaceOnUse"
       id="clipPath64-7-9-0">
      <path
         inkscape:connector-curvature="0"
         d="m 30.25,560.507 763.465,0 0,-540.41 -763.465,0 0,540.41 z"
         id="path66-2-8-2" />
    </clipPath>
    <clipPath
       clipPathUnits="userSpaceOnUse"
       id="clipPath72-6-2-4">
      <path
         inkscape:connector-curvature="0"
         d="M 0,0 842,0 842,596 0,596 0,0 z"
         id="path74-01-5-8" />
    </clipPath>
    <clipPath
       clipPathUnits="userSpaceOnUse"
       id="clipPath32-9">
      <path
         inkscape:connector-curvature="0"
         d="m 0,0 314.646,0 0,612.283 L 0,612.283 0,0 z"
         id="path34-4" />
    </clipPath>
  </defs>
  <sodipodi:namedview
     inkscape:document-units="mm"
     pagecolor="#ffffff"
     bordercolor="#666666"
     borderopacity="1.0"
     inkscape:pageopacity="0.0"
     inkscape:pageshadow="2"
     inkscape:zoom="0.21707918"
     inkscape:cx="584.80783"
     inkscape:cy="-445.51953"
     inkscape:current-layer="Layer_x0020_1"
     id="namedview4245"
     showgrid="false"
     inkscape:window-width="1100"
     inkscape:window-height="717"
     inkscape:window-x="517"
     inkscape:window-y="200"
     inkscape:window-maximized="0" />
  <metadata
     id="metadata4247">
    <rdf:RDF>
      <cc:Work
         rdf:about="">
        <dc:format>image/svg+xml</dc:format>
        <dc:type
           rdf:resource="http://purl.org/dc/dcmitype/StillImage" />
        <dc:title />
      </cc:Work>
    </rdf:RDF>
  </metadata>
  <g
     inkscape:label="Layer 1"
     inkscape:groupmode="layer"
     id="layer1">
    <g
       style="display:inline"
       transform="matrix(0.0232663,0,0,0.0232663,17.858872,163.63876)"
       id="Layer_x0020_1">
      <metadata
         id="CorelCorpID_0Corel-Layer" />
      <path
         style="fill:#879399;fill-opacity:1"
         id="path1088-9-8"
         inkscape:connector-curvature="0"
         d="m 9051.0163,-4695.443 c -884.4017,3.9653 -1939.9638,1095.1155 -1939.9638,1095.1155 L 1838.7733,827.10566 33144.005,2532.348 36867.487,-2395.7285 c 134.007,-600.8389 -442.723,-805.2927 -969.982,-860.5032 -176.065,-19.0979 -348.061,-17.845 -484.886,-15.6547 L 9238.7712,-4679.7882 c -56.9855,-10.0213 -128.788,-15.968 -187.7549,-15.6548 l 0,0 z M 37008.382,-1879.4281 33441.346,2907.8602 V 10088.791 L 37008.382,4925.9932 V -1879.4281 z M 2057.8376,1265.2368 c -483.738,-1.0441 -860.5007,394.921 -860.5007,907.3606 V 8555.649 c 0,528.6164 417.2582,973.3209 923.1221,1001.2915 l 30006.704,1627.0735 c 505.864,27.239 891.813,-378.747 891.813,-907.363 V 3893.6013 c 0,-527.8855 -385.949,-974.0517 -891.813,-1001.2914 L 2120.459,1265.2368 h -62.6214 z m 187.7549,375.4054 h 46.8623 c 401.2877,21.395 719.71,394.6101 719.71,813.5365 0,418.9264 -318.4223,726.0769 -719.71,704.0553 -400.5593,-21.395 -735.2629,-378.2245 -735.2629,-797.8818 0,-405.0442 304.0206,-719.71 688.4006,-719.71 l 0,0 z m -78.2737,297.2361 v 344.2002 l -328.4411,-15.6547 v 234.7191 l 328.4411,15.5503 v 359.8551 h 234.7191 V 2532.348 l 328.4412,15.6547 v -234.7191 l -328.4412,-15.5503 v -359.855 h -234.7191 l 0,0 z M 31923.754,3252.0605 h 31.309 c 400.56,21.395 735.263,378.953 735.263,797.8817 0,418.9263 -334.703,741.0006 -735.263,719.71 -401.288,-22.0215 -719.71,-378.9554 -719.71,-797.8817 0,-406.4016 304.018,-720.4409 688.401,-719.71 z m -78.274,281.6833 v 359.8575 l -328.443,-15.5504 v 219.0644 l 328.443,31.3095 v 344.2001 l 219.064,15.5504 v -344.2002 l 344.201,15.6547 v -234.7191 l -344.201,-31.3094 V 3549.401 l -219.064,-15.6572 z m -27268.8611,297.2361 4380.571,250.2718 v 3410.589 L 7564.8384,7413.567 v -516.3005 l 923.0152,46.9642 V 4581.8973 L 5045.9527,4394.1424 v 2362.3335 l 923.1221,46.8598 v 516.3004 l -1392.4559,-62.619 V 3830.9799 l 0,0 z m 7619.0621,735.2627 c 52.809,-6.3668 103.843,-3.028 156.446,0 l 4380.571,234.7191 c 429.26,23.5877 898.177,374.3636 938.672,782.227 89.754,-104.5762 202.783,-180.5552 344.2,-203.4096 h 140.895 c 351.925,19.0979 625.782,335.8496 625.782,704.0553 0,368.2033 -273.857,644.984 -625.782,625.7817 -270.309,-14.7175 -501.063,-198.1939 -594.472,-453.6815 -23.689,148.7212 -48.217,289.303 -93.824,438.0243 -151.749,494.8034 -417.258,934.7071 -923.122,907.3629 -1277.446,-69.1945 -2726.887,-149.8697 -4005.061,-219.0643 -505.133,-27.2398 -754.987,-488.8543 -907.363,-1001.2914 -41.328,-137.6607 -72.533,-269.0566 -93.824,-406.7173 -103.01,221.6747 -322.701,357.456 -578.818,344.2003 -352.757,-19.098 -641.436,-335.8496 -641.436,-704.0553 0,-368.2057 288.784,-644.984 641.436,-625.7817 179.616,9.6037 352.238,84.9562 469.232,219.0668 48.844,-341.3835 396.696,-596.8736 766.468,-641.4363 z m 13376.333,250.2694 3660.861,187.7549 V 8759.0586 L 25572.014,8555.649 V 4816.512 z m -5303.693,187.7549 3441.901,203.412 v 2753.498 L 20268.321,7773.422 V 5004.2669 z m 5647.789,187.7573 v 1204.5966 l 2972.46,156.4454 v -1204.599 l -2972.46,-156.443 z m -13204.128,31.3095 c -150.183,-8.8727 -266.031,124.8227 -266.031,281.5789 0,157.5939 115.743,273.5439 266.031,281.5813 150.078,8.1394 281.477,-108.437 281.477,-265.9241 0,-156.7587 -131.399,-289.0967 -281.477,-297.2361 z m 923.015,62.6189 c -150.183,-8.1394 -281.579,108.4371 -281.579,265.9266 0,157.4871 131.396,289.1987 281.579,297.2337 150.185,8.0374 266.031,-124.8203 266.031,-281.5789 -0.1,-157.594 -115.846,-273.544 -266.031,-281.5814 z m -2675.329,31.2051 c -180.344,-9.4968 -328.441,125.1359 -328.441,312.8908 0,187.7549 148.202,350.2539 328.441,359.855 178.989,9.6012 328.546,-125.8643 328.546,-312.8908 0,-187.7549 -149.557,-350.2514 -328.546,-359.855 z m 3582.692,0 c -150.183,-8.1394 -265.927,123.9874 -265.927,281.5813 0,156.8631 115.639,289.1987 265.927,297.2361 150.914,8.1394 281.581,-108.437 281.581,-265.9266 0,-156.7586 -130.667,-305.4799 -281.581,-312.8908 z m 923.122,46.9666 c -150.185,-8.1418 -281.686,123.9874 -281.686,281.579 0,156.7586 131.501,289.1986 281.686,297.236 150.81,8.1394 265.924,-108.437 265.924,-265.9266 0,-157.4871 -115.114,-304.8534 -265.924,-312.8884 z m 5882.404,0 c -328.337,128.1615 -686.313,752.0637 -704.056,782.2247 v 15.5503 l -31.309,78.2761 v 1001.2914 c 0,145.0692 129.936,257.8892 281.581,265.9242 l 2190.234,125.1359 c 151.645,8.1418 281.581,-104.4693 281.581,-250.2694 v -985.6367 l -15.553,-93.8264 v -15.5504 l -31.309,-31.3094 c -54.48,-94.2441 -393.357,-659.7015 -704.056,-813.5366 l -1267.113,-78.2737 0,0 z m -4975.148,62.619 c -150.078,-8.1418 -281.477,109.0635 -281.477,265.9266 0,156.7562 131.399,289.1987 281.477,297.2336 150.183,8.1419 266.031,-108.437 266.031,-265.9241 0,-156.8631 -115.743,-289.2011 -266.031,-297.2361 l 0,0 z m 9856.367,31.2051 2331.024,125.1359 v 406.7148 l -2331.024,-125.1359 v -406.7148 z m -8072.744,250.3762 c -179.72,-10.332 -328.546,125.8644 -328.546,312.8884 0,187.7573 148.93,350.2539 328.546,359.8575 178.885,9.4968 328.441,-140.7907 328.441,-328.5456 0,-187.8617 -149.556,-335.4344 -328.441,-344.2003 l 0,0 z m -4975.148,500.6457 c -150.078,-8.1418 -281.581,108.4347 -281.581,265.9242 0,156.7587 131.503,289.1987 281.581,297.2361 150.914,8.8703 266.029,-109.168 266.029,-265.9266 0,-157.5915 -115.115,-289.1987 -266.029,-297.2337 z m 907.361,46.8598 c -150.914,-8.1418 -265.924,109.168 -265.924,265.9242 0,157.594 115.01,289.2011 265.924,297.2361 150.183,8.1418 266.031,-109.0611 266.031,-265.9242 0,-156.7586 -115.744,-289.0967 -266.031,-297.2361 z m 923.122,46.9643 c -150.183,-8.1394 -281.581,108.437 -281.581,265.9266 0,157.4895 131.398,304.749 281.581,312.8908 149.452,8.1394 265.924,-123.9874 265.924,-281.5814 0,-156.863 -116.472,-289.1986 -265.924,-297.236 z m 6054.506,0 1830.483,93.8264 v 469.3362 l -1830.483,-93.8264 v -469.3362 z m -5147.145,46.8598 c -150.183,-8.1394 -266.029,108.437 -266.029,265.9266 0,156.863 115.741,304.749 266.029,312.8908 150.914,8.1394 265.926,-108.4371 265.926,-265.9266 0,-156.7587 -115.639,-304.749 -265.926,-312.8908 z m 20041.067,187.7573 -2033.787,2956.9077 c -340.966,536.0268 -681.721,1027.8028 -1001.292,1439.3178 -176.587,204.036 -442.723,328.233 -735.365,312.891 L 9880.2076,10041.827 11491.521,12247.715 H 42515.172 L 37227.238,7522.9437 c 0,0 -595.723,-640.2902 -1267.114,-985.5322 z M 25916.11,7006.7453 v 1204.599 l 2972.46,172.1002 V 7163.1907 l -2972.46,-156.4454 z m 312.995,250.2718 2331.024,140.7907 v 406.7148 l -2331.024,-125.1335 v -422.372 z M 2245.5925,7663.8364 h 46.8623 c 401.2877,21.395 719.71,378.2245 719.71,797.8818 0,418.9263 -318.4223,741.7341 -719.71,719.7126 -400.5593,-21.2907 -735.3673,-393.775 -735.3673,-813.5367 0,-405.7775 304.0205,-704.7862 688.505,-704.0577 l 0,0 z m -78.2737,281.5813 v 344.2003 l -328.4411,-15.5503 v 234.7191 l 328.4411,15.5527 v 359.8551 h 234.7191 v -344.2003 l 328.4412,15.6547 v -234.7215 l -328.4412,-15.6547 V 7945.4177 H 2167.3188 z M 31923.754,9259.6001 h 31.309 c 400.56,22.0215 735.263,378.2245 735.263,797.8819 0,418.195 -334.703,741.001 -735.263,719.71 -401.288,-22.022 -719.71,-378.953 -719.71,-797.8819 0,-406.506 304.018,-720.4409 688.401,-719.71 z m -78.274,297.236 v 344.2003 l -328.443,-15.5503 v 234.7189 l 328.443,15.551 v 344.202 l 219.064,15.655 v -359.857 l 344.201,15.552 v -219.0665 l -344.201,-15.5503 v -359.8551 h -219.064 l 0,0 z M 7627.3529,9916.6912 v 4662.1518 c 1153.7715,1594.093 2291.8859,3936.702 3457.4511,5522.656 V 12623.227 L 9191.807,9994.8629 7627.3529,9916.6912 z m 4787.2881,2753.3958 c -505.864,0 -907.36,425.711 -907.36,954.327 v 6383.154 c 0,527.886 401.601,954.327 907.36,954.327 h 29991.052 c 505.864,0 923.015,-426.441 923.015,-954.327 v -6383.154 c 0,-528.616 -417.151,-954.327 -923.015,-954.327 H 12414.641 z m 172.1,359.855 c 401.29,0 719.71,347.644 719.71,766.572 0,418.927 -318.42,766.57 -719.71,766.57 -401.287,0 -735.26,-347.643 -735.26,-766.57 0,-418.928 333.973,-766.572 735.26,-766.572 z m 29662.611,0 c 402.019,0 735.261,347.644 735.261,766.572 0,418.927 -333.242,766.57 -735.261,766.57 -401.29,0 -719.712,-347.643 -719.712,-766.57 0,-418.928 318.422,-766.572 719.712,-766.572 z m -29772.092,297.236 v 344.201 h -344.2 v 250.269 h 344.2 v 344.2 h 219.067 v -344.2 h 344.2 v -250.269 h -344.2 v -344.201 h -219.067 z m 29662.507,0 v 344.201 h -328.442 v 250.269 h 328.442 v 344.2 h 234.719 v -344.2 h 328.441 v -250.269 h -328.441 v -344.201 h -234.719 z m -6273.571,1611.419 h 3660.861 v 3754.789 h -3660.861 v -3754.789 z m -20995.395,156.443 h 4396.228 v 3426.246 H 17859.02 v -531.955 h 923.018 v -2346.784 h -3441.796 v 2346.784 h 923.119 v 531.955 H 14870.905 V 15095.04 z m 21339.595,203.412 v 1204.596 h 2972.461 v -1204.596 h -2972.461 z m -13548.328,109.478 h 4380.574 c 429.884,0 883.981,328.859 923.015,735.368 115.535,-138.494 294.312,-234.722 484.991,-234.722 351.924,0 641.436,288.992 641.436,657.091 0,367.475 -289.407,672.746 -641.436,672.746 -268.744,0 -500.333,-176.483 -594.472,-422.474 -22.855,151.749 -49.053,302.768 -93.824,453.786 -153.211,504.402 -402.335,954.325 -907.361,954.325 h -4020.718 c -505.865,0 -754.988,-450.027 -907.361,-954.325 -42.686,-141.417 -71.805,-280.328 -93.827,-422.477 -101.652,230.441 -321.134,391.165 -578.815,391.165 -352.028,0 -625.781,-305.375 -625.781,-672.746 0,-368.099 273.753,-657.091 625.781,-657.091 182.537,0 352.236,91.01 469.337,219.067 51.242,-398.262 515.047,-719.713 938.461,-719.713 l 0,0 z m 7916.194,31.312 h 3426.142 v 2753.603 h -3426.142 v -2753.603 z m 5960.68,109.583 h 2315.473 v 406.822 h -2315.473 v -406.822 z m -4881.219,171.996 c -337.103,149.455 -719.71,829.191 -719.71,829.191 l -15.551,93.827 v 1001.291 c 0,145.696 113.551,250.27 265.927,250.27 h 2205.992 c 151.645,0 265.927,-104.574 265.927,-250.27 v -1001.291 l -15.553,-93.827 c 0,0 -382.398,-679.736 -719.71,-829.191 h -1267.322 l 0,0 z m -8635.904,328.65 c -150.183,0 -281.579,123.987 -281.579,281.581 0,157.49 131.396,281.582 281.579,281.582 150.914,0 266.031,-124.092 266.031,-281.582 0,-157.594 -115.117,-281.581 -266.031,-281.581 z m 907.363,0 c -150.914,0 -265.927,123.987 -265.927,281.581 0,157.49 115.013,281.582 265.927,281.582 150.183,0 281.581,-124.092 281.581,-281.582 0.1,-157.594 -131.294,-281.581 -281.581,-281.581 z m 923.122,0 c -150.914,0 -281.686,123.987 -281.686,281.581 0,157.49 130.772,281.582 281.686,281.582 150.078,0 265.924,-124.092 265.924,-281.582 0,-157.594 -115.741,-281.581 -265.924,-281.581 z m 891.706,0 c -150.183,0 -265.927,123.987 -265.927,281.581 0,157.49 115.639,281.582 265.927,281.582 150.914,0 281.581,-124.092 281.581,-281.582 0,-157.594 -130.667,-281.581 -281.581,-281.581 z m 923.122,0 c -151.749,0 -266.031,123.987 -266.031,281.581 0,157.49 114.282,281.582 266.031,281.582 149.452,0 265.924,-124.092 265.924,-281.582 0,-157.594 -116.577,-281.581 -265.924,-281.581 z m -5413.175,187.755 c -179.615,0 -328.441,140.791 -328.441,328.441 0,187.027 148.93,344.2 328.441,344.2 178.987,0 328.546,-157.173 328.546,-344.2 0,-187.755 -149.664,-328.441 -328.546,-328.441 z m 7196.586,0 c -178.884,0 -328.441,140.791 -328.441,328.441 0,187.027 149.661,344.2 328.441,344.2 179.72,0 312.891,-157.173 312.891,-344.2 0,-187.755 -133.275,-328.441 -312.891,-328.441 z m 2925.601,438.027 h 1830.483 v 469.336 h -1830.483 v -469.336 z m -7900.644,328.441 c -151.645,0 -281.581,124.823 -281.581,281.581 0,156.863 131.503,281.579 281.581,281.579 150.183,0 266.031,-124.716 266.031,-281.579 0,-156.758 -115.848,-281.581 -266.031,-281.581 z m 907.363,0 c -150.078,0 -265.926,124.823 -265.926,281.581 0,156.863 115.743,281.579 265.926,281.579 150.914,0 281.579,-124.716 281.579,-281.579 0,-156.758 -131.291,-281.581 -281.579,-281.581 z m 923.12,0 c -150.183,0 -281.579,124.823 -281.579,281.581 0,156.863 131.396,281.579 281.579,281.579 150.914,0 265.926,-124.716 265.926,-281.579 0,-156.758 -115.012,-281.581 -265.926,-281.581 z m 907.363,0 c -150.914,0 -281.581,124.823 -281.581,281.581 0,156.863 130.667,281.579 281.581,281.579 150.183,0 265.924,-124.716 265.924,-281.579 0,-156.758 -115.637,-281.581 -265.924,-281.581 z m 9997.05,109.585 v 1220.252 h 2972.461 v -1220.252 h -2972.461 z m 328.546,250.374 h 2315.473 v 406.718 h -2315.473 v -406.718 z m -23952.201,1673.933 c 401.29,0 719.71,347.646 719.71,766.572 0,418.927 -318.42,750.918 -719.71,750.918 -401.287,0 -735.26,-331.991 -735.26,-750.918 0,-418.926 333.973,-766.572 735.26,-766.572 l 0,0 z m 29662.611,0 c 402.019,0 735.261,347.646 735.261,766.572 0,418.927 -333.242,750.918 -735.261,750.918 -401.29,0 -719.712,-331.991 -719.712,-750.918 0,-418.926 318.422,-766.572 719.712,-766.572 l 0,0 z m -29772.092,297.236 v 359.855 h -344.2 v 234.722 h 344.2 v 344.2 h 219.067 v -344.2 h 344.2 v -234.722 h -344.2 v -359.855 h -219.067 z m 29662.507,0 v 359.855 h -328.442 v 234.722 h 328.442 v 344.2 h 234.719 v -344.2 h 328.441 v -234.722 h -328.441 v -359.855 h -234.719 z" />
      <path
         style="fill:#879399;fill-opacity:1;display:inline"
         id="path1088-9-8-1"
         inkscape:connector-curvature="0"
         d="m 6175.1203,36837.658 c -253.1145,1.134 -555.2148,313.42 -555.2148,313.42 l -1508.9181,1267.124 8959.5086,488.038 1065.655,-1410.408 c 38.353,-171.959 -126.707,-230.474 -277.607,-246.274 -50.39,-5.466 -99.615,-5.108 -138.774,-4.481 l -7490.9145,-402.939 c -16.3093,-2.869 -36.859,-4.57 -53.7352,-4.48 z m 8001.3547,805.939 -1020.88,1370.114 0,2055.171 1020.88,-1477.585 z m -10002.7917,899.998 c -138.4451,-0.299 -246.274,113.025 -246.274,259.685 l 0,1826.819 c 0,151.29 119.4187,278.563 264.1961,286.569 l 8587.8726,465.665 c 144.777,7.796 255.235,-108.396 255.235,-259.686 l 0,-1826.818 c 0,-151.081 -110.458,-278.773 -255.235,-286.568 l -8587.8726,-465.666 z m 53.7351,107.44 13.412,0 c 114.8479,6.123 205.9798,112.937 205.9798,232.833 0,119.896 -91.1319,207.802 -205.9798,201.5 -114.6395,-6.123 -210.4311,-108.248 -210.4311,-228.353 0,-115.923 87.0102,-205.98 197.0191,-205.98 z m -22.4018,85.069 0,98.509 -93.9993,-4.48 0,67.176 93.9993,4.45 0,102.991 67.1762,0 0,-98.51 93.9994,4.48 0,-67.176 -93.9994,-4.45 0,-102.99 -67.1762,0 z m 8516.2454,376.117 8.961,0 c 114.64,6.123 210.431,108.455 210.431,228.352 0,119.896 -95.791,212.073 -210.431,205.98 -114.848,-6.303 -205.98,-108.456 -205.98,-228.352 0,-116.312 87.01,-206.189 197.019,-205.98 z m -22.402,80.617 0,102.991 -93.999,-4.451 0,62.696 93.999,8.961 0,98.509 62.696,4.451 0,-98.51 98.51,4.48 0,-67.176 -98.51,-8.96 0,-98.51 z m -7804.3054,85.069 1253.7125,71.627 0,976.105 -398.4887,-22.402 0,-147.764 264.1655,13.441 0,-676.096 -985.0667,-53.735 0,676.096 264.1961,13.411 0,147.764 -398.5187,-17.921 0,-980.526 z m 2180.5638,210.43 c 15.1141,-1.821 29.7196,-0.866 44.7749,0 l 1253.7123,67.177 c 122.8535,6.75 257.0572,107.142 268.6468,223.872 25.6874,-29.93 58.0359,-51.675 98.5092,-58.216 l 40.3239,0 c 100.7205,5.466 179.0978,96.12 179.0978,201.5 0,105.379 -78.3773,184.593 -179.0978,179.098 -77.362,-4.212 -143.4034,-56.723 -170.1367,-129.843 -6.7798,42.563 -13.7996,82.798 -26.8526,125.362 -43.4299,141.612 -119.4183,267.511 -264.1957,259.686 -365.6034,-19.804 -780.4309,-42.893 -1146.2424,-62.696 -144.5685,-7.796 -216.0762,-139.91 -259.686,-286.569 -11.8278,-39.398 -20.7589,-77.003 -26.8526,-116.402 -29.481,63.444 -92.3563,102.304 -165.6566,98.51 -100.9582,-5.465 -183.5781,-96.119 -183.5781,-201.499 0,-105.38 82.6495,-184.594 183.5781,-179.098 51.4059,2.749 100.8099,24.314 134.2938,62.697 13.979,-97.704 113.5336,-170.825 219.3617,-183.579 z m 3828.2856,71.627 1047.733,53.735 0,1074.616 -1047.733,-58.216 z m -1517.9086,53.735 985.0666,58.217 0,788.047 -985.0666,-53.735 z m 1616.3886,53.736 0,344.754 850.713,44.774 0,-344.754 z m -3779.0009,8.961 c -42.982,-2.539 -76.1377,35.724 -76.1377,80.587 0,45.103 33.1252,78.288 76.1377,80.588 42.9519,2.33 80.5581,-31.034 80.5581,-76.107 0,-44.864 -37.6062,-82.738 -80.5581,-85.068 z m 264.1653,17.921 c -42.982,-2.329 -80.5873,31.035 -80.5873,76.108 0,45.073 37.6053,82.768 80.5873,85.068 42.9828,2.3 76.1376,-35.723 76.1376,-80.588 -0.026,-45.102 -33.1548,-78.287 -76.1376,-80.588 z m -765.6751,8.931 c -51.614,-2.718 -93.9991,35.814 -93.9991,89.549 0,53.735 42.4147,100.242 93.9991,102.99 51.2264,2.748 94.0295,-36.022 94.0295,-89.549 0,-53.735 -42.8031,-100.241 -94.0295,-102.99 z m 1025.3611,0 c -42.9819,-2.329 -76.108,35.485 -76.108,80.589 0,44.893 33.096,82.767 76.108,85.068 43.1914,2.329 80.5882,-31.035 80.5882,-76.108 0,-44.864 -37.3968,-87.428 -80.5882,-89.549 z m 264.1963,13.442 c -42.9829,-2.33 -80.6183,35.485 -80.6183,80.587 0,44.865 37.6354,82.769 80.6183,85.069 43.1613,2.33 76.1067,-31.035 76.1067,-76.108 0,-45.073 -32.9454,-87.248 -76.1067,-89.548 z m 1683.5345,0 c -93.9694,36.68 -196.4215,215.239 -201.4994,223.872 l 0,4.45 -8.9607,22.403 0,286.568 c 0,41.518 37.1874,73.807 80.5882,76.107 l 626.8417,35.813 c 43.4,2.33 80.588,-29.899 80.588,-71.626 l 0,-282.088 -4.451,-26.853 0,-4.451 -8.961,-8.96 c -15.592,-26.973 -112.578,-188.806 -201.5,-232.833 l -362.6458,-22.402 z m -1423.8794,17.922 c -42.9519,-2.331 -80.5582,31.213 -80.5582,76.107 0,44.864 37.6063,82.768 80.5582,85.068 42.9819,2.33 76.1376,-31.034 76.1376,-76.107 0,-44.894 -33.1256,-82.769 -76.1376,-85.068 z m 2820.8772,8.93 667.135,35.814 0,116.401 -667.135,-35.814 z m -2310.4071,71.657 c -51.4355,-2.956 -94.0295,36.023 -94.0295,89.549 0,53.735 42.6236,100.242 94.0295,102.99 51.1964,2.719 93.9994,-40.294 93.9994,-94.029 0,-53.766 -42.803,-96.001 -93.9994,-98.51 z m -1423.8795,143.284 c -42.9523,-2.33 -80.5882,31.034 -80.5882,76.108 0,44.864 37.6359,82.768 80.5882,85.068 43.191,2.539 76.1368,-31.244 76.1368,-76.107 0,-45.103 -32.9458,-82.769 -76.1368,-85.069 z m 259.6852,13.412 c -43.1914,-2.331 -76.1072,31.244 -76.1072,76.107 0,45.103 32.9158,82.769 76.1072,85.068 42.9819,2.331 76.1376,-31.213 76.1376,-76.107 0,-44.864 -33.1256,-82.739 -76.1376,-85.068 z m 264.1962,13.441 c -42.9824,-2.329 -80.5882,31.034 -80.5882,76.108 0,45.073 37.6058,87.218 80.5882,89.549 42.7725,2.329 76.1067,-35.485 76.1067,-80.589 0,-44.893 -33.3342,-82.767 -76.1067,-85.068 z m 1732.7901,0 523.8811,26.853 0,134.323 -523.8811,-26.853 z m -1473.1049,13.411 c -42.982,-2.329 -76.1372,31.035 -76.1372,76.108 0,44.894 33.1252,87.219 76.1372,89.549 43.1914,2.33 76.1076,-31.035 76.1076,-76.108 0,-44.864 -33.0956,-87.219 -76.1076,-89.549 z m 2861.141,188.058 0,344.755 850.713,49.255 0,-349.235 z m 89.579,71.628 667.135,40.294 0,116.401 -667.135,-35.813 z m -6864.0446,116.431 13.412,0 c 114.8479,6.123 205.9798,108.248 205.9798,228.353 0,119.896 -91.1319,212.283 -205.9798,205.98 -114.6395,-6.093 -210.461,-112.697 -210.461,-232.833 0,-116.133 87.0102,-201.708 197.049,-201.5 z m -22.4018,80.588 0,98.51 -93.9993,-4.451 0,67.177 93.9993,4.451 0,102.99 67.1762,0 0,-98.51 93.9994,4.48 0,-67.176 -93.9994,-4.481 0,-102.99 z m 8516.2454,376.117 8.961,0 c 114.64,6.303 210.431,108.247 210.431,228.353 0,119.687 -95.791,212.073 -210.431,205.98 -114.848,-6.303 -205.98,-108.456 -205.98,-228.353 0,-116.341 87.01,-206.189 197.019,-205.98 z m -22.402,85.069 0,98.509 -93.999,-4.45 0,67.176 93.999,4.451 0,98.51 62.696,4.48 0,-102.99 98.51,4.451 0,-62.697 -98.51,-4.45 0,-102.99 -62.696,0 z"
         sodipodi:nodetypes="ccccccccccccccccssccsscccccscsccccccccccccccccccscsccccccccccccccccccccccccccccscccccsccccccccsccsccccccccccccccccscsccsscccscsccscsccscscccccsccsccccccccscsccccccccscscccscsccscsccscscccccccscscccccccccccccscscccccccccccccccccscsccccccccccccccc" />
    </g>
  </g>
</svg>
