<?xml version="1.0" encoding="UTF-8" standalone="no"?>
<!-- Created with Inkscape (http://www.inkscape.org/) -->

<svg
   xmlns:dc="http://purl.org/dc/elements/1.1/"
   xmlns:cc="http://creativecommons.org/ns#"
   xmlns:rdf="http://www.w3.org/1999/02/22-rdf-syntax-ns#"
   xmlns:svg="http://www.w3.org/2000/svg"
   xmlns="http://www.w3.org/2000/svg"
   xmlns:sodipodi="http://sodipodi.sourceforge.net/DTD/sodipodi-0.dtd"
   xmlns:inkscape="http://www.inkscape.org/namespaces/inkscape"
   width="297mm"
   height="210mm"
   id="svg4241"
   version="1.1"
   inkscape:version="0.48.4 r9939"
   sodipodi:docname="taskit-logo-vaultsec.svg">
  <defs
     id="defs4243" />
  <sodipodi:namedview
     inkscape:document-units="mm"
     pagecolor="#ffffff"
     bordercolor="#666666"
     borderopacity="1.0"
     inkscape:pageopacity="0.0"
     inkscape:pageshadow="2"
     inkscape:zoom="0.61399264"
     inkscape:cx="490"
     inkscape:cy="380"
     inkscape:current-layer="layer1"
     id="namedview4245"
     showgrid="false"
     inkscape:window-width="1100"
     inkscape:window-height="717"
     inkscape:window-x="517"
     inkscape:window-y="200"
     inkscape:window-maximized="0" />
  <metadata
     id="metadata4247">
    <rdf:RDF>
      <cc:Work
         rdf:about="">
        <dc:format>image/svg+xml</dc:format>
        <dc:type
           rdf:resource="http://purl.org/dc/dcmitype/StillImage" />
        <dc:title></dc:title>
      </cc:Work>
    </rdf:RDF>
  </metadata>
  <g
     inkscape:label="Layer 1"
     inkscape:groupmode="layer"
     id="layer1">
    <path
       inkscape:connector-curvature="0"
       style="font-size:114.195755px;font-style:oblique;font-variant:normal;font-weight:normal;font-stretch:normal;line-height:125%;letter-spacing:0px;word-spacing:0px;fill:#0c141a;fill-opacity:1;stroke:none;display:inline;font-family:Miso;-inkscape-font-specification:Miso Oblique"
       d="m 337.0116,255.09719 0,148.3177 c 0,3.40442 1.1819,6.19254 3.49348,8.3826 2.3114,2.18817 5.02328,3.29343 8.18422,3.29343 3.40605,0 6.19876,-1.09493 8.38406,-3.29343 2.18529,-2.19006 3.29383,-4.97818 3.29383,-8.3826 l 0,-148.3177 c -3.76973,0.83993 -7.65797,1.30468 -11.67789,1.30468 -4.01974,0 -7.90794,-0.46475 -11.6777,-1.30468 z"
       id="path3696-1-7"
       inkscape:export-filename="C:\Users\aschielke\Documents\gpio.net-module-mit-geh.-kennz.png"
       inkscape:export-xdpi="300"
       inkscape:export-ydpi="300" />
    <path
       inkscape:connector-curvature="0"
       id="path3704-7-6"
       style="font-size:114.195755px;font-style:oblique;font-variant:normal;font-weight:normal;font-stretch:normal;line-height:125%;letter-spacing:0px;word-spacing:0px;fill:#0c141a;fill-opacity:1;stroke:none;display:inline;font-family:Miso;-inkscape-font-specification:Miso Oblique"
       d="m 779.59967,193.30305 c 0,-3.40441 1.0949,-6.20042 3.28349,-8.3856 2.18887,-2.18667 4.98642,-3.27879 8.39228,-3.27879 l 72.93895,0 c 3.40603,0 6.20355,1.07991 8.39272,3.27879 2.18876,2.18518 3.28318,4.98119 3.28318,8.3856 0,3.4078 -1.09486,6.20494 -3.28318,8.39461 -2.18917,2.18855 -4.98669,3.28198 -8.39272,3.28198 l -61.27385,0 0,77.32469 61.52042,0 c 3.40603,0 6.20357,1.07991 8.39259,3.27748 2.18921,2.18517 3.28333,4.98081 3.28376,8.3871 -4.3e-4,3.40629 -1.09485,6.20493 -3.28376,8.39311 -2.18902,2.18836 -4.98656,3.2833 -8.39259,3.2833 l -61.52042,0 0,84.61404 61.27385,0 c 3.40603,0 6.20355,1.07991 8.39272,3.2833 2.18876,2.18817 3.28318,4.98569 3.28318,8.3886 0,3.40197 -1.09486,6.19892 -3.28318,8.38579 -2.18917,2.18986 -4.98669,3.28329 -8.39272,3.28329 l -72.93895,0 c -3.40586,0 -6.20341,-1.07991 -8.39228,-3.28329 -2.18904,-2.18687 -3.28349,-4.9857 -3.28349,-8.39311 z"
       sodipodi:nodetypes="sccccscccccccccccscscsscss"
       inkscape:export-filename="C:\Users\aschielke\Documents\gpio.net-module-mit-geh.-kennz.png"
       inkscape:export-xdpi="300"
       inkscape:export-ydpi="300" />
    <path
       inkscape:connector-curvature="0"
       id="path3706-4-1"
       style="font-size:114.195755px;font-style:oblique;font-variant:normal;font-weight:normal;font-stretch:normal;line-height:125%;letter-spacing:0px;word-spacing:0px;fill:#0c141a;fill-opacity:1;stroke:none;display:inline;font-family:Miso;-inkscape-font-specification:Miso Oblique"
       d="m 1011.8274,181.63866 c 3.406,0 6.2015,1.07991 8.3868,3.27879 2.1852,2.18518 3.278,4.98119 3.278,8.3856 0,3.4078 -1.0934,6.20494 -3.278,8.39461 -2.1853,2.18855 -4.9808,3.28198 -8.3868,3.28198 l -35.75164,0 0,198.40352 c 0,3.40629 -1.09337,6.20493 -3.27792,8.39161 -2.18531,2.19005 -4.98089,3.2848 -8.38688,3.2848 -3.16126,0 -5.89744,-1.07992 -8.20888,-3.2848 -2.31139,-2.18668 -3.46719,-4.98532 -3.46719,-8.39161 l 0,-198.40352 -35.74018,0 c -3.16141,0 -5.89561,-1.09493 -8.20314,-3.28198 -2.30797,-2.18967 -3.46198,-4.98681 -3.46198,-8.39461 0,-3.40441 1.15339,-6.20042 3.46198,-8.3856 2.30753,-2.18667 5.04173,-3.27879 8.20314,-3.27879 z"
       inkscape:export-filename="C:\Users\aschielke\Documents\gpio.net-module-mit-geh.-kennz.png"
       inkscape:export-xdpi="300"
       inkscape:export-ydpi="300" />
    <path
       inkscape:connector-curvature="0"
       id="path4482"
       style="font-size:91.66083527px;font-style:oblique;font-variant:normal;font-weight:normal;font-stretch:normal;line-height:89.99999762%;letter-spacing:0px;word-spacing:0px;fill:#0c141a;fill-opacity:1;stroke:none;font-family:Miso;-inkscape-font-specification:Miso Oblique"
       d="m 611.78362,497.84909 c -0.79443,4e-5 -1.45132,-0.25964 -1.97068,-0.77904 -0.51936,-0.51932 -0.77904,-1.17621 -0.77903,-1.97067 -10e-6,-0.79439 0.25967,-1.45128 0.77903,-1.97068 0.51936,-0.51932 1.17625,-0.779 1.97068,-0.77904 l 4.58192,0 0,-6.78337 c -10e-6,-3.29886 1.16132,-6.10917 3.484,-8.43096 2.32265,-2.32167 5.13343,-3.48254 8.43236,-3.4826 0.7944,6e-5 1.45129,0.25974 1.97067,0.77904 0.51934,0.51942 0.77902,1.17631 0.77904,1.97068 -2e-5,0.79448 -0.2597,1.45137 -0.77904,1.97067 -0.51938,0.51941 -1.17627,0.77909 -1.97067,0.77904 -1.77162,5e-5 -3.28401,0.62617 -4.53717,1.87836 -1.25319,1.2523 -1.87978,2.76422 -1.87976,4.53577 l 0,6.78337 6.41693,0 c 0.7944,4e-5 1.45129,0.25972 1.97067,0.77904 0.51934,0.5194 0.77902,1.17629 0.77904,1.97068 -2e-5,0.79446 -0.2597,1.45135 -0.77904,1.97067 -0.51938,0.5194 -1.17627,0.77908 -1.97067,0.77904 l -6.41693,0 0,33.54762 c -2e-5,0.79442 -0.2597,1.45178 -0.77904,1.97207 -0.51937,0.52029 -1.17626,0.78044 -1.97067,0.78044 -0.79444,0 -1.45133,-0.26015 -1.97068,-0.78044 -0.51937,-0.52029 -0.77905,-1.17765 -0.77904,-1.97207 l 0,-33.54762 z" />
    <path
       inkscape:connector-curvature="0"
       id="path4484"
       style="font-size:91.66083527px;font-style:oblique;font-variant:normal;font-weight:normal;font-stretch:normal;line-height:89.99999762%;letter-spacing:0px;word-spacing:0px;fill:#0c141a;fill-opacity:1;stroke:none;font-family:Miso;-inkscape-font-specification:Miso Oblique"
       d="m 645.22494,533.77998 c -3.36232,-2.01589 -5.04348,-4.91759 -5.04347,-8.70509 l 0,-48.67244 c -10e-6,-0.79437 0.27506,-1.45126 0.82519,-1.97068 0.55013,-0.5193 1.19163,-0.77898 1.92452,-0.77904 0.79442,6e-5 1.45177,0.25974 1.97208,0.77904 0.52028,0.51942 0.78042,1.17631 0.78043,1.97068 l 0,48.67244 c -10e-6,1.71007 0.76364,3.02385 2.29097,3.94134 0.67132,0.36552 1.11422,0.91518 1.3287,1.64899 0.21444,0.73382 0.10721,1.4364 -0.32169,2.10774 -0.36552,0.67135 -0.91519,1.09886 -1.64899,1.28255 -0.73383,0.18369 -1.43641,0.0918 -2.10774,-0.27553 z" />
    <path
       inkscape:connector-curvature="0"
       id="path4486"
       style="font-size:91.66083527px;font-style:oblique;font-variant:normal;font-weight:normal;font-stretch:normal;line-height:89.99999762%;letter-spacing:0px;word-spacing:0px;fill:#0c141a;fill-opacity:1;stroke:none;font-family:Miso;-inkscape-font-specification:Miso Oblique"
       d="m 671.8717,533.91984 c -2.35345,0.45689 -4.66026,0.22705 -6.92044,-0.68952 -2.2602,-0.91657 -4.04718,-2.36789 -5.36096,-4.35395 -1.31379,-1.98605 -1.97068,-4.20055 -1.97067,-6.64351 l 0,-18.33328 c -10e-6,-3.29888 1.16086,-6.10966 3.4826,-8.43236 2.32172,-2.32263 5.1325,-3.48396 8.43236,-3.484 3.29982,4e-5 6.1106,1.16137 8.43236,3.484 2.3217,2.3227 3.48256,5.13348 3.48259,8.43236 l 0,9.16664 c -3e-5,0.79444 -0.2597,1.45133 -0.77903,1.97067 -0.51939,0.51938 -1.17628,0.77906 -1.97068,0.77904 l -15.58077,0 0,6.41693 c -2e-5,2.87187 1.31377,4.85746 3.94134,5.95678 2.62755,1.09933 4.94928,0.64105 6.9652,-1.37485 0.5501,-0.55013 1.19161,-0.82519 1.92452,-0.8252 0.7944,10e-6 1.46667,0.27507 2.01683,0.8252 0.5501,0.48859 0.82516,1.1301 0.82519,1.92452 -3e-5,0.73288 -0.27509,1.37439 -0.82519,1.92451 -1.71009,1.71193 -3.74184,2.79727 -6.09525,3.25602 z m 2.19865,-34.55743 c -1.25133,-1.25314 -2.76325,-1.87973 -4.53576,-1.87976 -1.77255,3e-5 -3.28494,0.62662 -4.53717,1.87976 -1.25225,1.25321 -1.87838,2.7656 -1.87836,4.53717 l 0,6.41693 12.83106,0 0,-6.41693 c -3e-5,-1.77157 -0.62661,-3.28396 -1.87977,-4.53717 z" />
    <path
       inkscape:connector-curvature="0"
       id="path4488"
       style="font-size:91.66083527px;font-style:oblique;font-variant:normal;font-weight:normal;font-stretch:normal;line-height:89.99999762%;letter-spacing:0px;word-spacing:0px;fill:#0c141a;fill-opacity:1;stroke:none;font-family:Miso;-inkscape-font-specification:Miso Oblique"
       d="m 691.08613,533.77998 c -1.58699,-0.8541 -1.95343,-2.07557 -1.09933,-3.66442 l 9.53309,-17.41578 -9.16665,-16.59059 c -0.36551,-0.67317 -0.4415,-1.37622 -0.22797,-2.10914 0.21352,-0.73284 0.65642,-1.28251 1.3287,-1.64899 0.67227,-0.3664 1.37485,-0.44286 2.10774,-0.22937 0.73288,0.21356 1.283,0.65693 1.65039,1.3301 l 7.42394,13.56394 7.51626,-13.56394 c 0.36735,-0.67317 0.91748,-1.11654 1.65039,-1.3301 0.73285,-0.21349 1.43543,-0.13703 2.10774,0.22937 0.67224,0.36648 1.11561,0.91615 1.3301,1.64899 0.21442,0.73292 0.13797,1.43597 -0.22938,2.10914 l -9.16664,16.59059 9.53308,17.41578 c 0.85594,1.58885 0.48949,2.81032 -1.09932,3.66442 -0.67324,0.36737 -1.37628,0.45922 -2.10914,0.27553 -0.73291,-0.18369 -1.28304,-0.6112 -1.65039,-1.28255 l -7.8827,-14.29962 -7.79038,14.29962 c -0.36739,0.67135 -0.91752,1.09886 -1.65039,1.28255 -0.73289,0.18369 -1.43594,0.0918 -2.10914,-0.27553 z" />
    <path
       inkscape:connector-curvature="0"
       id="path4490"
       style="font-size:91.66083527px;font-style:oblique;font-variant:normal;font-weight:normal;font-stretch:normal;line-height:89.99999762%;letter-spacing:0px;word-spacing:0px;fill:#0c141a;fill-opacity:1;stroke:none;font-family:Miso;-inkscape-font-specification:Miso Oblique"
       d="m 730.85767,483.59702 c -0.70306,0.70309 -1.57394,1.05461 -2.61265,1.05456 -1.03873,5e-5 -1.90961,-0.35147 -2.61265,-1.05456 -0.70305,-0.703 -1.05457,-1.57388 -1.05457,-2.61265 0,-1.03867 0.35152,-1.90955 1.05457,-2.61265 0.70304,-0.70299 1.57392,-1.05451 2.61265,-1.05457 1.03871,6e-5 1.90959,0.35158 2.61265,1.05457 0.70303,0.7031 1.05455,1.57398 1.05457,2.61265 -2e-5,1.03877 -0.35154,1.90965 -1.05457,2.61265 z m 0.13706,47.79969 c -10e-6,0.79442 -0.25969,1.45178 -0.77904,1.97207 -0.51937,0.52029 -1.17626,0.78044 -1.97067,0.78044 -0.73289,0 -1.3744,-0.26015 -1.92452,-0.78044 -0.55014,-0.52029 -0.8252,-1.17765 -0.82519,-1.97207 l 0,-36.66378 c -10e-6,-0.79438 0.27505,-1.45127 0.82519,-1.97067 0.55012,-0.51932 1.19163,-0.779 1.92452,-0.77904 0.79441,4e-5 1.4513,0.25972 1.97067,0.77904 0.51935,0.5194 0.77903,1.17629 0.77904,1.97067 z" />
    <path
       inkscape:connector-curvature="0"
       id="path4492"
       style="font-size:91.66083527px;font-style:oblique;font-variant:normal;font-weight:normal;font-stretch:normal;line-height:89.99999762%;letter-spacing:0px;word-spacing:0px;fill:#0c141a;fill-opacity:1;stroke:none;font-family:Miso;-inkscape-font-specification:Miso Oblique"
       d="m 746.50557,533.77998 c -0.79443,0 -1.45132,-0.25968 -1.97067,-0.77904 -0.51937,-0.51936 -0.77905,-1.17625 -0.77904,-1.97067 l 0,-54.62782 c -10e-6,-0.79437 0.25967,-1.45126 0.77904,-1.97068 0.51935,-0.5193 1.17624,-0.77898 1.97067,-0.77904 0.73288,6e-5 1.37438,0.25974 1.92452,0.77904 0.55012,0.51942 0.82518,1.17631 0.82519,1.97068 l 0,15.94721 6.41693,0 c 3.23735,4e-5 6.03229,1.16138 8.38481,3.484 2.35247,2.3227 3.52872,5.13348 3.52875,8.43236 l 0,17.6004 c -3e-5,3.29892 -1.17628,6.10924 -3.52875,8.43096 -2.35252,2.32174 -5.14746,3.4826 -8.38481,3.4826 z m 2.74971,-35.93089 0,30.43146 6.41693,0 c 1.77159,1e-5 3.28351,-0.62611 4.53577,-1.87836 1.25222,-1.25224 1.87834,-2.76416 1.87837,-4.53577 l 0,-17.6004 c -3e-5,-1.77157 -0.62615,-3.28396 -1.87837,-4.53717 -1.25226,-1.25314 -2.76418,-1.87972 -4.53577,-1.87976 z" />
    <path
       inkscape:connector-curvature="0"
       id="path4494"
       style="font-size:91.66083527px;font-style:oblique;font-variant:normal;font-weight:normal;font-stretch:normal;line-height:89.99999762%;letter-spacing:0px;word-spacing:0px;fill:#0c141a;fill-opacity:1;stroke:none;font-family:Miso;-inkscape-font-specification:Miso Oblique"
       d="m 784.14839,533.77998 c -3.36232,-2.01589 -5.04348,-4.91759 -5.04347,-8.70509 l 0,-48.67244 c -10e-6,-0.79437 0.27506,-1.45126 0.82519,-1.97068 0.55013,-0.5193 1.19163,-0.77898 1.92452,-0.77904 0.79442,6e-5 1.45177,0.25974 1.97208,0.77904 0.52028,0.51942 0.78042,1.17631 0.78043,1.97068 l 0,48.67244 c -10e-6,1.71007 0.76365,3.02385 2.29097,3.94134 0.67132,0.36552 1.11423,0.91518 1.3287,1.64899 0.21444,0.73382 0.10721,1.4364 -0.32169,2.10774 -0.36552,0.67135 -0.91518,1.09886 -1.64899,1.28255 -0.73383,0.18369 -1.43641,0.0918 -2.10774,-0.27553 z" />
    <path
       inkscape:connector-curvature="0"
       id="path4496"
       style="font-size:91.66083527px;font-style:oblique;font-variant:normal;font-weight:normal;font-stretch:normal;line-height:89.99999762%;letter-spacing:0px;word-spacing:0px;fill:#0c141a;fill-opacity:1;stroke:none;font-family:Miso;-inkscape-font-specification:Miso Oblique"
       d="m 810.79516,533.91984 c -2.35345,0.45689 -4.66026,0.22705 -6.92044,-0.68952 -2.2602,-0.91657 -4.04719,-2.36789 -5.36096,-4.35395 -1.31379,-1.98605 -1.97068,-4.20055 -1.97068,-6.64351 l 0,-18.33328 c 0,-3.29888 1.16086,-6.10966 3.4826,-8.43236 2.32172,-2.32263 5.1325,-3.48396 8.43236,-3.484 3.29982,4e-5 6.11061,1.16137 8.43236,3.484 2.3217,2.3227 3.48257,5.13348 3.4826,8.43236 l 0,9.16664 c -3e-5,0.79444 -0.25971,1.45133 -0.77904,1.97067 -0.51939,0.51938 -1.17628,0.77906 -1.97068,0.77904 l -15.58077,0 0,6.41693 c -10e-6,2.87187 1.31377,4.85746 3.94135,5.95678 2.62755,1.09933 4.94928,0.64105 6.96519,-1.37485 0.55011,-0.55013 1.19162,-0.82519 1.92452,-0.8252 0.7944,10e-6 1.46668,0.27507 2.01683,0.8252 0.5501,0.48859 0.82517,1.1301 0.82519,1.92452 -2e-5,0.73288 -0.27509,1.37439 -0.82519,1.92451 -1.71009,1.71193 -3.74183,2.79727 -6.09524,3.25602 z m 2.19865,-34.55743 c -1.25133,-1.25314 -2.76325,-1.87973 -4.53577,-1.87976 -1.77255,3e-5 -3.28494,0.62662 -4.53717,1.87976 -1.25225,1.25321 -1.87837,2.7656 -1.87836,4.53717 l 0,6.41693 12.83106,0 0,-6.41693 c -2e-5,-1.77157 -0.62661,-3.28396 -1.87976,-4.53717 z" />
    <path
       inkscape:connector-curvature="0"
       id="path4461"
       style="font-size:91.66083527px;font-style:oblique;font-variant:normal;font-weight:normal;font-stretch:normal;line-height:89.99999762%;letter-spacing:0px;word-spacing:0px;fill:#0c141a;fill-opacity:1;stroke:none;font-family:Miso;-inkscape-font-specification:Miso Oblique"
       d="m 667.9168,580.69915 0,-6.23231 c -2e-5,-2.75061 -1.28396,-4.67606 -3.85184,-5.77636 -2.62758,-1.10022 -4.88777,-0.64147 -6.78057,1.37626 -0.55014,0.55016 -1.22242,0.82523 -2.01683,0.82519 -0.73476,4e-5 -1.37673,-0.27503 -1.92592,-0.82519 -0.5492,-0.5501 -0.8238,-1.1916 -0.82379,-1.92452 -10e-6,-0.79439 0.27506,-1.43683 0.82519,-1.92732 1.71006,-1.71002 3.72595,-2.79443 6.04769,-3.25322 2.32172,-0.45871 4.58284,-0.2298 6.78337,0.68673 2.2005,0.91661 3.95765,2.35301 5.27145,4.30919 1.31376,1.95626 1.97065,4.126 1.97068,6.50924 l 0,27.31251 c -3e-5,0.79443 -0.27509,1.45132 -0.8252,1.97068 -0.55015,0.51936 -1.19166,0.77903 -1.92452,0.77903 l -9.16664,0 c -3.30079,0 -6.11204,-1.16086 -8.43376,-3.48259 -2.32173,-2.32173 -3.4826,-5.13251 -3.4826,-8.43236 0,-3.29983 1.16087,-6.11061 3.4826,-8.43236 2.32172,-2.32171 5.13297,-3.48258 8.43376,-3.4826 z m -10.9541,7.37919 c -1.25318,1.25133 -1.87977,2.76325 -1.87976,4.53577 -10e-6,1.77254 0.62658,3.28493 1.87976,4.53716 1.25317,1.25225 2.76556,1.87837 4.53717,1.87837 l 6.41693,0 0,-12.83106 -6.41693,0 c -1.77161,10e-6 -3.284,0.6266 -4.53717,1.87976 z" />
    <path
       inkscape:connector-curvature="0"
       id="path4463"
       style="font-size:91.66083527px;font-style:oblique;font-variant:normal;font-weight:normal;font-stretch:normal;line-height:89.99999762%;letter-spacing:0px;word-spacing:0px;fill:#0c141a;fill-opacity:1;stroke:none;font-family:Miso;-inkscape-font-specification:Miso Oblique"
       d="m 696.65592,604.52906 c -3.29892,0 -6.10924,-1.16086 -8.43096,-3.48259 -2.32174,-2.32173 -3.4826,-5.13205 -3.4826,-8.43096 l 0,-27.13349 c 0,-0.79439 0.25967,-1.45128 0.77904,-1.97068 0.51935,-0.51931 1.17624,-0.77899 1.97067,-0.77903 0.79442,4e-5 1.45131,0.25972 1.97068,0.77903 0.51935,0.5194 0.77903,1.17629 0.77904,1.97068 l 0,27.13349 c -1e-5,1.77161 0.62611,3.28353 1.87836,4.53576 1.25223,1.25225 2.76415,1.87837 4.53577,1.87837 l 6.41693,0 0,-33.54762 c -2e-5,-0.79439 0.25966,-1.45128 0.77904,-1.97068 0.51933,-0.51931 1.17622,-0.77899 1.97067,-0.77903 0.7944,4e-5 1.45129,0.25972 1.97068,0.77903 0.51933,0.5194 0.77901,1.17629 0.77904,1.97068 l 0,36.29733 c -3e-5,0.79443 -0.25971,1.45132 -0.77904,1.97068 -0.51939,0.51936 -1.17628,0.77903 -1.97068,0.77903 z" />
    <path
       inkscape:connector-curvature="0"
       id="path4465"
       style="font-size:91.66083527px;font-style:oblique;font-variant:normal;font-weight:normal;font-stretch:normal;line-height:89.99999762%;letter-spacing:0px;word-spacing:0px;fill:#0c141a;fill-opacity:1;stroke:none;font-family:Miso;-inkscape-font-specification:Miso Oblique"
       d="m 720.35436,568.59817 c -0.79443,4e-5 -1.45132,-0.25964 -1.97068,-0.77904 -0.51936,-0.51932 -0.77904,-1.17621 -0.77903,-1.97067 -10e-6,-0.79438 0.25967,-1.45127 0.77903,-1.97067 0.51936,-0.51932 1.17625,-0.779 1.97068,-0.77904 l 4.58192,0 0,-15.94722 c -10e-6,-0.79437 0.25967,-1.45126 0.77904,-1.97067 0.51935,-0.5193 1.17624,-0.77898 1.97067,-0.77904 0.79442,6e-5 1.45131,0.25974 1.97068,0.77904 0.51934,0.51941 0.77902,1.1763 0.77904,1.97067 l 0,15.94722 6.41693,0 c 0.7944,4e-5 1.45129,0.25972 1.97067,0.77904 0.51934,0.5194 0.77902,1.17629 0.77904,1.97067 -2e-5,0.79446 -0.2597,1.45135 -0.77904,1.97067 -0.51938,0.5194 -1.17627,0.77908 -1.97067,0.77904 l -6.41693,0 0,24.38378 c -2e-5,1.77161 0.62657,3.28353 1.87976,4.53577 1.25316,1.25224 2.76555,1.87837 4.53717,1.87836 0.7944,10e-6 1.45129,0.26015 1.97067,0.78044 0.51934,0.52029 0.77902,1.17718 0.77904,1.97067 -2e-5,0.79349 -0.2597,1.45039 -0.77904,1.97068 -0.51938,0.52029 -1.17627,0.78043 -1.97067,0.78043 -3.29893,0 -6.10971,-1.16133 -8.43236,-3.48399 -2.32268,-2.32266 -3.48401,-5.13344 -3.484,-8.43236 l 0,-24.38378 z" />
    <path
       inkscape:connector-curvature="0"
       id="path4467"
       style="font-size:91.66083527px;font-style:oblique;font-variant:normal;font-weight:normal;font-stretch:normal;line-height:89.99999762%;letter-spacing:0px;word-spacing:0px;fill:#0c141a;fill-opacity:1;stroke:none;font-family:Miso;-inkscape-font-specification:Miso Oblique"
       d="m 759.84338,604.8983 c -3.29893,0 -6.10925,-1.16133 -8.43097,-3.48399 -2.32173,-2.32266 -3.4826,-5.13344 -3.48259,-8.43236 l 0,-18.33329 c -10e-6,-3.29887 1.16086,-6.10966 3.48259,-8.43236 2.32172,-2.32262 5.13204,-3.48395 8.43097,-3.48399 3.23921,4e-5 6.03508,1.16137 8.3876,3.48399 2.35247,2.3227 3.52872,5.13349 3.52875,8.43236 l 0,18.33329 c -3e-5,3.29892 -1.17628,6.1097 -3.52875,8.43236 -2.35252,2.32266 -5.14839,3.48399 -8.3876,3.48399 z m 4.53716,-34.78681 c -1.25133,-1.25313 -2.76325,-1.87972 -4.53577,-1.87976 -1.77255,4e-5 -3.28493,0.62663 -4.53716,1.87976 -1.25226,1.25321 -1.87838,2.7656 -1.87837,4.53717 l 0,18.33329 c -1e-5,1.77161 0.62611,3.28353 1.87837,4.53577 1.25223,1.25224 2.76461,1.87837 4.53716,1.87836 1.77252,10e-6 3.28491,-0.62612 4.53717,-1.87836 1.25222,-1.25224 1.87834,-2.76416 1.87837,-4.53577 l 0,-18.33329 c -3e-5,-1.77157 -0.62661,-3.28396 -1.87977,-4.53717 z" />
    <path
       inkscape:connector-curvature="0"
       id="path4469"
       style="font-size:91.66083527px;font-style:oblique;font-variant:normal;font-weight:normal;font-stretch:normal;line-height:89.99999762%;letter-spacing:0px;word-spacing:0px;fill:#0c141a;fill-opacity:1;stroke:none;font-family:Miso;-inkscape-font-specification:Miso Oblique"
       d="m 789.0804,568.59817 0,33.54762 c -1e-5,0.79443 -0.27507,1.45179 -0.82519,1.97208 -0.55014,0.52029 -1.19165,0.78043 -1.92452,0.78043 -0.79443,0 -1.45132,-0.26014 -1.97067,-0.78043 -0.51937,-0.52029 -0.77905,-1.17765 -0.77904,-1.97208 l 0,-36.29733 c -10e-6,-0.79438 0.25967,-1.45127 0.77904,-1.97067 0.51935,-0.51932 1.17624,-0.779 1.97067,-0.77904 l 27.49713,0 c 3.2392,4e-5 6.03506,1.16137 8.38761,3.48399 2.35245,2.3227 3.5287,5.13349 3.52875,8.43236 l 0,27.13069 c -5e-5,0.79443 -0.27511,1.45179 -0.8252,1.97208 -0.55017,0.52029 -1.19168,0.78043 -1.92452,0.78043 -0.79446,0 -1.45135,-0.26014 -1.97067,-0.78043 -0.5194,-0.52029 -0.77908,-1.17765 -0.77904,-1.97208 l 0,-27.13069 c -4e-5,-1.77157 -0.62663,-3.28395 -1.87976,-4.53716 -1.25322,-1.25314 -2.7656,-1.87973 -4.53717,-1.87977 l -6.41693,0 0,33.54762 c -3e-5,0.79443 -0.27463,1.45179 -0.82379,1.97208 -0.54923,0.52029 -1.1912,0.78043 -1.92592,0.78043 -0.79445,0 -1.45134,-0.26014 -1.97068,-0.78043 -0.51938,-0.52029 -0.77906,-1.17765 -0.77903,-1.97208 l 0,-33.54762 z" />
    <path
       inkscape:connector-curvature="0"
       id="path4471"
       style="font-size:91.66083527px;font-style:oblique;font-variant:normal;font-weight:normal;font-stretch:normal;line-height:89.99999762%;letter-spacing:0px;word-spacing:0px;fill:#0c141a;fill-opacity:1;stroke:none;font-family:Miso;-inkscape-font-specification:Miso Oblique"
       d="m 852.84969,580.69915 0,-6.23231 c -2e-5,-2.75061 -1.28396,-4.67606 -3.85183,-5.77636 -2.62758,-1.10022 -4.88777,-0.64147 -6.78058,1.37626 -0.55014,0.55016 -1.22241,0.82523 -2.01683,0.82519 -0.73475,4e-5 -1.37673,-0.27503 -1.92592,-0.82519 -0.5492,-0.5501 -0.8238,-1.1916 -0.82379,-1.92452 -10e-6,-0.79439 0.27506,-1.43683 0.82519,-1.92732 1.71006,-1.71002 3.72595,-2.79443 6.04769,-3.25322 2.32172,-0.45871 4.58284,-0.2298 6.78338,0.68673 2.20049,0.91661 3.95764,2.35301 5.27144,4.30919 1.31376,1.95626 1.97065,4.126 1.97068,6.50924 l 0,27.31251 c -3e-5,0.79443 -0.27509,1.45132 -0.8252,1.97068 -0.55015,0.51936 -1.19166,0.77903 -1.92451,0.77903 l -9.16665,0 c -3.30078,0 -6.11203,-1.16086 -8.43376,-3.48259 -2.32173,-2.32173 -3.4826,-5.13251 -3.48259,-8.43236 -10e-6,-3.29983 1.16086,-6.11061 3.48259,-8.43236 2.32173,-2.32171 5.13298,-3.48258 8.43376,-3.4826 z m -10.95409,7.37919 c -1.25319,1.25133 -1.87978,2.76325 -1.87977,4.53577 -1e-5,1.77254 0.62658,3.28493 1.87977,4.53716 1.25316,1.25225 2.76555,1.87837 4.53716,1.87837 l 6.41693,0 0,-12.83106 -6.41693,0 c -1.77161,10e-6 -3.284,0.6266 -4.53716,1.87976 z" />
    <path
       inkscape:connector-curvature="0"
       id="path4473"
       style="font-size:91.66083527px;font-style:oblique;font-variant:normal;font-weight:normal;font-stretch:normal;line-height:89.99999762%;letter-spacing:0px;word-spacing:0px;fill:#0c141a;fill-opacity:1;stroke:none;font-family:Miso;-inkscape-font-specification:Miso Oblique"
       d="m 869.1242,568.59817 c -0.79443,4e-5 -1.45132,-0.25964 -1.97068,-0.77904 -0.51936,-0.51932 -0.77904,-1.17621 -0.77904,-1.97067 0,-0.79438 0.25968,-1.45127 0.77904,-1.97067 0.51936,-0.51932 1.17625,-0.779 1.97068,-0.77904 l 4.58192,0 0,-15.94722 c -1e-5,-0.79437 0.25967,-1.45126 0.77904,-1.97067 0.51935,-0.5193 1.17624,-0.77898 1.97067,-0.77904 0.79441,6e-5 1.4513,0.25974 1.97068,0.77904 0.51934,0.51941 0.77902,1.1763 0.77903,1.97067 l 0,15.94722 6.41693,0 c 0.79441,4e-5 1.4513,0.25972 1.97068,0.77904 0.51933,0.5194 0.77901,1.17629 0.77904,1.97067 -3e-5,0.79446 -0.25971,1.45135 -0.77904,1.97067 -0.51938,0.5194 -1.17627,0.77908 -1.97068,0.77904 l -6.41693,0 0,24.38378 c -1e-5,1.77161 0.62658,3.28353 1.87977,4.53577 1.25315,1.25224 2.76554,1.87837 4.53716,1.87836 0.79441,10e-6 1.4513,0.26015 1.97068,0.78044 0.51933,0.52029 0.77901,1.17718 0.77904,1.97067 -3e-5,0.79349 -0.25971,1.45039 -0.77904,1.97068 -0.51938,0.52029 -1.17627,0.78043 -1.97068,0.78043 -3.29892,0 -6.10971,-1.16133 -8.43236,-3.48399 -2.32267,-2.32266 -3.484,-5.13344 -3.48399,-8.43236 l 0,-24.38378 z" />
    <path
       inkscape:connector-curvature="0"
       id="path4475"
       style="font-size:91.66083527px;font-style:oblique;font-variant:normal;font-weight:normal;font-stretch:normal;line-height:89.99999762%;letter-spacing:0px;word-spacing:0px;fill:#0c141a;fill-opacity:1;stroke:none;font-family:Miso;-inkscape-font-specification:Miso Oblique"
       d="m 903.16134,554.3461 c -0.70306,0.7031 -1.57394,1.05462 -2.61265,1.05457 -1.03872,5e-5 -1.90961,-0.35147 -2.61264,-1.05457 -0.70306,-0.703 -1.05458,-1.57388 -1.05457,-2.61265 -10e-6,-1.03866 0.35151,-1.90954 1.05457,-2.61264 0.70303,-0.70299 1.57392,-1.05452 2.61264,-1.05457 1.03871,5e-5 1.90959,0.35158 2.61265,1.05457 0.70303,0.7031 1.05456,1.57398 1.05457,2.61264 -10e-6,1.03877 -0.35154,1.90965 -1.05457,2.61265 z m 0.13707,47.79969 c -2e-5,0.79443 -0.2597,1.45179 -0.77904,1.97208 -0.51937,0.52029 -1.17626,0.78043 -1.97068,0.78043 -0.73289,0 -1.3744,-0.26014 -1.92452,-0.78043 -0.55013,-0.52029 -0.8252,-1.17765 -0.82519,-1.97208 l 0,-36.66377 c -10e-6,-0.79439 0.27506,-1.45128 0.82519,-1.97068 0.55012,-0.51931 1.19163,-0.77899 1.92452,-0.77903 0.79442,4e-5 1.45131,0.25972 1.97068,0.77903 0.51934,0.5194 0.77902,1.17629 0.77904,1.97068 z" />
    <path
       inkscape:connector-curvature="0"
       id="path4477"
       style="font-size:91.66083527px;font-style:oblique;font-variant:normal;font-weight:normal;font-stretch:normal;line-height:89.99999762%;letter-spacing:0px;word-spacing:0px;fill:#0c141a;fill-opacity:1;stroke:none;font-family:Miso;-inkscape-font-specification:Miso Oblique"
       d="m 926.87377,604.8983 c -3.29892,0 -6.10924,-1.16133 -8.43096,-3.48399 -2.32174,-2.32266 -3.4826,-5.13344 -3.4826,-8.43236 l 0,-18.33329 c 0,-3.29887 1.16086,-6.10966 3.4826,-8.43236 2.32172,-2.32262 5.13204,-3.48395 8.43096,-3.48399 3.23922,4e-5 6.03508,1.16137 8.38761,3.48399 2.35247,2.3227 3.52872,5.13349 3.52875,8.43236 l 0,18.33329 c -3e-5,3.29892 -1.17628,6.1097 -3.52875,8.43236 -2.35253,2.32266 -5.14839,3.48399 -8.38761,3.48399 z m 4.53717,-34.78681 c -1.25133,-1.25313 -2.76325,-1.87972 -4.53577,-1.87976 -1.77255,4e-5 -3.28494,0.62663 -4.53717,1.87976 -1.25225,1.25321 -1.87837,2.7656 -1.87836,4.53717 l 0,18.33329 c -1e-5,1.77161 0.62611,3.28353 1.87836,4.53577 1.25223,1.25224 2.76462,1.87837 4.53717,1.87836 1.77252,10e-6 3.2849,-0.62612 4.53717,-1.87836 1.25222,-1.25224 1.87834,-2.76416 1.87836,-4.53577 l 0,-18.33329 c -2e-5,-1.77157 -0.62661,-3.28396 -1.87976,-4.53717 z" />
    <path
       inkscape:connector-curvature="0"
       id="path4479"
       style="font-size:91.66083527px;font-style:oblique;font-variant:normal;font-weight:normal;font-stretch:normal;line-height:89.99999762%;letter-spacing:0px;word-spacing:0px;fill:#0c141a;fill-opacity:1;stroke:none;font-family:Miso;-inkscape-font-specification:Miso Oblique"
       d="m 953.36107,604.8983 c -0.79443,0 -1.45132,-0.26014 -1.97067,-0.78043 -0.51937,-0.52029 -0.77905,-1.17765 -0.77904,-1.97208 l 0,-36.29733 c -10e-6,-0.79438 0.25967,-1.45127 0.77904,-1.97067 0.51935,-0.51932 1.17624,-0.779 1.97067,-0.77904 l 9.16664,0 c 3.23735,4e-5 6.03228,1.16137 8.38481,3.48399 2.35247,2.3227 3.52872,5.13349 3.52875,8.43236 l 0,27.13069 c -3e-5,0.79443 -0.27463,1.45179 -0.82379,1.97208 -0.54923,0.52029 -1.1912,0.78043 -1.92592,0.78043 -0.79445,0 -1.45134,-0.26014 -1.97068,-0.78043 -0.51938,-0.52029 -0.77906,-1.17765 -0.77903,-1.97208 l 0,-27.13069 c -3e-5,-1.77157 -0.62615,-3.28395 -1.87837,-4.53716 -1.25226,-1.25314 -2.76418,-1.87973 -4.53577,-1.87977 l -6.41693,0 0,33.54762 c -10e-6,0.79443 -0.27507,1.45179 -0.82519,1.97208 -0.55014,0.52029 -1.19165,0.78043 -1.92452,0.78043 z" />
    <path
       inkscape:connector-curvature="0"
       id="path3692-4-1"
       style="font-size:114.195755px;font-style:oblique;font-variant:normal;font-weight:normal;font-stretch:normal;line-height:125%;letter-spacing:0px;word-spacing:0px;fill:#0c141a;fill-opacity:1;stroke:none;display:inline;font-family:Miso;-inkscape-font-specification:Miso Oblique"
       d="m 36.718002,235.60941 c 0,-12.64234 3.828848,-23.88647 11.486788,-33.73467 7.65796,-9.84801 17.565968,-16.46981 29.724569,-19.8746 12.158113,-3.4031 23.950851,-2.67114 35.378541,2.18855 11.4271,4.85932 20.42455,12.76214 26.99152,23.7079 1.6992,2.67151 2.12396,5.58714 1.27488,8.74857 -0.85041,3.16199 -2.73271,5.59465 -5.64905,7.30155 -2.67873,1.69939 -5.59851,2.06368 -8.7596,1.07991 -3.16122,-0.97513 -5.59146,-2.79732 -7.29065,-5.47597 -3.40586,-6.32042 -8.45197,-10.88004 -15.13769,-13.67418 -6.685763,-2.79282 -13.553158,-3.21889 -20.602754,-1.27482 -7.049165,1.94218 -12.824369,5.77116 -17.324523,11.48562 -4.500623,5.71314 -6.75101,12.21795 -6.75101,19.51181 l 0,124.00478 c 0,9.00377 3.161091,16.60352 9.48331,22.80394 6.322314,6.19893 13.861466,9.29895 22.617475,9.29895 8.993282,0 16.590052,-3.10002 22.790002,-9.29895 6.19964,-6.20042 9.29952,-13.80017 9.29952,-22.80394 l 0,-46.67971 -24.798875,0 c -3.16126,0 -5.895645,-1.11014 -8.203454,-3.2848 -2.307678,-2.18817 -3.461498,-4.98419 -3.461498,-8.3856 0,-3.40347 1.153369,-6.19892 3.461498,-8.38729 2.307809,-2.18986 5.042194,-3.28479 8.203454,-3.28479 l 36.474795,0 c 3.40602,0 6.20161,1.09493 8.38706,3.28479 2.18496,2.18837 3.27762,4.98232 3.27793,8.38279 l 0,58.35461 c -3.1e-4,15.32569 -5.40983,28.39541 -16.22843,39.21216 -10.81892,10.82165 -23.88834,16.23172 -39.207391,16.23172 -15.319824,0 -28.388792,-5.41007 -39.207842,-16.23172 -10.8189,-10.81675 -16.228425,-23.88647 -16.228425,-39.21216 z"
       inkscape:export-filename="C:\Users\aschielke\Documents\gpio.net-module-mit-geh.-kennz.png"
       inkscape:export-xdpi="300"
       inkscape:export-ydpi="300" />
    <path
       inkscape:connector-curvature="0"
       style="font-size:114.195755px;font-style:oblique;font-variant:normal;font-weight:normal;font-stretch:normal;line-height:125%;letter-spacing:0px;word-spacing:0px;fill:#0c141a;fill-opacity:1;stroke:none;display:inline;font-family:Miso;-inkscape-font-specification:Miso Oblique"
       d="m 724.56929,180.14207 c -3.4059,0.002 -6.19487,1.09475 -8.38389,3.29194 -2.18904,2.19005 -3.29415,4.97968 -3.29355,8.38409 l 0,160.49341 -50.40363,-103.90072 -29.44336,-61.68147 c -2.91647,-5.35148 -7.33532,-7.40483 -13.1747,-6.18841 -6.07772,1.21474 -9.08282,4.95678 -9.08282,11.27719 l 0,122.7677 c 9.40213,6.85596 17.35466,15.66143 23.25523,25.74961 l 0,-97.41243 50.00437,103.89922 29.94264,61.68148 c 3.16096,5.59596 7.48744,7.64932 13.07486,6.18991 6.07723,-1.21474 9.1821,-4.95847 9.1824,-11.2787 l 0,-211.59679 c -3e-4,-3.40441 -1.1084,-6.19404 -3.29353,-8.38409 -2.18561,-2.18668 -4.97801,-3.29043 -8.38402,-3.29194 z"
       id="path3702-1-6"
       inkscape:export-filename="C:\Users\aschielke\Documents\gpio.net-module-mit-geh.-kennz.png"
       inkscape:export-xdpi="300"
       inkscape:export-ydpi="300" />
    <path
       inkscape:connector-curvature="0"
       id="path3694-5-7"
       style="font-size:114.195755px;font-style:oblique;font-variant:normal;font-weight:normal;font-stretch:normal;line-height:125%;letter-spacing:0px;word-spacing:0px;fill:#0c141a;fill-opacity:1;stroke:none;display:inline;font-family:Miso;-inkscape-font-specification:Miso Oblique"
       d="m 184.47072,193.30305 c 0,-3.40441 1.0949,-6.20042 3.28333,-8.3856 2.18921,-2.18667 4.98673,-3.27879 8.39261,-3.27879 l 43.76543,0 c 15.3156,0 28.38506,5.40857 39.20782,16.22852 10.82253,10.81845 16.23384,23.88667 16.23384,39.20164 l 0,20.42517 c 0,15.32399 -5.41131,28.39371 -16.23384,39.21347 -10.82276,10.81864 -23.89222,16.22852 -39.20782,16.22852 l -32.10032,0 0,90.44718 c -3e-4,3.40629 -1.09341,6.20493 -3.27822,8.39161 -2.18531,2.19005 -4.98088,3.2848 -8.38689,3.2848 -3.40588,0 -6.2034,-1.07992 -8.39261,-3.2848 -2.18902,-2.18668 -3.28333,-4.98532 -3.28333,-8.39161 z m 87.54216,43.76577 c 0,-8.74876 -3.16124,-16.28241 -9.4833,-22.60583 -6.32233,-6.32192 -13.86148,-9.48335 -22.61749,-9.48335 l -32.10032,0 0,84.61404 32.10032,0 c 8.75601,0 16.29516,-3.09852 22.61749,-9.29745 6.32206,-6.20042 9.4833,-13.80017 9.4833,-22.80224 z"
       inkscape:export-filename="C:\Users\aschielke\Documents\gpio.net-module-mit-geh.-kennz.png"
       inkscape:export-xdpi="300"
       inkscape:export-ydpi="300" />
    <path
       inkscape:connector-curvature="0"
       style="font-size:114.195755px;font-style:oblique;font-variant:normal;font-weight:normal;font-stretch:normal;line-height:125%;letter-spacing:0px;word-spacing:0px;fill:#0c141a;fill-opacity:1;stroke:none;display:inline;font-family:Miso;-inkscape-font-specification:Miso Oblique"
       d="m 459.47709,180.14207 c -15.31935,0.002 -28.40573,5.44725 -39.22463,16.2689 -10.8192,10.82276 -16.26894,23.90882 -16.26894,39.22266 l 0,123.96422 c 0,15.32419 5.44974,28.40592 16.26894,39.22418 10.8186,10.82014 23.90528,16.26889 39.22463,16.26889 7.90108,0 15.15438,-1.5148 21.85827,-4.39137 -2.63929,-7.58022 -4.22537,-15.66293 -4.59135,-24.05322 -5.1208,3.3507 -10.83477,5.08915 -17.26692,5.08915 -9.00092,0 -16.65633,-3.08068 -22.85597,-9.28111 -6.19995,-6.20043 -9.28246,-13.85576 -9.28246,-22.85652 l 0,-123.96422 c 0,-8.74744 3.08251,-16.33329 9.28246,-22.65521 6.19964,-6.32192 13.85505,-9.48241 22.85597,-9.48241 8.74835,0 16.23459,3.16049 22.55675,9.48241 6.32203,6.32192 9.48179,13.90777 9.48179,22.65521 l 0,99.31124 c 6.22063,-9.01109 14.19134,-16.64839 23.35559,-22.65691 l 0,-76.65433 c -3e-4,-15.31384 -5.45033,-28.3999 -16.26894,-39.22266 -10.81935,-10.82165 -23.80566,-16.26739 -39.12519,-16.2689 z"
       id="path3698-5-6"
       inkscape:export-filename="C:\Users\aschielke\Documents\gpio.net-module-mit-geh.-kennz.png"
       inkscape:export-xdpi="300"
       inkscape:export-ydpi="300" />
    <path
       sodipodi:type="arc"
       style="fill:#008080;fill-opacity:1;stroke:none;display:inline"
       id="path4226-8"
       sodipodi:cx="2020.9933"
       sodipodi:cy="-81.444733"
       sodipodi:rx="14.861742"
       sodipodi:ry="14.861742"
       d="m 2035.855,-81.444733 a 14.861742,14.861742 0 1 1 -29.7235,0 14.861742,14.861742 0 1 1 29.7235,0 z"
       transform="matrix(2.1930596,0,0,2.1930596,-3871.0705,561.52482)"
       inkscape:export-filename="C:\Users\aschielke\Documents\gpio.net-module-mit-geh.-kennz.png"
       inkscape:export-xdpi="300"
       inkscape:export-ydpi="300" />
    <path
       sodipodi:type="arc"
       style="fill:#e20074;fill-opacity:1;stroke:none;display:inline"
       id="path4226-2-5-7"
       sodipodi:cx="2020.9933"
       sodipodi:cy="-81.444733"
       sodipodi:rx="14.861742"
       sodipodi:ry="14.861742"
       d="m 2035.855,-81.444733 a 14.861742,14.861742 0 1 1 -29.7235,0 14.861742,14.861742 0 1 1 29.7235,0 z"
       transform="matrix(1.5229579,0,0,1.5229579,-2729.1676,326.41243)"
       inkscape:export-filename="C:\Users\aschielke\Documents\gpio.net-module-mit-geh.-kennz.png"
       inkscape:export-xdpi="300"
       inkscape:export-ydpi="300" />
  </g>
</svg>
