<?xml version="1.0" encoding="UTF-8" standalone="no"?>
<!-- Created with Inkscape (http://www.inkscape.org/) -->

<svg
   xmlns:dc="http://purl.org/dc/elements/1.1/"
   xmlns:cc="http://creativecommons.org/ns#"
   xmlns:rdf="http://www.w3.org/1999/02/22-rdf-syntax-ns#"
   xmlns:svg="http://www.w3.org/2000/svg"
   xmlns="http://www.w3.org/2000/svg"
   xmlns:sodipodi="http://sodipodi.sourceforge.net/DTD/sodipodi-0.dtd"
   xmlns:inkscape="http://www.inkscape.org/namespaces/inkscape"
   width="744.09448"
   height="1052.3622"
   id="svg3968"
   version="1.1"
   inkscape:version="0.48.4 r9939"
   sodipodi:docname="taskit-icon-gpio-module-gsm.svg">
  <defs
     id="defs3970">
    <clipPath
       clipPathUnits="userSpaceOnUse"
       id="clipPath32">
      <path
         inkscape:connector-curvature="0"
         d="m 0,0 314.646,0 0,612.283 L 0,612.283 0,0 z"
         id="path34" />
    </clipPath>
  </defs>
  <sodipodi:namedview
     inkscape:document-units="mm"
     pagecolor="#ffffff"
     bordercolor="#666666"
     borderopacity="1.0"
     inkscape:pageopacity="0.0"
     inkscape:pageshadow="2"
     inkscape:zoom="0.15349816"
     inkscape:cx="473.44716"
     inkscape:cy="446.7959"
     inkscape:current-layer="layer1"
     id="namedview3972"
     showgrid="false"
     inkscape:window-width="1241"
     inkscape:window-height="803"
     inkscape:window-x="87"
     inkscape:window-y="121"
     inkscape:window-maximized="0"
     units="mm" />
  <metadata
     id="metadata3974">
    <rdf:RDF>
      <cc:Work
         rdf:about="">
        <dc:format>image/svg+xml</dc:format>
        <dc:type
           rdf:resource="http://purl.org/dc/dcmitype/StillImage" />
        <dc:title></dc:title>
      </cc:Work>
    </rdf:RDF>
  </metadata>
  <g
     inkscape:label="Layer 1"
     inkscape:groupmode="layer"
     id="layer1"
     transform="translate(0,308.2677)">
    <g
       id="g4609"
       transform="matrix(0.5,0,0,0.5,402.36116,97.114206)">
      <path
         id="path26"
         style="fill:#e90f81;fill-opacity:1;fill-rule:nonzero;stroke:none"
         d="m -393.98911,1041.1441 708.66142,0 0,-1594.48824 -708.66142,0 0,1594.48824 z"
         inkscape:connector-curvature="0" />
      <g
         id="g28"
         transform="matrix(12.830976,0,0,-12.830976,-3209.1956,7190.0835)">
        <g
           clip-path="url(#clipPath32)"
           id="g30">
          <g
             transform="translate(240.1013,508.353)"
             id="g36">
            <path
               id="path38"
               style="fill:#ffffff;fill-opacity:1;fill-rule:nonzero;stroke:none"
               d="m 0,0 c 0,-1.008 0.404,-1.935 1.13,-2.458 0.767,-0.565 1.897,-1.29 3.269,-2.016 0.161,-0.08 0.404,-0.322 0.404,-0.524 0.04,-0.644 0.08,-1.45 0.161,-2.216 0.04,-0.323 0.525,-1.008 0.928,-1.008 0.242,0 0.404,0.363 0.444,0.847 l 0.121,1.813 c 0,0.121 0.202,0.202 0.485,0.081 l 11.663,-4.514 c 0.484,-0.161 0.888,-0.202 1.09,-0.202 0.605,0 1.573,0.887 1.573,1.532 0,1.975 -2.461,6.207 -4.923,8.02 -0.525,0.363 -0.848,0.443 -1.171,0.443 -0.363,0 -0.161,-0.604 0.081,-0.926 1.009,-1.048 2.301,-2.983 2.301,-3.708 0,-0.323 -0.525,-0.524 -0.929,-0.363 -3.511,1.209 -8.434,3.063 -9.887,3.708 -0.162,0.08 -0.283,0.282 -0.283,0.443 0,0.766 -0.121,3.023 -0.202,3.506 C 6.175,2.902 5.65,3.426 5.287,3.426 5.085,3.426 4.924,3.265 4.924,2.942 4.883,2.055 4.803,0.403 4.803,-0.403 4.803,-0.605 4.601,-0.685 4.359,-0.645 3.915,-0.524 1.695,0.161 1.211,0.282 0.363,0.524 0,0.363 0,0 m 4.924,13.42 c 0,-0.241 0.161,-0.765 0.605,-1.491 1.534,-2.499 5.811,-6.811 9.888,-9.269 1.977,-1.169 3.309,-1.613 4.237,-1.613 1.009,0 1.736,1.411 1.736,2.137 0,2.055 -2.382,5.44 -5.933,8.624 -0.242,0.202 0.081,0.444 0.404,0.282 1.251,-0.483 3.43,-1.41 3.955,-1.41 0.887,0.04 1.574,0.846 1.574,1.975 0,1.652 -1.171,4.554 -4.359,6.448 -0.444,0.282 -0.807,0.363 -1.09,0.363 -0.323,0 -0.524,-0.282 -0.161,-0.605 1.13,-1.007 2.26,-2.458 2.26,-3.305 0,-0.362 -0.242,-0.886 -1.009,-0.644 -3.188,1.007 -9.161,3.425 -11.462,4.312 -0.282,0.121 -0.726,0.04 -0.766,-0.04 -0.404,-0.726 -0.727,-1.572 -0.727,-2.177 0,-0.201 0.202,-0.685 0.363,-0.765 L 5.61,15.556 C 5.771,15.516 5.852,15.234 5.771,15.153 5.206,14.589 4.924,13.541 4.924,13.42 m 2.623,-0.685 c 0,0.282 0.282,0.968 0.726,1.411 0.121,0.08 0.525,0.121 1.009,-0.121 2.018,-0.887 4.884,-2.7 6.336,-4.03 1.776,-1.532 2.543,-2.741 2.543,-3.345 0,-0.403 -0.484,-0.847 -1.453,-0.847 -2.099,0 -5.125,1.491 -6.82,2.821 -1.494,1.129 -2.341,2.58 -2.341,4.111 M 4.318,29.984 c 0,-0.887 0.444,-2.499 1.978,-4.191 1.291,-1.492 2.946,-2.136 3.914,-2.136 0.888,0 2.099,0.241 3.915,1.854 1.937,1.813 3.067,2.337 3.552,2.337 0.807,0 1.412,-0.806 1.412,-1.773 0,-1.612 -1.655,-3.305 -2.26,-4.031 -0.161,-0.12 -0.121,-0.483 0.04,-0.644 0.606,-0.565 1.736,-1.209 2.059,-1.209 1.332,0 2.381,1.773 2.381,3.425 0,0.847 -0.646,3.063 -1.978,4.756 -1.049,1.411 -2.623,2.539 -4.035,2.539 -1.009,0 -2.18,-0.685 -3.713,-2.015 -1.736,-1.572 -2.946,-2.459 -3.794,-2.459 -0.969,0 -1.493,0.927 -1.493,1.29 0,1.209 1.291,2.418 1.897,3.184 0.121,0.161 0.161,0.443 0.08,0.564 -0.323,0.484 -1.453,1.33 -2.098,1.33 -0.323,0 -0.767,-0.241 -1.009,-0.483 -0.363,-0.363 -0.848,-1.25 -0.848,-2.338 m 0,18.418 c 0,-1.45 0.242,-2.297 0.848,-3.506 1.049,-2.015 2.744,-3.748 4.762,-5.118 0.323,-0.202 0.121,-0.605 -0.323,-0.444 -6.013,2.096 -15.255,5.723 -15.982,5.965 -0.484,0.121 -1.251,0.081 -1.251,-0.242 0,-0.927 0.767,-5.279 1.09,-5.884 0.202,-0.363 0.404,-0.604 0.686,-0.604 0.081,0 0.323,0.282 0.484,0.685 0.485,1.209 0.767,1.249 1.655,0.967 7.466,-2.458 21.793,-7.214 22.52,-7.496 0.605,-0.242 1.009,-0.323 1.17,-0.323 0.444,0 1.291,0.806 1.291,1.814 0,0.282 -0.201,0.927 -0.524,1.128 -1.13,0.524 -4.076,1.895 -6.054,2.701 -0.686,0.322 -1.13,0.604 -1.13,0.967 0,0.443 0.525,0.846 1.413,1.169 1.493,0.483 2.542,0.846 3.834,1.33 1.412,0.564 2.583,1.612 2.583,2.619 0,1.21 -1.695,3.507 -3.915,5.079 -0.767,0.523 -1.736,0.604 -1.736,0.201 0,-0.121 0.202,-0.363 0.606,-0.685 1.291,-1.088 1.856,-2.176 1.856,-2.781 0,-0.484 -0.202,-0.766 -1.332,-1.249 -1.21,-0.565 -3.228,-1.048 -4.076,-1.209 -0.161,-0.041 -0.403,0.08 -0.444,0.241 -0.403,1.008 -1.13,2.701 -2.017,3.99 C 8.919,49.773 6.861,50.7 6.013,50.7 5.166,50.7 4.318,49.853 4.318,48.402 m 2.26,-2.901 c 0,1.007 0.364,1.209 0.807,1.209 2.422,0 5.005,-3.789 5.086,-6.328 0,-0.322 -0.243,-0.524 -0.606,-0.403 -1.695,0.766 -3.713,2.177 -4.56,3.547 -0.444,0.685 -0.727,1.612 -0.727,1.975 M 4.399,59.809 c 0,-2.177 2.623,-5.965 3.592,-6.852 0.363,-0.282 0.726,-0.484 1.009,-0.484 0.202,0 0.403,0.363 0.242,0.565 -0.807,1.007 -1.251,2.055 -1.332,2.66 -0.04,0.322 0.323,0.443 0.686,0.322 4.359,-1.733 7.466,-3.103 11.018,-4.554 0.403,-0.161 0.444,-0.161 0.686,-0.161 0.525,0 1.17,0.967 1.17,1.571 0,1.653 -2.26,5.562 -4.601,7.456 -0.524,0.484 -1.089,0.726 -1.452,0.726 -0.162,0 -0.283,-0.202 -0.283,-0.282 0,-0.242 0.162,-0.403 0.565,-0.847 1.251,-1.33 2.139,-2.781 2.139,-3.224 0,-0.322 -0.242,-0.564 -0.605,-0.443 -3.189,1.33 -5.65,2.176 -10.251,4.07 -0.363,0.162 -1.049,0.444 -1.413,0.444 -0.363,0 -1.17,-0.564 -1.17,-0.967 m -8.394,0.523 c 0,-0.282 0.121,-0.765 0.444,-1.249 0.443,-0.564 1.21,-1.169 2.219,-1.169 0.888,0 1.493,0.444 1.857,0.968 0.161,0.201 0.242,0.523 0.242,0.886 0,1.29 -1.453,2.499 -2.664,2.499 -1.089,0 -2.098,-0.605 -2.098,-1.935 M 0,72.786 c 0,-1.007 0.404,-1.934 1.13,-2.458 0.767,-0.565 1.897,-1.29 3.269,-2.015 0.161,-0.081 0.404,-0.323 0.404,-0.524 0.04,-0.645 0.08,-1.451 0.161,-2.217 0.04,-0.323 0.525,-1.008 0.928,-1.008 0.242,0 0.404,0.363 0.444,0.847 l 0.121,1.813 c 0,0.121 0.202,0.202 0.485,0.081 l 11.663,-4.514 c 0.484,-0.161 0.888,-0.201 1.09,-0.201 0.605,0 1.573,0.886 1.573,1.531 0,1.975 -2.461,6.207 -4.923,8.02 -0.525,0.363 -0.848,0.444 -1.171,0.444 -0.363,0 -0.161,-0.605 0.081,-0.927 1.009,-1.048 2.301,-2.983 2.301,-3.708 0,-0.323 -0.525,-0.524 -0.929,-0.363 -3.511,1.209 -8.434,3.063 -9.887,3.708 -0.162,0.081 -0.283,0.282 -0.283,0.443 0,0.766 -0.121,3.023 -0.202,3.507 -0.08,0.443 -0.605,0.967 -0.968,0.967 -0.202,0 -0.363,-0.161 -0.363,-0.484 C 4.883,74.842 4.803,73.189 4.803,72.383 4.803,72.182 4.601,72.101 4.359,72.141 3.915,72.262 1.695,72.947 1.211,73.068 0.363,73.31 0,73.149 0,72.786"
               inkscape:connector-curvature="0" />
          </g>
        </g>
      </g>
    </g>
  </g>
</svg>
