<?xml version="1.0" encoding="UTF-8" standalone="no"?>
<!-- Created with Inkscape (http://www.inkscape.org/) -->

<svg
   xmlns:dc="http://purl.org/dc/elements/1.1/"
   xmlns:cc="http://creativecommons.org/ns#"
   xmlns:rdf="http://www.w3.org/1999/02/22-rdf-syntax-ns#"
   xmlns:svg="http://www.w3.org/2000/svg"
   xmlns="http://www.w3.org/2000/svg"
   xmlns:sodipodi="http://sodipodi.sourceforge.net/DTD/sodipodi-0.dtd"
   xmlns:inkscape="http://www.inkscape.org/namespaces/inkscape"
   width="1052.3622"
   height="744.09448"
   id="svg3968"
   version="1.1"
   inkscape:version="0.91 r13725"
   sodipodi:docname="taskit-icon-gpio-module-gsm.svg">
  <defs
     id="defs3970" />
  <sodipodi:namedview
     inkscape:document-units="mm"
     pagecolor="#ffffff"
     bordercolor="#666666"
     borderopacity="1.0"
     inkscape:pageopacity="0.0"
     inkscape:pageshadow="2"
     inkscape:zoom="0.43415836"
     inkscape:cx="89.946541"
     inkscape:cy="444.49259"
     inkscape:current-layer="layer1"
     id="namedview3972"
     showgrid="false"
     inkscape:window-width="1241"
     inkscape:window-height="803"
     inkscape:window-x="87"
     inkscape:window-y="121"
     inkscape:window-maximized="0"
     units="mm" />
  <metadata
     id="metadata3974">
    <rdf:RDF>
      <cc:Work
         rdf:about="">
        <dc:format>image/svg+xml</dc:format>
        <dc:type
           rdf:resource="http://purl.org/dc/dcmitype/StillImage" />
        <dc:title />
      </cc:Work>
    </rdf:RDF>
  </metadata>
  <g
     inkscape:label="Layer 1"
     inkscape:groupmode="layer"
     id="layer1">
    <path
       style="fill:#879399;fill-opacity:1;stroke:none"
       d="M 766.14062 16.933594 C 758.50179 16.933594 752.35156 23.194933 752.35156 30.972656 L 752.35156 306.65234 L 722.88672 306.65234 L 722.88672 334.16992 L 765.56641 334.16992 C 765.75828 334.17791 765.94675 334.19922 766.14062 334.19922 C 769.65842 334.19922 772.85024 332.86033 775.28125 330.66797 C 778.14699 328.16428 779.95898 324.53315 779.95898 320.44531 C 779.95898 320.25144 779.93771 320.06297 779.92969 319.87109 L 779.92969 30.972656 C 779.92969 23.194933 773.77945 16.933594 766.14062 16.933594 z M 184.78906 162.36914 C 177.47701 162.36914 171.64453 168.20122 171.64453 175.51367 L 171.64453 213.78711 C 171.64453 214.70114 171.6646 215.63511 171.83789 216.49414 L 171.83789 236.5957 L 301.54297 236.5957 L 301.54297 213.78711 L 301.54297 202.96289 L 301.54297 175.51367 C 301.54297 168.20122 295.71048 162.36914 288.39844 162.36914 L 184.78906 162.36914 z M 490.20508 162.36914 C 482.89302 162.36914 477.06055 168.20122 477.06055 175.51367 L 477.06055 202.96289 L 477.06055 213.78711 L 477.06055 236.5957 L 606.95898 236.5957 L 606.95898 213.78711 L 606.95898 202.96289 L 606.95898 175.51367 C 606.95898 168.20122 600.93188 162.36914 593.62109 162.36914 L 490.20508 162.36914 z M 131.82422 180.73242 L 131.82422 202.96289 L 57.208984 202.96289 L 57.208984 678.09766 L 116.74609 678.09766 L 116.74609 642.14258 L 116.74609 637.89062 L 120.80469 637.89062 L 215.91016 637.89062 L 219.96875 637.89062 L 219.96875 642.14258 L 219.96875 678.09766 L 232.72656 678.09766 L 232.72656 642.14258 L 232.72656 637.89062 L 236.78711 637.89062 L 332.27734 637.89062 L 336.33594 637.89062 L 336.33594 642.14258 L 336.33594 678.09766 L 349.0957 678.09766 L 349.0957 642.14258 L 349.0957 637.89062 L 353.1543 637.89062 L 448.25781 637.89062 L 452.31836 637.89062 L 452.31836 642.14258 L 452.31836 678.09766 L 465.07617 678.09766 L 465.07617 642.14258 L 465.07617 637.89062 L 469.13477 637.89062 L 564.43164 637.89062 L 568.49219 637.89062 L 568.49219 642.14258 L 568.49219 678.09766 L 580.47656 678.09766 L 580.47656 642.14258 L 580.47656 637.89062 L 584.53516 637.89062 L 650.83789 637.89062 L 655.08984 637.89062 L 655.08984 642.14258 L 655.08984 678.09766 L 714.62695 678.09766 L 714.62695 202.96289 L 612.37109 202.96289 L 612.37109 239.30273 L 612.37109 242.00977 L 609.66602 242.00977 L 474.16016 242.00977 L 471.45508 242.00977 L 471.45508 239.30273 L 471.45508 202.96289 L 442.26562 202.96289 L 442.26562 202.76953 L 436.85352 202.76953 L 436.85352 183.05273 L 383.30859 183.05273 L 383.30859 202.76953 L 377.70312 202.76953 L 377.70312 202.96289 L 341.55664 202.96289 L 341.55664 180.73242 L 310.62891 180.73242 L 310.62891 202.96289 L 307.14844 202.96289 L 307.14844 239.30273 L 307.14844 242.00977 L 304.44336 242.00977 L 168.9375 242.00977 L 166.23242 242.00977 L 166.23242 239.30273 L 166.23242 202.96289 L 162.75195 202.96289 L 162.75195 180.73242 L 131.82422 180.73242 z M 83.111328 207.60156 C 95.847569 207.60156 106.50195 218.25362 106.50195 230.99023 C 106.50195 243.72749 95.847569 254.38178 83.111328 254.38086 C 70.374476 254.38086 60.109375 243.72663 60.109375 230.99023 C 60.109375 218.25471 70.374476 207.60156 83.111328 207.60156 z M 687.56445 207.60156 C 700.30143 207.60156 710.76172 218.25362 710.76172 230.99023 C 710.76172 243.72749 700.30143 254.38178 687.56445 254.38086 C 674.83012 254.38086 664.5625 243.72663 664.5625 230.99023 C 664.5625 218.25471 674.83012 207.60156 687.56445 207.60156 z M 83.111328 218.03906 C 75.799903 218.03906 70.160156 223.67909 70.160156 230.99023 C 70.160156 238.30094 75.799903 243.94233 83.111328 243.94141 C 90.422143 243.94141 96.0625 238.30094 96.0625 230.99023 C 96.0625 223.67995 90.422143 218.03994 83.111328 218.03906 z M 687.56445 218.03906 C 680.25369 218.03906 674.61523 223.67909 674.61523 230.99023 C 674.61523 238.30094 680.25369 243.94233 687.56445 243.94141 C 694.87655 243.9425 700.51666 238.30094 700.51758 230.99023 C 700.51758 223.67995 694.87655 218.03994 687.56445 218.03906 z M 83.111328 627.06641 C 95.847569 627.06445 106.50195 637.52488 106.50195 650.26172 C 106.50195 662.9979 95.847569 673.4579 83.111328 673.45703 C 70.374476 673.45703 60.109375 662.9979 60.109375 650.26172 C 60.109375 637.52488 70.374476 627.06549 83.111328 627.06641 z M 687.56445 627.06641 C 700.30143 627.06445 710.76172 637.52488 710.76172 650.26172 C 710.76172 662.9979 700.30143 673.4579 687.56445 673.45703 C 674.83012 673.45703 664.5625 662.9979 664.5625 650.26172 C 664.5625 637.52488 674.83012 627.06549 687.56445 627.06641 z M 83.111328 637.11719 C 75.799903 637.11828 70.160156 642.95036 70.160156 650.26172 C 70.160156 657.57221 75.799903 663.40625 83.111328 663.40625 C 90.422143 663.40625 96.0625 657.57221 96.0625 650.26172 C 96.0625 642.95036 90.422143 637.11811 83.111328 637.11719 z M 687.56445 637.11719 C 680.25369 637.11828 674.61523 642.95036 674.61523 650.26172 C 674.61523 657.57221 680.25369 663.40625 687.56445 663.40625 C 694.87655 663.40625 700.51666 657.57221 700.51758 650.26172 C 700.51758 642.95036 694.87655 637.11811 687.56445 637.11719 z M 120.80469 641.94922 L 120.80469 690.85547 L 127.37891 690.85547 L 127.37891 725.06836 L 209.14453 725.06836 L 209.14453 690.85547 L 215.91016 690.85547 L 215.91016 641.94922 L 120.80469 641.94922 z M 236.78711 641.94922 L 236.78711 690.85547 L 243.74609 690.85547 L 243.74609 725.06836 L 325.31836 725.06836 L 325.31836 690.85547 L 332.08398 690.85547 L 332.08398 641.94922 L 236.78711 641.94922 z M 352.96094 641.94922 L 352.96094 690.85547 L 359.72656 690.85547 L 359.72656 725.06836 L 441.30078 725.06836 L 441.30078 690.85547 L 448.25781 690.85547 L 448.25781 641.94922 L 352.96094 641.94922 z M 469.13477 641.94922 L 469.13477 690.85547 L 475.90039 690.85547 L 475.90039 725.06836 L 557.66602 725.06836 L 557.66602 690.85547 L 564.24023 690.85547 L 564.24023 641.94922 L 469.13477 641.94922 z M 584.72852 641.94922 L 584.72852 690.85547 L 590.14062 690.85547 L 590.14062 725.06836 L 645.61914 725.06836 L 645.61914 690.85547 L 651.03125 690.85547 L 651.03125 641.94922 L 584.72852 641.94922 z M 141.48828 697.04102 C 145.95121 697.04102 149.60742 700.50123 149.60742 704.96484 C 149.60742 709.42845 145.95121 713.27534 141.48828 713.27734 C 137.02532 713.27734 133.37109 709.42845 133.37109 704.96484 C 133.37109 700.50123 137.02532 697.04102 141.48828 697.04102 z M 159.27344 697.04102 C 163.73703 697.04102 167.58594 700.50123 167.58594 704.96484 C 167.58594 709.42845 163.73703 713.27534 159.27344 713.27734 C 154.81051 713.27734 151.34766 709.42845 151.34766 704.96484 C 151.34766 700.50123 154.81051 697.04102 159.27344 697.04102 z M 177.25 697.04102 C 181.71665 697.04102 185.17578 700.50123 185.17578 704.96484 C 185.17578 709.42845 181.71604 713.27534 177.25 713.27734 C 172.78891 713.27734 169.32422 709.42845 169.32422 704.96484 C 169.32422 700.50123 172.78703 697.04102 177.25 697.04102 z M 195.22656 697.04102 C 199.6901 697.04102 203.15234 700.50123 203.15234 704.96484 C 203.15234 709.42845 199.6901 713.27534 195.22656 713.27734 C 190.7636 713.27734 186.91602 709.42845 186.91602 704.96484 C 186.91602 703.96123 187.11833 703.01299 187.4707 702.13867 C 187.58967 703.05907 187.67383 703.9905 187.67383 704.94727 L 189.05469 704.94727 L 189.05469 703.18945 C 188.90362 702.30248 188.63326 701.45272 188.2793 700.63477 C 189.78641 698.45421 192.37817 697.04102 195.22656 697.04102 z M 257.4707 697.04102 C 261.93551 697.04102 265.78125 700.50123 265.78125 704.96484 C 265.78125 709.42845 261.93551 713.27534 257.4707 713.27734 C 253.00837 713.27734 249.54492 709.42845 249.54492 704.96484 C 249.54492 700.50123 253.00714 697.04102 257.4707 697.04102 z M 275.44727 697.04102 C 279.91268 697.04102 283.56641 700.50123 283.56641 704.96484 C 283.56641 709.42845 279.91205 713.27534 275.44727 713.27734 C 270.98431 713.27734 267.32812 709.42845 267.32812 704.96484 C 267.32812 700.50123 270.98431 697.04102 275.44727 697.04102 z M 293.61719 697.04102 C 298.07765 697.04102 301.54297 700.50123 301.54297 704.96484 C 301.54297 709.42845 298.08015 713.27534 293.61719 713.27734 C 289.15054 713.27734 285.30469 709.42845 285.30469 704.96484 C 285.30469 700.50123 289.15115 697.04102 293.61719 697.04102 z M 311.20703 697.04102 C 315.66938 697.04102 319.51953 700.50123 319.51953 704.96484 C 319.51892 709.42845 315.66938 713.27534 311.20703 713.27734 C 306.74164 713.27734 303.28125 709.42845 303.28125 704.96484 C 303.28125 704.23015 303.38395 703.52684 303.56055 702.85742 C 303.62899 703.54539 303.66797 704.24126 303.66797 704.94727 L 305.23633 704.94727 L 305.23633 703.87891 C 305.14705 702.69141 304.9215 701.58234 304.57812 700.55469 C 305.97921 698.41851 308.39195 697.04102 311.20703 697.04102 z M 373.83789 697.04102 C 378.30022 697.04102 381.76367 700.50123 381.76367 704.96484 C 381.76367 709.42845 378.30148 713.27534 373.83789 713.27734 C 369.37309 713.27734 365.52539 709.42845 365.52539 704.96484 C 365.52539 700.50123 369.37309 697.04102 373.83789 697.04102 z M 391.42773 697.04102 C 395.89008 697.04102 399.73931 700.50123 399.74023 704.96484 C 399.74023 709.42845 395.89008 713.27534 391.42773 713.27734 C 386.96234 713.27734 383.50195 709.42845 383.50195 704.96484 C 383.50195 700.50123 386.96356 697.04102 391.42773 697.04102 z M 409.59766 697.04102 C 414.06061 697.04102 417.7168 700.50123 417.7168 704.96484 C 417.7168 709.42845 414.06061 713.27534 409.59766 713.27734 C 405.13286 713.27734 401.47852 709.42845 401.47852 704.96484 C 401.47852 700.50123 405.13286 697.04102 409.59766 697.04102 z M 427.57422 697.04102 C 432.03903 697.04102 435.5 700.50123 435.5 704.96484 C 435.5 709.42845 432.03839 713.27534 427.57422 713.27734 C 423.11192 713.27734 419.26459 709.42845 419.26367 704.96484 C 419.26416 704.08624 419.41761 703.24898 419.69141 702.4668 C 419.78403 703.28094 419.84937 704.10439 419.84961 704.94727 L 421.23047 704.94727 L 421.23047 703.18945 C 421.10235 702.31547 420.89196 701.47332 420.60156 700.67383 C 422.10483 698.47136 424.7095 697.04102 427.57422 697.04102 z M 489.81836 697.04102 C 492.65965 697.04102 495.24714 698.4464 496.75586 700.61719 C 496.43293 701.40391 496.18202 702.21693 496.02734 703.0625 L 496.02734 704.94727 L 497.3457 704.94727 C 497.3457 703.97124 497.43035 703.01992 497.55078 702.08008 C 497.91815 702.9703 498.12891 703.93885 498.12891 704.96484 C 498.12891 709.42845 494.28191 713.27534 489.81836 713.27734 C 485.35541 713.27734 481.89258 709.42845 481.89258 704.96484 C 481.89506 700.50123 485.35541 697.04102 489.81836 697.04102 z M 507.79492 697.04102 C 512.25893 697.04102 515.7207 700.50123 515.7207 704.96484 C 515.7207 709.42845 512.25893 713.27534 507.79492 713.27734 C 503.33068 713.27734 499.86914 709.42845 499.86914 704.96484 C 499.86914 700.50123 503.33007 697.04102 507.79492 697.04102 z M 525.77148 697.04102 C 530.23502 697.04102 533.69727 700.50123 533.69727 704.96484 C 533.69974 709.42845 530.23502 713.27534 525.77148 713.27734 C 521.30858 713.27734 517.45898 709.42845 517.45898 704.96484 C 517.45898 700.50123 521.30858 697.04102 525.77148 697.04102 z M 543.55664 697.04102 C 548.02017 697.04102 551.67383 700.50123 551.67383 704.96484 C 551.67383 709.42845 548.02017 713.27534 543.55664 713.27734 C 539.09359 713.27734 535.4375 709.42845 535.4375 704.96484 C 535.43569 700.50123 539.09359 697.04102 543.55664 697.04102 z M 607.15234 697.04102 C 611.61703 697.04102 615.27148 700.50123 615.27148 704.96484 C 615.27148 709.42845 611.61703 713.27534 607.15234 713.27734 C 602.68927 713.27734 599.0332 709.42845 599.0332 704.96484 C 599.0332 700.50123 602.68927 697.04102 607.15234 697.04102 z M 628.41602 697.04102 C 632.87906 697.04102 636.5332 700.50123 636.5332 704.96484 C 636.53568 709.42845 632.87906 713.27534 628.41602 713.27734 C 623.95129 713.27581 620.49023 709.42845 620.49023 704.96484 C 620.48826 700.50123 623.95129 697.04102 628.41602 697.04102 z M 148.10742 700.92773 C 147.69968 702.15137 147.48047 703.4797 147.48047 704.94727 L 148.10742 704.94727 L 148.10742 700.92773 z M 264.10156 701.93359 C 264.01386 702.29689 263.91246 702.62538 263.85156 703 L 263.85156 704.94727 L 264.10156 704.94727 L 264.10156 701.93359 z "
       id="rect3878-8-5-1-5-6" />
  </g>
</svg>
