<?xml version="1.0" encoding="UTF-8" standalone="no"?>
<!-- Created with Inkscape (http://www.inkscape.org/) -->

<svg
   xmlns:dc="http://purl.org/dc/elements/1.1/"
   xmlns:cc="http://creativecommons.org/ns#"
   xmlns:rdf="http://www.w3.org/1999/02/22-rdf-syntax-ns#"
   xmlns:svg="http://www.w3.org/2000/svg"
   xmlns="http://www.w3.org/2000/svg"
   xmlns:sodipodi="http://sodipodi.sourceforge.net/DTD/sodipodi-0.dtd"
   xmlns:inkscape="http://www.inkscape.org/namespaces/inkscape"
   width="297mm"
   height="210mm"
   id="svg4241"
   version="1.1"
   inkscape:version="0.48.4 r9939"
   sodipodi:docname="taskit-logo-adc.svg">
  <defs
     id="defs4243">
    <clipPath
       clipPathUnits="userSpaceOnUse"
       id="clipPath126-46">
      <path
         inkscape:connector-curvature="0"
         d="m 0,0 1145.197,0 0,2562.52 L 0,2562.52 0,0 z"
         id="path128-0" />
    </clipPath>
    <clipPath
       clipPathUnits="userSpaceOnUse"
       id="clipPath64-7-9">
      <path
         inkscape:connector-curvature="0"
         d="m 30.25,560.507 763.465,0 0,-540.41 -763.465,0 0,540.41 z"
         id="path66-2-8" />
    </clipPath>
    <clipPath
       clipPathUnits="userSpaceOnUse"
       id="clipPath72-6-2">
      <path
         inkscape:connector-curvature="0"
         d="M 0,0 842,0 842,596 0,596 0,0 z"
         id="path74-01-5" />
    </clipPath>
    <clipPath
       clipPathUnits="userSpaceOnUse"
       id="clipPath64-5">
      <path
         inkscape:connector-curvature="0"
         d="m 30.25,560.507 763.465,0 0,-540.41 -763.465,0 0,540.41 z"
         id="path66-4" />
    </clipPath>
    <clipPath
       clipPathUnits="userSpaceOnUse"
       id="clipPath72-9">
      <path
         inkscape:connector-curvature="0"
         d="M 0,0 842,0 842,596 0,596 0,0 z"
         id="path74-1" />
    </clipPath>
    <clipPath
       clipPathUnits="userSpaceOnUse"
       id="clipPath64-7-9-0">
      <path
         inkscape:connector-curvature="0"
         d="m 30.25,560.507 763.465,0 0,-540.41 -763.465,0 0,540.41 z"
         id="path66-2-8-2" />
    </clipPath>
    <clipPath
       clipPathUnits="userSpaceOnUse"
       id="clipPath72-6-2-4">
      <path
         inkscape:connector-curvature="0"
         d="M 0,0 842,0 842,596 0,596 0,0 z"
         id="path74-01-5-8" />
    </clipPath>
    <clipPath
       clipPathUnits="userSpaceOnUse"
       id="clipPath32-9">
      <path
         inkscape:connector-curvature="0"
         d="m 0,0 314.646,0 0,612.283 L 0,612.283 0,0 z"
         id="path34-4" />
    </clipPath>
  </defs>
  <sodipodi:namedview
     inkscape:document-units="mm"
     pagecolor="#ffffff"
     bordercolor="#666666"
     borderopacity="1.0"
     inkscape:pageopacity="0.0"
     inkscape:pageshadow="2"
     inkscape:zoom="0.30699632"
     inkscape:cx="454.28027"
     inkscape:cy="380"
     inkscape:current-layer="Layer_x0020_1"
     id="namedview4245"
     showgrid="false"
     inkscape:window-width="1100"
     inkscape:window-height="717"
     inkscape:window-x="517"
     inkscape:window-y="200"
     inkscape:window-maximized="0" />
  <metadata
     id="metadata4247">
    <rdf:RDF>
      <cc:Work
         rdf:about="">
        <dc:format>image/svg+xml</dc:format>
        <dc:type
           rdf:resource="http://purl.org/dc/dcmitype/StillImage" />
        <dc:title></dc:title>
      </cc:Work>
    </rdf:RDF>
  </metadata>
  <g
     inkscape:label="Layer 1"
     inkscape:groupmode="layer"
     id="layer1">
    <g
       style="display:inline"
       transform="matrix(0.0232663,0,0,0.0232663,17.858872,163.63876)"
       id="Layer_x0020_1">
      <metadata
         id="CorelCorpID_0Corel-Layer" />
      <path
         style="fill:#879399;fill-opacity:1;stroke:none"
         d="m 3770.3436,-5613.8399 c -559.0569,0 -1063.3021,274.2388 -1449.0755,665.4226 -385.7853,391.1824 -692.448,906.8456 -945.3767,1511.2832 -500.42988,1196.3887 -791.88501,2769.49395 -814.71416,4515.1218 0,19.7952 -7.65722,41.8734 -7.65722,62.4303 l 0,15436.107 c 0.0893,26.648 0,54.816 7.65722,80.856 30.44777,1726.061 328.81793,3276.782 827.20806,4459.162 252.6078,599.337 554.4874,1110.965 939.0466,1498.797 384.6363,387.91 920.1723,475.769 1442.9117,665.497 l 2176.707,0 0,-1299.856 -2176.707,0 c -138.8691,0 -304.2282,-59.384 -522.4306,-279.873 -218.2055,-220.03 -458.0405,-589.973 -665.4237,-1082.109 -414.8673,-984.199 -700.1438,-2433.661 -721.4677,-4048.717 0,-14.467 -7.6572,-29.693 -7.6572,-43.397 l 0,-15342.8414 c 1.2768,-12.9424 0,-23.6019 0,-37.3063 15.9914,-1627.23802 305.4544,-3091.6213 721.4559,-4085.9474 207.9205,-497.2387 445.698,-871.7484 665.4207,-1094.5951 219.7256,-222.9248 389.0542,-286.1169 528.6091,-286.1169 l 2176.7842,0 0,-1293.5374 -2176.7842,0 z m 34504.1784,0 0,1293.5375 2182.947,0 c 139.558,0 302.634,63.1923 522.431,286.1153 219.738,222.8482 457.429,597.4334 665.424,1094.5967 416,994.4013 705.553,2458.86116 721.468,4085.9477 0,7.6184 0,11.421 0,18.2713 l 0,15355.2514 c 0,15.988 0,33.5 0,49.488 -21.325,1615.056 -312.841,3064.517 -727.633,4048.717 -207.471,492.14 -447.294,862.078 -665.497,1082.187 -218.205,220.03 -385.697,232.438 -516.193,279.797 l -2182.947,0 0,1299.855 2182.947,0 c 556.081,0 1052.034,-277.589 1436.671,-665.497 384.559,-387.834 686.427,-899.386 939.047,-1498.798 498.761,-1183.217 797.36,-2731.579 827.208,-4459.162 0,-24.364 7.657,-55.579 7.657,-80.856 l 0,-15436.1066 c 0,-22.0795 -7.657,-46.4417 -7.657,-68.5212 0,0 0,-7.6186 0,-7.6186 -23.595,-1741.66942 -315.202,-3308.5318 -814.715,-4502.7116 -252.925,-604.5141 -559.529,-1120.1007 -945.376,-1511.2845 -385.771,-391.1824 -883.777,-665.4212 -1442.835,-665.4212 l -2182.947,0 z M 5107.4378,-3567.7055 c -1294.9186,0 -2338.7228,2443.6347 -2369.4912,5503.9645 l 0,13837.725 c 41.1185,3037.718 1081.4251,5460.493 2369.4912,5460.493 l 34006.6962,0 c 1288.054,0 2328.299,-2422.775 2369.48,-5460.493 l 0,-13837.725 c -30.451,-3060.3298 -1074.574,-5503.9645 -2369.48,-5503.9645 l -34006.6962,0 z m 839.6128,1822.2193 32327.4714,0 0,21157.7422 -32327.4714,0 0,-21157.7422 z m 1411.775,3656.9259 0,1977.6871 1977.6936,0 0,-1977.6871 -1977.6936,0 z m 3942.9614,0 0,13837.7233 17519.55,0 0,-13837.7233 -17519.55,0 z m 18837.988,0 0,1977.6871 1977.76,0 0,-1977.6871 -1977.76,0 z m 2369.555,0 0,1977.6871 1977.686,0 0,-1977.6871 -1977.686,0 z m 2375.723,0 0,1977.6871 1977.696,0 0,-1977.6871 -1977.696,0 z m -27526.2274,2369.403 0,1977.7646 1977.6936,0 0,-1977.7646 -1977.6936,0 z m 22780.9494,0 0,1977.7646 1977.76,0 0,-1977.7646 -1977.76,0 z m 2369.555,0 0,1977.7646 1977.686,0 0,-1977.7646 -1977.686,0 z m 2375.723,0 0,1977.7646 1977.696,0 0,-1977.7646 -1977.696,0 z m -27526.2274,2375.7988 0,1977.6879 1977.6936,0 0,-1977.6879 -1977.6936,0 z m 22780.9494,0 0,1977.6879 1977.76,0 0,-1977.6879 -1977.76,0 z m 2369.555,0 0,1977.6879 1977.686,0 0,-1977.6879 -1977.686,0 z m 2375.723,0 0,1977.6879 1977.696,0 0,-1977.6879 -1977.696,0 z m -27526.2274,2369.5557 0,1977.6108 1977.6936,0 0,-1977.6108 -1977.6936,0 z m 22780.9494,0 0,1977.6108 1977.76,0 0,-1977.6108 -1977.76,0 z m 2369.555,0 0,1977.6108 1977.686,0 0,-1977.6108 -1977.686,0 z m 2375.723,0 0,1977.6108 1977.696,0 0,-1977.6108 -1977.696,0 z M 7358.8256,11401.92 l 0,1977.688 1977.6936,0 0,-1977.688 -1977.6936,0 z m 22780.9494,0 0,1977.688 1977.76,0 0,-1977.688 -1977.76,0 z m 2369.555,0 0,1977.688 1977.686,0 0,-1977.688 -1977.686,0 z m 2375.723,0 0,1977.688 1977.696,0 0,-1977.688 -1977.696,0 z m -27526.2274,2369.556 0,1977.687 1977.6936,0 0,-1977.687 -1977.6936,0 z m 22780.9494,0 0,1977.687 1977.76,0 0,-1977.687 -1977.76,0 z m 2369.555,0 0,1977.687 1977.686,0 0,-1977.687 -1977.686,0 z m 2375.723,0 0,1977.687 1977.696,0 0,-1977.687 -1977.696,0 z"
         id="rect23675"
         inkscape:connector-curvature="0"
         inkscape:export-filename="C:\Users\aschielke\Documents\div.submenu.png"
         inkscape:export-xdpi="112.64187"
         inkscape:export-ydpi="112.64187" />
    </g>
  </g>
</svg>
