<?xml version="1.0" encoding="UTF-8" standalone="no"?>
<!-- Created with Inkscape (http://www.inkscape.org/) -->

<svg
   xmlns:dc="http://purl.org/dc/elements/1.1/"
   xmlns:cc="http://creativecommons.org/ns#"
   xmlns:rdf="http://www.w3.org/1999/02/22-rdf-syntax-ns#"
   xmlns:svg="http://www.w3.org/2000/svg"
   xmlns="http://www.w3.org/2000/svg"
   xmlns:sodipodi="http://sodipodi.sourceforge.net/DTD/sodipodi-0.dtd"
   xmlns:inkscape="http://www.inkscape.org/namespaces/inkscape"
   width="297mm"
   height="210mm"
   id="svg3968"
   version="1.1"
   inkscape:version="0.48.4 r9939"
   sodipodi:docname="taskit-icon-gpio-ipcore.svg">
  <defs
     id="defs3970" />
  <sodipodi:namedview
     inkscape:document-units="mm"
     pagecolor="#ffffff"
     bordercolor="#666666"
     borderopacity="1.0"
     inkscape:pageopacity="0.0"
     inkscape:pageshadow="2"
     inkscape:zoom="0.43415836"
     inkscape:cx="448.11079"
     inkscape:cy="380"
     inkscape:current-layer="layer1"
     id="namedview3972"
     showgrid="false"
     inkscape:window-width="1241"
     inkscape:window-height="803"
     inkscape:window-x="87"
     inkscape:window-y="121"
     inkscape:window-maximized="0" />
  <metadata
     id="metadata3974">
    <rdf:RDF>
      <cc:Work
         rdf:about="">
        <dc:format>image/svg+xml</dc:format>
        <dc:type
           rdf:resource="http://purl.org/dc/dcmitype/StillImage" />
        <dc:title></dc:title>
      </cc:Work>
    </rdf:RDF>
  </metadata>
  <g
     inkscape:label="Layer 1"
     inkscape:groupmode="layer"
     id="layer1">
    <g
       id="g4535"
       transform="matrix(4.7665888,0,0,4.7665888,-1341.6132,1331.7243)">
      <path
         inkscape:export-ydpi="300.31711"
         inkscape:export-xdpi="300.31711"
         inkscape:export-filename="C:\Users\aschielke\Documents\taskit-gpio.net-usb-io.png"
         id="rect3878-8-5-1-0"
         d="m 339.66662,-276.74542 c -1.95737,0 -3.57102,1.56159 -3.57102,3.51947 l 0,7.3495 0,2.89839 0,6.10735 34.78055,0 0,-6.10735 0,-2.89839 0,-7.3495 c 0,-1.95788 -1.56161,-3.51947 -3.51945,-3.51947 l -27.69008,0 z m 81.72459,0 c -1.95783,0 -3.51968,1.56159 -3.51968,3.51947 l 0,7.3495 0,2.89839 0,6.10735 34.72922,0 0,-5.38273 c 0.046,-0.23 0.0506,-0.47986 0.0506,-0.72462 l 0,-10.24789 c 0,-1.95788 -1.56161,-3.51947 -3.51945,-3.51947 l -27.74188,0 z m -14.23343,4.91692 0,5.95205 -9.67843,0 0,-0.0516 -1.50107,0 0,-5.27922 -14.33657,0 0,5.27922 -1.44927,0 0,0.0516 -7.81522,0 0,9.73032 0,0.72461 -0.72452,0 -36.28185,0 -0.72452,0 0,-0.72461 0,-9.73032 -27.37928,0 0,127.21881 15.94101,0 0,-9.62682 0,-1.13864 1.13846,0 17.75289,0 1.08666,0 0,1.13864 0,9.62682 3.20911,0 0,-9.62682 0,-1.13864 1.08689,0 25.51607,0 1.08712,0 0,1.13864 0,9.62682 3.41585,0 0,-9.62682 0,-1.13864 1.08689,0 25.4645,0 1.08689,0 0,1.13864 0,9.62682 3.41608,0 0,-9.62682 0,-1.13864 1.08667,0 25.5681,0 1.08689,0 0,1.13864 0,9.62682 3.41608,0 0,-9.62682 0,-1.13864 1.08689,0 25.4645,0 1.08666,0 0,1.13864 0,9.62682 15.94124,0 0,-127.21881 -19.97823,0 0,-5.95205 -8.28097,0 0,5.95205 -0.93172,0 0,9.73032 0,0.72461 -0.72452,0 -36.28185,0 -0.72452,0 0,-0.72461 0,-9.73032 -0.93172,0 0,-5.95205 -8.28119,0 z m -92.64486,7.19423 c 3.40964,0 6.15898,2.85251 6.15898,6.2626 0,3.41012 -2.74934,6.26261 -6.15898,6.26261 -3.41032,2.3e-4 -6.21078,-2.85224 -6.21078,-6.26261 0,-3.41034 2.80046,-6.2626 6.21078,-6.2626 z m 161.84429,0 c 3.41032,0 6.15898,2.85251 6.15898,6.2626 0,3.41012 -2.74866,6.26261 -6.15898,6.26261 -3.41033,2.3e-4 -6.26282,-2.85224 -6.26282,-6.26261 0,-3.41034 2.85249,-6.2626 6.26282,-6.2626 z m -161.84429,2.79488 c -1.95783,2.4e-4 -3.46788,1.5103 -3.46788,3.46772 4.6e-4,1.9574 1.51005,3.46798 3.46788,3.46772 1.95761,2.6e-4 3.46765,-1.51032 3.46765,-3.46772 0,-1.95767 -1.51004,-3.46772 -3.46765,-3.46772 z m 161.84429,0 c -1.95761,2.4e-4 -3.46765,1.5103 -3.46765,3.46772 0,1.9574 1.51004,3.46772 3.46765,3.46772 1.9576,2.6e-4 3.46741,-1.51032 3.46741,-3.46772 0,-1.95767 -1.50981,-3.46772 -3.46741,-3.46772 z M 314.51292,-152.3215 c 3.40964,-2.8e-4 6.15898,2.80048 6.15898,6.21083 0,3.41011 -2.74934,6.21085 -6.15898,6.21085 -3.41032,2.5e-4 -6.21078,-2.80074 -6.21078,-6.21085 0,-3.41035 2.80046,-6.21136 6.21078,-6.21083 z m 161.84429,0 c 3.41032,-2.8e-4 6.15898,2.80048 6.15898,6.21083 0,3.41011 -2.74866,6.21085 -6.15898,6.21085 -3.41033,2.5e-4 -6.26282,-2.80074 -6.26282,-6.21085 0,-3.41035 2.85249,-6.21136 6.26282,-6.21083 z m -161.84429,2.69135 c -1.95783,2.6e-4 -3.46788,1.56183 -3.46788,3.51948 4.6e-4,1.95742 1.51005,3.51949 3.46788,3.51949 1.95761,0 3.46765,-1.56207 3.46765,-3.51949 0,-1.95765 -1.51004,-3.51922 -3.46765,-3.51948 z m 161.84429,0 c -1.95761,2.6e-4 -3.46765,1.56183 -3.46765,3.51948 0,1.95742 1.51004,3.51949 3.46765,3.51949 1.9576,0 3.46741,-1.56207 3.46741,-3.51949 0,-1.95765 -1.50981,-3.51922 -3.46741,-3.51948 z m -152.06226,1.29394 0,13.09453 1.44927,0 0,9.161 14.85435,0 0,-9.161 1.44904,0 0,-13.09453 -17.75266,0 z m 23.23869,0 0,13.09453 1.76007,0 0,9.161 21.89302,0 0,-9.161 1.81141,0 0,-13.09453 -25.4645,0 z m 31.05436,0 0,13.09453 1.86321,0 0,9.161 21.84168,0 0,-9.161 1.81141,0 0,-13.09453 -25.5163,0 z m 31.10594,0 0,13.09453 1.81141,0 0,9.161 21.84168,0 0,-9.161 1.86321,0 0,-13.09453 -25.5163,0 z m 31.10616,0 0,13.09453 1.81141,0 0,9.161 21.89325,0 0,-9.161 1.75984,0 0,-13.09453 -25.4645,0 z m -110.44977,14.75075 c 1.19556,0 2.12268,0.92677 2.12222,2.12203 0,1.19505 -0.92666,2.22531 -2.12222,2.22556 -1.19487,-2.5e-4 -2.17424,-1.03051 -2.17355,-2.22556 0,-1.19526 0.97868,-2.12203 2.17355,-2.12203 z m 5.69347,0 c 1.1951,0 2.17378,0.92677 2.17378,2.12203 0,1.19505 -0.97868,2.22556 -2.17378,2.22556 -1.19533,-2.5e-4 -2.17402,-1.03051 -2.17402,-2.22556 0,-1.19526 0.97869,-2.12203 2.17402,-2.12203 z m 17.02813,0 c 1.19487,0 2.17425,0.92677 2.17379,2.12203 0,1.19505 -0.97892,2.22556 -2.17379,2.22556 -1.19533,-2.5e-4 -2.17378,-1.03051 -2.17378,-2.22556 0,-1.19526 0.97845,-2.12203 2.17378,-2.12203 z m 4.76152,0 c 1.19509,0 2.22558,0.92677 2.22558,2.12203 0,1.19505 -1.03049,2.22556 -2.22558,2.22556 -1.1951,-2.5e-4 -2.12268,-1.03051 -2.12199,-2.22556 0,-1.19526 0.92689,-2.12203 2.12199,-2.12203 z m 4.81331,0 c 1.19556,0 2.12221,0.92677 2.12221,2.12203 0,1.19505 -0.92688,2.22556 -2.12221,2.22556 -1.19533,-2.5e-4 -2.12198,-1.03051 -2.12198,-2.22556 0,-1.19526 0.92665,-2.12203 2.12198,-2.12203 z m 4.81355,0 c 1.19486,0 2.12152,0.92677 2.12221,2.12203 0,1.19505 -0.92735,2.22556 -2.12221,2.22556 -1.1951,-2.5e-4 -2.22559,-1.03051 -2.22559,-2.22556 0,-1.19526 1.03049,-2.12203 2.22559,-2.12203 z m 16.66576,0 c 1.19486,0 2.22489,0.92677 2.22558,2.12203 -2.3e-4,1.19505 -1.03072,2.22556 -2.22558,2.22556 -1.19533,-2.5e-4 -2.12199,-1.03051 -2.12199,-2.22556 0,-1.19526 0.92643,-2.12203 2.12199,-2.12203 z m 4.81331,0 c 1.19556,0 2.17401,0.92677 2.17401,2.12203 0,1.19505 -0.97845,2.22556 -2.17401,2.22556 -1.19487,-2.5e-4 -2.17355,-1.03051 -2.17355,-2.22556 0,-1.19526 0.97868,-2.12203 2.17355,-2.12203 z m 4.86535,0 c 1.19532,0 2.12198,0.92677 2.12198,2.12203 0,1.19505 -0.92643,2.22556 -2.12198,2.22556 -1.19487,-2.5e-4 -2.22559,-1.03051 -2.22559,-2.22556 2.3e-4,-1.19526 1.03072,-2.12203 2.22559,-2.12203 z m 4.70971,0 c 1.19556,0 2.22558,0.92677 2.22558,2.12203 0,1.19505 -1.03002,2.22556 -2.22558,2.22556 -1.1951,-2.5e-4 -2.12199,-1.03051 -2.12199,-2.22556 0,-1.19526 0.92735,-2.12203 2.12199,-2.12203 z m 16.76936,0 c 1.19533,0 2.12221,0.92677 2.12221,2.12203 0,1.19505 -0.92665,2.22556 -2.12221,2.22556 -1.19487,-2.5e-4 -2.22536,-1.03051 -2.22559,-2.22556 0,-1.19526 1.03072,-2.12203 2.22559,-2.12203 z m 4.70971,0 c 1.19579,0 2.22582,0.92677 2.22582,2.12203 0,1.19505 -1.0298,2.22556 -2.22582,2.22556 -1.19486,-2.5e-4 -2.12198,-1.03051 -2.12198,-2.22556 0,-1.19526 0.92781,-2.12203 2.12198,-2.12203 z m 4.86535,0 c 1.1951,0 2.17378,0.92677 2.17378,2.12203 0,1.19505 -0.97868,2.22556 -2.17378,2.22556 -1.19533,-2.5e-4 -2.17379,-1.03051 -2.17379,-2.22556 0,-1.19526 0.97823,-2.12203 2.17379,-2.12203 z m 4.81331,0 c 1.1951,0 2.12199,0.92677 2.12199,2.12203 0,1.19505 -0.92712,2.22556 -2.12199,2.22556 -1.19532,-2.5e-4 -2.22558,-1.03051 -2.22558,-2.22556 0,-1.19526 1.03026,-2.12203 2.22558,-2.12203 z m 16.66576,0 c 1.1951,0 2.22559,0.92677 2.22559,2.12203 0,1.19505 -1.03049,2.22556 -2.22559,2.22556 -1.19509,-2.5e-4 -2.12198,-1.03051 -2.12198,-2.22556 0,-1.19526 0.92689,-2.12203 2.12198,-2.12203 z m 4.81355,0 c 1.1951,0 2.12198,0.92677 2.12198,2.12203 0,1.19505 -0.92757,2.22556 -2.12198,2.22556 -1.19579,-2.5e-4 -2.12222,-1.03051 -2.12222,-2.22556 0,-1.19526 0.9262,-2.12203 2.12222,-2.12203 z m 4.81331,0 c 1.1951,0 2.12199,0.92677 2.12199,2.12203 0,1.19505 -0.92689,2.22556 -2.12199,2.22556 -1.19509,-2.5e-4 -2.22558,-1.03051 -2.22558,-2.22556 0,-1.19526 1.03049,-2.12203 2.22558,-2.12203 z m 4.76175,0 c 1.19487,0 2.17378,0.92677 2.17378,2.12203 0,1.19505 -0.97891,2.22556 -2.17378,2.22556 -1.1951,-2.5e-4 -2.17379,-1.03051 -2.17379,-2.22556 0,-1.19526 0.97869,-2.12203 2.17379,-2.12203 z"
         style="fill:#879399;fill-opacity:1;stroke:none"
         inkscape:connector-curvature="0" />
    </g>
  </g>
</svg>
