<?xml version="1.0" encoding="UTF-8" standalone="no"?>
<!-- Generator: Adobe Illustrator 16.0.0, SVG Export Plug-In . SVG Version: 6.00 Build 0)  -->

<svg
   xmlns:dc="http://purl.org/dc/elements/1.1/"
   xmlns:cc="http://creativecommons.org/ns#"
   xmlns:rdf="http://www.w3.org/1999/02/22-rdf-syntax-ns#"
   xmlns:svg="http://www.w3.org/2000/svg"
   xmlns="http://www.w3.org/2000/svg"
   xmlns:xlink="http://www.w3.org/1999/xlink"
   xmlns:sodipodi="http://sodipodi.sourceforge.net/DTD/sodipodi-0.dtd"
   xmlns:inkscape="http://www.inkscape.org/namespaces/inkscape"
   version="1.1"
   id="SIG_color"
   x="0px"
   y="0px"
   width="288px"
   height="108px"
   viewBox="0 0 288 108"
   enable-background="new 0 0 288 108"
   xml:space="preserve"
   inkscape:version="0.91 r13725"
   sodipodi:docname="taskit-logo-Bluetooth_Smart.svg"><metadata
   id="metadata55"><rdf:RDF><cc:Work
       rdf:about=""><dc:format>image/svg+xml</dc:format><dc:type
         rdf:resource="http://purl.org/dc/dcmitype/StillImage" /></cc:Work></rdf:RDF></metadata><defs
   id="defs53"><clipPath
     id="SVGID_2_-3"><use
       height="100%"
       width="100%"
       y="0"
       x="0"
       style="overflow:visible"
       xlink:href="#SVGID_1_-7"
       overflow="visible"
       id="use13-2" /></clipPath><clipPath
     id="clipPath4195"><use
       height="100%"
       width="100%"
       y="0"
       x="0"
       style="overflow:visible"
       xlink:href="#SVGID_1_-7"
       overflow="visible"
       id="use4197" /></clipPath><clipPath
     id="clipPath4199"><use
       height="100%"
       width="100%"
       y="0"
       x="0"
       style="overflow:visible"
       xlink:href="#SVGID_1_-7"
       overflow="visible"
       id="use4201" /></clipPath><clipPath
     id="clipPath4203"><use
       height="100%"
       width="100%"
       y="0"
       x="0"
       style="overflow:visible"
       xlink:href="#SVGID_1_-7"
       overflow="visible"
       id="use4205" /></clipPath><clipPath
     id="clipPath4207"><use
       height="100%"
       width="100%"
       y="0"
       x="0"
       style="overflow:visible"
       xlink:href="#SVGID_1_-7"
       overflow="visible"
       id="use4209" /></clipPath><clipPath
     id="clipPath4211"><use
       height="100%"
       width="100%"
       y="0"
       x="0"
       style="overflow:visible"
       xlink:href="#SVGID_1_-7"
       overflow="visible"
       id="use4213" /></clipPath><clipPath
     id="clipPath4215"><use
       height="100%"
       width="100%"
       y="0"
       x="0"
       style="overflow:visible"
       xlink:href="#SVGID_1_-7"
       overflow="visible"
       id="use4217" /></clipPath><clipPath
     id="clipPath4219"><use
       height="100%"
       width="100%"
       y="0"
       x="0"
       style="overflow:visible"
       xlink:href="#SVGID_1_-7"
       overflow="visible"
       id="use4221" /></clipPath><clipPath
     id="clipPath4223"><use
       height="100%"
       width="100%"
       y="0"
       x="0"
       style="overflow:visible"
       xlink:href="#SVGID_1_-7"
       overflow="visible"
       id="use4225" /></clipPath><clipPath
     id="clipPath4227"><use
       height="100%"
       width="100%"
       y="0"
       x="0"
       style="overflow:visible"
       xlink:href="#SVGID_1_-7"
       overflow="visible"
       id="use4229" /></clipPath><defs
     id="defs9-4"><rect
       height="61.701"
       width="250"
       y="14.895"
       x="19"
       id="SVGID_1_-7" /></defs><clipPath
     id="clipPath4236"><use
       id="use4238"
       overflow="visible"
       xlink:href="#SVGID_1_-7"
       style="overflow:visible"
       x="0"
       y="0"
       width="100%"
       height="100%" /></clipPath></defs><sodipodi:namedview
   pagecolor="#ffffff"
   bordercolor="#666666"
   borderopacity="1"
   objecttolerance="10"
   gridtolerance="10"
   guidetolerance="10"
   inkscape:pageopacity="0"
   inkscape:pageshadow="2"
   inkscape:window-width="1418"
   inkscape:window-height="828"
   id="namedview51"
   showgrid="false"
   inkscape:zoom="2.3958333"
   inkscape:cx="149.55999"
   inkscape:cy="-112.95652"
   inkscape:window-x="0"
   inkscape:window-y="30"
   inkscape:window-maximized="0"
   inkscape:current-layer="SIG_color" />

<rect
   style="fill:#916f6f;fill-rule:evenodd;stroke:none;stroke-width:1px;stroke-linecap:butt;stroke-linejoin:miter;stroke-opacity:1"
   id="rect3383"
   width="293.84348"
   height="166.12173"
   x="0.8347826"
   y="116.34782"
   rx="20.7001"
   ry="20.7437" /><g
   id="g3">
	<g
   id="g5">
		<g
   id="g7">
			<defs
   id="defs9">
				<rect
   id="SVGID_1_"
   x="19"
   y="14.895"
   width="250"
   height="61.701" />
			</defs>
			<clipPath
   id="SVGID_2_">
				<use
   xlink:href="#SVGID_1_"
   overflow="visible"
   id="use13" />
			</clipPath>
			<path
   clip-path="url(#SVGID_2_)"
   fill-rule="evenodd"
   clip-rule="evenodd"
   fill="#231F20"
   d="M82.164,47.963h2.343     c4.325,0,5.961,2.163,5.961,6.497c0,4.272-1.402,6.493-5.264,6.493h-3.041V47.963L82.164,47.963z M82.164,30.666h2.751     c3.213,0,4.737,2.041,4.737,5.957c0,3.504-2.104,5.38-4.855,5.38h-2.633V30.666L82.164,30.666z M74.915,66.911h11.462     c8.241,0,11.343-5.255,11.343-12.219c0-5.434-2.164-8.359-5.847-10c3.51-1.406,5.026-5.199,5.026-8.826     c0-7.201-3.449-11.173-11.226-11.173H74.915V66.911L74.915,66.911z"
   id="path15" />
			<polygon
   clip-path="url(#SVGID_2_)"
   fill="#231F20"
   points="107.137,66.911 107.137,24.693 100.586,24.693 100.586,66.911      107.137,66.911    "
   id="polygon17" />
			<path
   clip-path="url(#SVGID_2_)"
   fill="#231F20"
   d="M124.675,35.451v24.677c-1.522,1.115-2.806,1.985-4.214,1.985     c-1.4,0-2.337-0.69-2.337-2.275V35.451h-6.552v25.437c0,4.094,2.05,6.604,5.498,6.604c3.807,0,5.206-1.393,7.958-3.735v3.155     h6.191v-31.46H124.675L124.675,35.451z"
   id="path19" />
			<path
   clip-path="url(#SVGID_2_)"
   fill-rule="evenodd"
   clip-rule="evenodd"
   fill="#231F20"
   d="M141.795,47.038v-1.644     c0-3.626,1.283-5.144,3.627-5.144c2.337,0,3.619,1.518,3.619,5.144v1.644H141.795L141.795,47.038z M155.592,46.568     c0-6.909-2.687-11.695-10.17-11.695c-7.488,0-10.178,4.786-10.178,11.695v9.241c0,6.896,2.689,11.682,10.178,11.682     c7.311,0,10.056-4.551,10.17-11.227h-6.551v0.703c0,3.628-1.282,5.146-3.619,5.146c-2.344,0-3.627-1.518-3.627-5.146v-4.552     h13.797V46.568L155.592,46.568z"
   id="path21" />
			<path
   clip-path="url(#SVGID_2_)"
   fill="#231F20"
   d="M161.367,40.83v19.588c0,4.796,2.746,7.073,7.667,7.073     c1.63,0,2.39-0.11,3.27-0.345v-5.613h-2.162c-1.52,0-2.222-0.938-2.222-2.578V40.83h4.384v-5.379h-4.384v-8.467h-6.553v8.467     h-3.624v5.379H161.367L161.367,40.83z"
   id="path23" />
			<path
   clip-path="url(#SVGID_2_)"
   fill-rule="evenodd"
   clip-rule="evenodd"
   fill="#231F20"
   d="M188.842,56.968     c0,3.628-1.295,5.146-3.629,5.146c-2.34,0-3.626-1.518-3.626-5.146V45.395c0-3.626,1.286-5.144,3.626-5.144     c2.334,0,3.629,1.518,3.629,5.144V56.968L188.842,56.968z M175.036,55.81c0,6.896,2.689,11.682,10.177,11.682     c7.479,0,10.169-4.786,10.169-11.682v-9.241c0-6.909-2.689-11.695-10.169-11.695c-7.487,0-10.177,4.786-10.177,11.695V55.81     L175.036,55.81z"
   id="path25" />
			<path
   clip-path="url(#SVGID_2_)"
   fill-rule="evenodd"
   clip-rule="evenodd"
   fill="#231F20"
   d="M212.625,56.968     c0,3.628-1.284,5.146-3.629,5.146c-2.332,0-3.627-1.518-3.627-5.146V45.395c0-3.626,1.295-5.144,3.627-5.144     c2.345,0,3.629,1.518,3.629,5.144V56.968L212.625,56.968z M198.829,55.81c0,6.896,2.691,11.682,10.167,11.682     c7.488,0,10.18-4.786,10.18-11.682v-9.241c0-6.909-2.691-11.695-10.18-11.695c-7.476,0-10.167,4.786-10.167,11.695V55.81     L198.829,55.81z"
   id="path27" />
			<path
   clip-path="url(#SVGID_2_)"
   fill="#231F20"
   d="M224.777,40.83v19.588c0,4.796,2.745,7.073,7.654,7.073     c1.64,0,2.399-0.11,3.284-0.345v-5.613h-2.165c-1.52,0-2.223-0.938-2.223-2.578V40.83h4.388v-5.379h-4.388v-8.467h-6.551v8.467     h-3.625v5.379H224.777L224.777,40.83z"
   id="path29" />
			<path
   clip-path="url(#SVGID_2_)"
   fill="#231F20"
   d="M246.336,66.911V42.236c1.517-1.115,2.812-1.985,4.206-1.985     c1.407,0,2.347,0.704,2.347,2.277v24.383h6.549V41.479c0-4.097-2.056-6.606-5.504-6.606c-3.793,0-5.2,1.406-7.598,3.504V24.693     h-6.553v42.218H246.336L246.336,66.911z"
   id="path31" />
			<path
   clip-path="url(#SVGID_2_)"
   fill-rule="evenodd"
   clip-rule="evenodd"
   fill="#0060A9"
   d="M44.554,30.309l5.061,5.062     l-5.057,5.059L44.554,30.309L44.554,30.309z M44.554,61.274l5.061-5.063l-5.057-5.044L44.554,61.274L44.554,61.274z      M39.156,45.797L28.227,34.833l3.168-3.169l8.709,8.703V19.492l15.841,15.842L45.483,45.797l10.463,10.448L40.104,72.089V51.215     l-8.709,8.702l-3.168-3.169L39.156,45.797L39.156,45.797z M42.085,76.38c13.36,0,22.562-6.347,22.562-30.584     c0-24.251-9.202-30.596-22.562-30.596c-13.352,0-22.567,6.345-22.567,30.596C19.518,70.033,28.733,76.38,42.085,76.38     L42.085,76.38z"
   id="path33" />
		</g>
		<path
   fill="#231F20"
   d="M268.766,29.222c0,2.497-2.132,4.606-4.631,4.606c-2.613,0-4.607-2.027-4.607-4.606    c0-2.553,2.07-4.607,4.607-4.607C266.749,24.614,268.766,26.607,268.766,29.222z M260.559,29.167c0,1.985,1.604,3.696,3.576,3.696    c1.994,0,3.581-1.628,3.581-3.6c0-1.994-1.587-3.685-3.581-3.685C262.163,25.579,260.559,27.193,260.559,29.167z M264.999,31.719    l-1.407-2.235h-0.062v2.235h-0.883v-5.071h1.531c1.205,0,1.69,0.505,1.69,1.271c0,0.863-0.524,1.388-1.333,1.47    c0.104,0.138,0.302,0.421,0.504,0.725l1.049,1.606H264.999z M264.094,27.353h-0.564v1.552h0.345c0.809,0,1.07-0.448,1.07-0.869    C264.944,27.553,264.729,27.353,264.094,27.353z"
   id="path35" />
	</g>
	<g
   id="g37">
		<g
   id="g39">
			<path
   fill="#0060A9"
   d="M196.476,87.869c0.356,1.324,0.99,3.062,3.233,3.062c1.934,0,2.637-1.323,2.637-2.404     c0-1.555-0.92-2.107-2.59-2.855c-1.899-0.876-4.004-1.866-4.004-4.548c0-2.116,1.45-4.753,4.81-4.753     c3.914,0,4.823,3.165,5.02,3.892l-2.418,0.792c-0.185-0.654-0.749-2.509-2.623-2.509c-1.314,0-2.177,0.967-2.177,2.177     c0,1.369,0.796,1.828,2.97,2.866c1.543,0.747,3.695,1.771,3.695,4.372c0,1.233-0.553,5.146-5.479,5.146     c-4.479,0-5.203-3.35-5.468-4.579L196.476,87.869z"
   id="path41" />
			<path
   fill="#0060A9"
   d="M209.332,76.682h3.719l1.036,12.05l5.099-12.05h3.821l-2.706,16.113h-2.497l2.372-13.824l-5.999,13.824     h-1.852l-1.302-13.546l-2.198,13.546h-2.211L209.332,76.682z"
   id="path43" />
			<path
   fill="#0060A9"
   d="M233.872,92.795h-2.637l-0.426-4.202h-4.432l-1.76,4.202h-2.464l7.056-16.113h2.75L233.872,92.795z      M230.086,79.409l-2.854,7.101h3.36L230.086,79.409z"
   id="path45" />
			<path
   fill="#0060A9"
   d="M238.13,76.682h4.361c1.865,0,4.916,0.217,4.916,4.108c0,3.626-2.256,4.488-3.072,4.811l1.889,7.194     h-2.789l-1.666-6.769h-2.648l-1.116,6.769h-2.556L238.13,76.682z M239.478,83.979h1.889c0.793,0,1.54-0.069,2.312-0.609     c0.922-0.646,1.117-1.981,1.117-2.603c0-1.955-1.337-2.084-2.704-2.084h-1.738L239.478,83.979z"
   id="path47" />
			<path
   fill="#0060A9"
   d="M252.357,78.878h-3.626l0.355-2.196h9.819l-0.367,2.196h-3.627l-2.313,13.917h-2.568L252.357,78.878z"
   id="path49" />
		</g>
	</g>
</g><path
   id="path49-5"
   style="fill:#ffffff"
   d="m 255.97153,226.22015 -3.626,0 0.355,-2.196 9.819,0 -0.367,2.196 -3.627,0 -2.313,13.917 -2.568,0 2.327,-13.917 z m -14.227,-2.196 4.361,0 c 1.865,0 4.916,0.217 4.916,4.108 0,3.626 -2.256,4.488 -3.072,4.811 l 1.889,7.194 -2.789,0 -1.666,-6.769 -2.648,0 -1.116,6.769 -2.556,0 2.681,-16.113 z m 1.348,7.297 1.889,0 c 0.793,0 1.54,-0.069 2.312,-0.609 0.922,-0.646 1.117,-1.981 1.117,-2.603 0,-1.955 -1.337,-2.084 -2.704,-2.084 l -1.738,0 -0.876,5.296 z m -5.606,8.816 -2.637,0 -0.426,-4.202 -4.432,0 -1.76,4.202 -2.464,0 7.056,-16.113 2.75,0 1.913,16.113 z m -3.786,-13.386 -2.854,7.101 3.36,0 -0.506,-7.101 z m -20.754,-2.727 3.719,0 1.036,12.05 5.099,-12.05 3.821,0 -2.706,16.113 -2.497,0 2.372,-13.824 -5.999,13.824 -1.852,0 -1.302,-13.546 -2.198,13.546 -2.211,0 2.718,-16.113 z m -12.856,11.187 c 0.356,1.324 0.99,3.062 3.233,3.062 1.934,0 2.637,-1.323 2.637,-2.404 0,-1.555 -0.92,-2.107 -2.59,-2.855 -1.899,-0.876 -4.004,-1.866 -4.004,-4.548 0,-2.116 1.45,-4.753 4.81,-4.753 3.914,0 4.823,3.165 5.02,3.892 l -2.418,0.792 c -0.185,-0.654 -0.749,-2.509 -2.623,-2.509 -1.314,0 -2.177,0.967 -2.177,2.177 0,1.369 0.796,1.828 2.97,2.866 1.543,0.747 3.695,1.771 3.695,4.372 0,1.233 -0.553,5.146 -5.479,5.146 -4.479,0 -5.203,-3.35 -5.468,-4.579 l 2.394,-0.659 z m 72.29,-58.647 c 0,2.497 -2.132,4.606 -4.631,4.606 -2.613,0 -4.607,-2.027 -4.607,-4.606 0,-2.553 2.07,-4.607 4.607,-4.607 2.614,-0.001 4.631,1.992 4.631,4.607 z m -8.207,-0.055 c 0,1.985 1.604,3.696 3.576,3.696 1.994,0 3.581,-1.628 3.581,-3.6 0,-1.994 -1.587,-3.685 -3.581,-3.685 -1.972,0.001 -3.576,1.615 -3.576,3.589 z m 4.44,2.552 -1.407,-2.235 -0.062,0 0,2.235 -0.883,0 0,-5.071 1.531,0 c 1.205,0 1.69,0.505 1.69,1.271 0,0.863 -0.524,1.388 -1.333,1.47 0.104,0.138 0.302,0.421 0.504,0.725 l 1.049,1.606 -1.089,0 z m -0.905,-4.366 -0.564,0 0,1.552 0.345,0 c 0.809,0 1.07,-0.448 1.07,-0.869 -10e-4,-0.483 -0.216,-0.683 -0.851,-0.683 z m -17.758,39.558 0,-24.675 c 1.517,-1.115 2.812,-1.985 4.206,-1.985 1.407,0 2.347,0.704 2.347,2.277 l 0,24.383 6.549,0 0,-25.432 c 0,-4.097 -2.056,-6.606 -5.504,-6.606 -3.793,0 -5.2,1.406 -7.598,3.504 l 0,-13.684 -6.553,0 0,42.218 6.553,0 0,0 z m -21.559,-26.081 0,19.588 c 0,4.796 2.745,7.073 7.654,7.073 1.64,0 2.399,-0.11 3.284,-0.345 l 0,-5.613 -2.165,0 c -1.52,0 -2.223,-0.938 -2.223,-2.578 l 0,-18.125 4.388,0 0,-5.379 -4.388,0 0,-8.467 -6.551,0 0,8.467 -3.625,0 0,5.379 3.626,0 0,0 z m -12.152,16.138 c 0,3.628 -1.284,5.146 -3.629,5.146 -2.332,0 -3.627,-1.518 -3.627,-5.146 l 0,-11.573 c 0,-3.626 1.295,-5.144 3.627,-5.144 2.345,0 3.629,1.518 3.629,5.144 l 0,11.573 0,0 z m -13.796,-1.158 c 0,6.896 2.691,11.682 10.167,11.682 7.488,0 10.18,-4.786 10.18,-11.682 l 0,-9.241 c 0,-6.909 -2.691,-11.695 -10.18,-11.695 -7.476,0 -10.167,4.786 -10.167,11.695 l 0,9.241 0,0 z m -9.987,1.158 c 0,3.628 -1.295,5.146 -3.629,5.146 -2.34,0 -3.626,-1.518 -3.626,-5.146 l 0,-11.573 c 0,-3.626 1.286,-5.144 3.626,-5.144 2.334,0 3.629,1.518 3.629,5.144 l 0,11.573 0,0 z m -13.806,-1.158 c 0,6.896 2.689,11.682 10.177,11.682 7.479,0 10.169,-4.786 10.169,-11.682 l 0,-9.241 c 0,-6.909 -2.689,-11.695 -10.169,-11.695 -7.487,0 -10.177,4.786 -10.177,11.695 l 0,9.241 0,0 z m -13.669,-14.98 0,19.588 c 0,4.796 2.746,7.073 7.667,7.073 1.63,0 2.39,-0.11 3.27,-0.345 l 0,-5.613 -2.162,0 c -1.52,0 -2.222,-0.938 -2.222,-2.578 l 0,-18.125 4.384,0 0,-5.379 -4.384,0 0,-8.467 -6.553,0 0,8.467 -3.624,0 0,5.379 3.624,0 0,0 z m -19.572,6.208 0,-1.644 c 0,-3.626 1.283,-5.144 3.627,-5.144 2.337,0 3.619,1.518 3.619,5.144 l 0,1.644 -7.246,0 0,0 z m 13.797,-0.47 c 0,-6.909 -2.687,-11.695 -10.17,-11.695 -7.488,0 -10.178,4.786 -10.178,11.695 l 0,9.241 c 0,6.896 2.689,11.682 10.178,11.682 7.311,0 10.056,-4.551 10.17,-11.227 l -6.551,0 0,0.703 c 0,3.628 -1.282,5.146 -3.619,5.146 -2.344,0 -3.627,-1.518 -3.627,-5.146 l 0,-4.552 13.797,0 0,-5.847 0,0 z m -30.917,-11.117 0,24.677 c -1.522,1.115 -2.806,1.985 -4.214,1.985 -1.4,0 -2.337,-0.69 -2.337,-2.275 l 0,-24.387 -6.552,0 0,25.437 c 0,4.094 2.05,6.604 5.498,6.604 3.807,0 5.206,-1.393 7.958,-3.735 l 0,3.155 6.191,0 0,-31.46 -6.544,0 0,-0.001 z m -24.089,-10.758 0,42.218 6.551,0 0,0 0,-42.218 z m -18.422004,23.27 2.343001,0 c 4.325,0 5.960999,2.163 5.960999,6.497 0,4.272 -1.402,6.493 -5.263999,6.493 l -3.041,0 0,-12.99 10e-4,0 z m 0,-17.297 2.751001,0 c 3.212999,0 4.736999,2.041 4.736999,5.957 0,3.504 -2.104,5.38 -4.855,5.38 l -2.633,0 0,-11.337 0,0 z m -7.248999,36.245 11.462,0 c 8.241,0 11.343003,-5.255 11.343003,-12.219 0,-5.434 -2.164003,-8.359 -5.847003,-10 3.51,-1.406 5.026003,-5.199 5.026003,-8.826 0,-7.201 -3.449003,-11.173 -11.226003,-11.173 l -10.758,0 0,42.218 0,0 z m -30.361001,-36.602 5.061001,5.062 -5.057,5.059 -0.004,-10.121 0,0 z m 0,30.965 5.061001,-5.063 -5.057,-5.044 -0.004,10.107 0,0 z m -5.397999,-15.477 -10.929001,-10.964 3.168,-3.169 8.709,8.703 0,-20.875 15.841001,15.842 -10.462001,10.463 10.463001,10.448 -15.842,15.844 0,-20.874 -8.709,8.702 -3.168,-3.169 10.929,-10.951 0,0 z m 2.929,30.583 c 13.36,0 22.562,-6.347 22.562,-30.584 0,-24.251 -9.202,-30.596 -22.562,-30.596 -13.352,0 -22.567,6.345 -22.567,30.596 0,24.237 9.215,30.584 22.567,30.584 l 0,0 z" /></svg>