<?xml version="1.0" encoding="UTF-8" standalone="no"?>
<!-- Created with Inkscape (http://www.inkscape.org/) -->

<svg
   xmlns:dc="http://purl.org/dc/elements/1.1/"
   xmlns:cc="http://creativecommons.org/ns#"
   xmlns:rdf="http://www.w3.org/1999/02/22-rdf-syntax-ns#"
   xmlns:svg="http://www.w3.org/2000/svg"
   xmlns="http://www.w3.org/2000/svg"
   xmlns:sodipodi="http://sodipodi.sourceforge.net/DTD/sodipodi-0.dtd"
   xmlns:inkscape="http://www.inkscape.org/namespaces/inkscape"
   width="297mm"
   height="210mm"
   id="svg4241"
   version="1.1"
   inkscape:version="0.91 r13725"
   sodipodi:docname="taskit-logo-vaultsec.svg">
  <defs
     id="defs4243" />
  <sodipodi:namedview
     inkscape:document-units="mm"
     pagecolor="#ffffff"
     bordercolor="#666666"
     borderopacity="1.0"
     inkscape:pageopacity="0.0"
     inkscape:pageshadow="2"
     inkscape:zoom="0.43415836"
     inkscape:cx="512.24182"
     inkscape:cy="377.69669"
     inkscape:current-layer="layer1"
     id="namedview4245"
     showgrid="false"
     inkscape:window-width="1100"
     inkscape:window-height="717"
     inkscape:window-x="517"
     inkscape:window-y="200"
     inkscape:window-maximized="0" />
  <metadata
     id="metadata4247">
    <rdf:RDF>
      <cc:Work
         rdf:about="">
        <dc:format>image/svg+xml</dc:format>
        <dc:type
           rdf:resource="http://purl.org/dc/dcmitype/StillImage" />
        <dc:title />
      </cc:Work>
    </rdf:RDF>
  </metadata>
  <g
     inkscape:label="Layer 1"
     inkscape:groupmode="layer"
     id="layer1">
    <g
       id="g4167">
      <path
         id="path410-5-4-9"
         style="fill:#0c141a;fill-opacity:1;fill-rule:nonzero;stroke:none;display:inline"
         d="m 68.808876,148.78197 71.052204,0 0,173.0937 -71.052204,0 0,-173.0937 z"
         inkscape:connector-curvature="0" />
      <path
         id="path412-0-7-4"
         style="fill:#0c141a;fill-opacity:1;fill-rule:nonzero;stroke:none;display:inline"
         d="m 160.40737,321.87567 -53.83219,0 0,-45.7201 53.83219,0 0,45.7201 z"
         inkscape:connector-curvature="0" />
      <path
         d="m 154.30797,148.78757 71.0523,0 -46.3763,173.0937 -71.05229,0 46.37629,-173.0937 z"
         style="fill:#0c141a;fill-opacity:1;fill-rule:nonzero;stroke:none;display:inline"
         id="path416-5-4-8"
         inkscape:connector-curvature="0" />
      <path
         id="path418-5-1-8"
         style="fill:#0c141a;fill-opacity:1;fill-rule:nonzero;stroke:none;display:inline"
         d="m 298.00897,148.78197 53.83231,0 0,45.72 -53.83231,0 0,-45.72 z"
         inkscape:connector-curvature="0" />
      <path
         d="m 280.27077,321.87787 -71.0523,0 46.3764,-173.0937 71.0523,0 -46.3764,173.0937 z"
         style="fill:#0c141a;fill-opacity:1;fill-rule:nonzero;stroke:none;display:inline"
         id="path422-7-1-2"
         inkscape:connector-curvature="0" />
      <path
         id="path424-4-6-4"
         style="fill:#0c141a;fill-opacity:1;fill-rule:nonzero;stroke:none;display:inline"
         d="m 296.08557,148.78197 71.05221,0 0,173.0937 -71.05221,0 0,-173.0937 z"
         inkscape:connector-curvature="0" />
      <path
         id="path426-5-5-5"
         style="fill:#0c141a;fill-opacity:1;fill-rule:nonzero;stroke:none;display:inline"
         d="m 396.89378,148.78197 71.05229,0 0,173.0937 -71.05229,0 0,-173.0937 z"
         inkscape:connector-curvature="0" />
      <path
         id="path428-2-5-5"
         style="fill:#0c141a;fill-opacity:1;fill-rule:nonzero;stroke:none;display:inline"
         d="m 506.82115,321.87567 -53.83228,0 0,-45.7201 53.83228,0 0,45.7201 z"
         inkscape:connector-curvature="0" />
      <path
         id="path430-0-3-1"
         style="fill:#0c141a;fill-opacity:1;fill-rule:nonzero;stroke:none;display:inline"
         d="m 484.87191,148.78197 71.05227,0 0,173.0937 -71.05227,0 0,-173.0937 z"
         inkscape:connector-curvature="0" />
      <path
         id="path432-1-5-7"
         style="fill:#0c141a;fill-opacity:1;fill-rule:nonzero;stroke:none;display:inline"
         d="m 585.68009,148.78197 71.05227,0 0,173.0937 -71.05227,0 0,-173.0937 z"
         inkscape:connector-curvature="0" />
      <path
         id="path434-8-4-1"
         style="fill:#0c141a;fill-opacity:1;fill-rule:nonzero;stroke:none;display:inline"
         d="m 695.60753,321.87567 -53.83228,0 0,-45.7201 53.83228,0 0,45.7201 z"
         inkscape:connector-curvature="0" />
      <path
         id="path436-1-2-1"
         style="fill:#0c141a;fill-opacity:1;fill-rule:nonzero;stroke:none;display:inline"
         d="m 724.97878,321.87567 71.05227,0 0,-173.0937 -71.05227,0 0,173.0937 z"
         inkscape:connector-curvature="0" />
      <path
         id="path438-0-9-5"
         style="fill:#0c141a;fill-opacity:1;fill-rule:nonzero;stroke:none;display:inline"
         d="m 834.90613,148.78197 -53.83229,0 0,45.72 53.83229,0 0,-45.72 z"
         inkscape:connector-curvature="0" />
      <path
         id="path440-6-6-2"
         style="fill:#0c141a;fill-opacity:1;fill-rule:nonzero;stroke:none;display:inline"
         d="m 795.75947,321.87567 -71.05227,0 0,-173.0937 71.05227,0 0,173.0937 z"
         inkscape:connector-curvature="0" />
      <path
         id="path442-4-8-7"
         style="fill:#0c141a;fill-opacity:1;fill-rule:nonzero;stroke:none;display:inline"
         d="m 685.8208,148.78197 53.83228,0 0,45.72 -53.83228,0 0,-45.72 z"
         inkscape:connector-curvature="0" />
      <path
         id="path444-6-5-6"
         style="fill:#e30073;fill-opacity:1;fill-rule:nonzero;stroke:none;display:inline"
         d="m 726.81168,350.39837 71.05226,0 0,173.0937 -71.05226,0 0,-173.0937 z"
         inkscape:connector-curvature="0" />
      <path
         id="path446-1-2-1"
         style="fill:#e30073;fill-opacity:1;fill-rule:nonzero;stroke:none;display:inline"
         d="m 836.73902,523.49207 -53.83228,0 0,-45.7201 53.83228,0 0,45.7201 z"
         inkscape:connector-curvature="0" />
      <path
         id="path448-1-1-4"
         style="fill:#e30073;fill-opacity:1;fill-rule:nonzero;stroke:none;display:inline"
         d="m 836.73902,459.80527 -53.83228,0 0,-45.7201 53.83228,0 0,45.7201 z"
         inkscape:connector-curvature="0" />
      <path
         id="path450-4-5-2"
         style="fill:#e30073;fill-opacity:1;fill-rule:nonzero;stroke:none;display:inline"
         d="m 836.73902,396.11847 -53.83228,0 0,-45.7201 53.83228,0 0,45.7201 z"
         inkscape:connector-curvature="0" />
      <path
         inkscape:connector-curvature="0"
         id="path460-1-7-3"
         style="fill:#e30073;fill-opacity:1;fill-rule:nonzero;stroke:none;display:inline"
         d="m 866.1216,523.46947 71.02961,0 0,-173.0598 -71.02961,0 0,173.0598 z m 32.2224,-144.7973 c 0.0761,0 0.22655,0.1019 0.43026,0.3168 0.19229,0.2263 0.31699,0.6109 0.39599,1.1201 0.0666,0.7354 0.1466,1.5161 0.20371,2.3533 0.0476,0.826 0.0571,1.403 0.0571,1.7084 0.01,0.1358 0.13612,0.2376 0.33983,0.3508 0.2037,0.1131 0.39599,0.215 0.57685,0.2828 1.61796,0.5544 3.84675,1.3351 6.6979,2.3194 2.85115,0.9843 5.71362,1.9234 8.58743,2.8398 0.27129,0.068 0.52069,0.079 0.7244,0.023 0.20371,-0.046 0.30556,-0.1811 0.31698,-0.396 0.01,-0.3395 -0.23797,-0.973 -0.74724,-1.8329 -0.50927,-0.8712 -1.36903,-1.8555 -2.54569,-3.0095 -0.50927,-0.5092 -0.554,-0.7355 -0.14659,-0.6901 0.40742,0.056 0.80341,0.147 1.17665,0.3507 2.18367,1.5953 3.99391,3.4282 5.44205,5.4987 1.4369,2.0591 2.17234,3.6883 2.22889,4.8989 -0.01,0.4979 -0.18087,0.9504 -0.54354,1.3125 -0.36173,0.362 -0.81483,0.5544 -1.38036,0.577 -0.52069,-0.023 -1.154,-0.1471 -1.85546,-0.3168 -0.70155,-0.181 -1.23319,-0.3394 -1.62918,-0.4865 l -16.38278,-5.5326 c -0.14755,-0.034 -0.29414,-0.034 -0.43026,0 -0.1466,0.034 -0.22656,0.1019 -0.22656,0.2036 l 0,2.5797 c -0.019,0.2489 -0.0952,0.4298 -0.23797,0.543 -0.1466,0.1132 -0.25987,0.1358 -0.33983,0.1358 -0.15802,-0.023 -0.30557,-0.1471 -0.40742,-0.396 -0.0952,-0.249 -0.13612,-0.4752 -0.16944,-0.6336 -0.0381,-0.1811 -0.10185,-0.5318 -0.16944,-1.0862 -0.0666,-0.5544 -0.13612,-1.1653 -0.16944,-1.8555 -0.0476,-0.1018 -0.11327,-0.2036 -0.22655,-0.2941 -0.11328,-0.079 -0.21513,-0.1358 -0.29414,-0.1697 -0.89384,-0.3734 -1.7537,-0.7807 -2.60223,-1.2333 -0.8491,-0.4525 -1.52742,-0.8372 -1.97996,-1.1427 -0.44168,-0.3508 -0.88242,-0.939 -1.31249,-1.7197 -0.43026,-0.7807 -0.63397,-1.5953 -0.65586,-2.4326 0.0476,-0.3054 0.27129,-0.4412 0.71298,-0.4638 0.44073,-0.011 0.81483,0.011 1.08612,0.09 0.96171,0.2376 1.87811,0.4752 2.7493,0.7468 0.87099,0.2716 1.52742,0.4865 2.00262,0.6562 0.25987,0.056 0.40741,0.023 0.40741,-0.1132 0,-0.6109 -0.01,-1.2784 -0.0381,-2.0025 -0.01,-0.7355 -0.019,-1.5388 -0.019,-2.4326 0,-0.147 0.019,-0.2941 0.0761,-0.4299 0.0666,-0.1471 0.15802,-0.2263 0.29414,-0.2376 m -9.8884,17.7065 c 0.15802,-0.01 0.31698,-0.01 0.46358,0 1.09745,0.056 1.90076,0.4186 2.4325,1.1087 0.53211,0.7015 0.80341,1.403 0.80341,2.0705 -0.01,0.6901 -0.25987,1.2446 -0.74725,1.6858 -0.48642,0.4412 -1.15399,0.6788 -1.97996,0.6901 -0.92811,-0.034 -1.70839,-0.3506 -2.37596,-0.9504 -0.65586,-0.5883 -0.9956,-1.2784 -1.02958,-2.0817 0.0571,-0.9844 0.39599,-1.6632 1.02958,-2.0366 0.48642,-0.2828 0.95,-0.4525 1.40301,-0.4865 m 10.08078,2.4552 c 0.33983,-0.046 0.85957,0 1.60663,0.147 0.74629,0.1471 1.4369,0.3395 2.05916,0.5771 2.42118,0.8825 5.0234,1.8668 7.79535,2.9756 2.76062,1.1088 5.1026,2.0705 7.04868,2.8964 0.46357,0.1697 0.75771,0.1924 0.88241,0.1132 0.1247,-0.091 0.15802,-0.2037 0.14755,-0.3734 -0.0476,-0.4073 -0.37315,-1.0409 -1.02958,-1.8894 -0.65587,-0.8599 -1.36903,-1.6519 -2.12704,-2.376 -0.29414,-0.3507 -0.33983,-0.5544 -0.13612,-0.577 0.19228,-0.023 0.475,0.09 0.85957,0.3168 2.01385,1.4369 3.5865,3.0208 4.71793,4.7858 1.13144,1.7537 1.69706,3.3377 1.71972,4.7519 -0.019,0.3395 -0.2494,0.6902 -0.65587,0.9957 -0.40741,0.3168 -0.81483,0.4752 -1.25585,0.4865 -0.33983,0.046 -0.88241,-0.023 -1.60653,-0.1923 -0.7244,-0.1697 -1.76502,-0.4752 -3.06618,-0.9504 -1.54999,-0.6562 -3.49597,-1.4821 -5.83804,-2.3986 -2.3533,-0.9277 -4.75192,-1.8781 -7.19575,-2.8964 -0.27129,-0.09 -0.50927,-0.1131 -0.71297,-0.056 -0.20371,0.046 -0.30557,0.147 -0.31699,0.3168 0,0.3507 0.18086,0.8372 0.54354,1.4595 0.37315,0.6109 0.95,1.335 1.71971,2.1496 0.36173,0.396 0.45216,0.6676 0.28272,0.8034 -0.16944,0.1244 -0.44073,0.046 -0.85957,-0.2376 -1.74237,-1.403 -3.17927,-2.9643 -4.28805,-4.6954 -1.10878,-1.7197 -1.68573,-3.315 -1.71972,-4.7858 0.01,-0.3847 0.18087,-0.6902 0.45216,-0.9164 0.28272,-0.2263 0.61112,-0.362 0.97304,-0.43 m 0.78056,14.606 c 1.12011,0.034 2.26287,0.43 3.40554,1.1767 1.14276,0.7467 2.11571,1.7084 2.91902,2.8964 0.54354,0.758 1.01825,1.5274 1.4369,2.2854 0.40742,0.7693 0.81483,1.6292 1.25585,2.6135 0.0476,0.068 0.13612,0.1358 0.25987,0.1924 0.1247,0.068 0.23798,0.091 0.33983,0.056 1.27851,-0.2376 2.60232,-0.5204 4.01657,-0.8825 1.40292,-0.362 2.56824,-0.7015 3.46208,-1.0296 0.76914,-0.3281 1.30107,-0.6223 1.62919,-0.8939 0.32841,-0.2602 0.49785,-0.5204 0.48642,-0.7354 0.01,-0.5544 -0.21513,-1.1427 -0.71297,-1.8329 -0.49785,-0.6901 -1.3124,-1.4821 -2.43251,-2.3533 -0.38457,-0.3055 -0.53211,-0.5544 -0.43026,-0.6901 0.0952,-0.1358 0.41884,-0.068 0.9957,0.1697 1.70838,0.8485 3.1905,1.9686 4.41246,3.3829 1.2332,1.4143 1.86678,2.7041 1.92342,3.892 0.01,0.6563 -0.33983,1.3464 -1.06356,2.0366 -0.71298,0.6901 -1.86678,1.3237 -3.40554,1.9234 -0.83673,0.3167 -1.65184,0.6109 -2.46648,0.8825 -0.81484,0.2828 -1.62919,0.577 -2.4325,0.8598 -1.5953,0.5092 -2.38729,0.9617 -2.37596,1.403 0.01,0.1697 0.20371,0.3846 0.54354,0.6336 0.35125,0.2376 0.75771,0.4525 1.25585,0.6562 1.36903,0.6109 2.77195,1.2106 4.18619,1.7763 1.41435,0.5657 2.76072,1.1427 4.06179,1.7197 0.48642,0.2376 0.85957,0.5205 1.09745,0.826 0.22655,0.3055 0.33983,0.5431 0.33983,0.7241 -0.0381,0.9278 -0.2494,1.6293 -0.65586,2.0818 -0.40742,0.4526 -0.79199,0.6675 -1.14267,0.6336 -0.20371,0 -0.50927,-0.034 -0.95,-0.1132 -0.44169,-0.079 -0.98437,-0.2149 -1.62929,-0.4073 -4.19752,-1.2898 -8.71184,-2.7041 -13.5203,-4.2088 -4.80846,-1.5048 -9.18694,-2.8398 -13.11298,-4.0391 -3.93727,-1.188 -6.67524,-1.98 -8.22532,-2.342 -0.97295,-0.249 -1.66318,-0.2829 -2.09306,-0.091 -0.41883,0.1923 -0.74724,0.7241 -0.93953,1.5727 -0.0666,0.2376 -0.13612,0.4186 -0.22655,0.577 -0.0952,0.1584 -0.19229,0.2489 -0.29414,0.2603 -0.10185,-0.046 -0.16944,-0.1471 -0.24845,-0.3168 -0.0952,-0.1697 -0.14659,-0.3168 -0.18086,-0.4639 -0.19228,-1.5161 -0.41884,-3.0095 -0.65586,-4.4917 -0.22656,-1.4708 -0.45216,-2.5343 -0.65587,-3.1792 -0.0666,-0.2489 -0.11327,-0.4639 -0.14754,-0.6336 -0.0381,-0.1584 -0.019,-0.2941 -0.019,-0.4525 0.01,-0.1584 0.14755,-0.2603 0.43026,-0.2603 0.28272,0 0.5997,0.1019 0.97304,0.2603 1.7537,0.5997 4.27672,1.4482 7.5351,2.5456 3.24714,1.1088 6.51694,2.2063 9.78673,3.2924 3.28103,1.0975 5.82672,1.9121 7.64828,2.4665 0.16944,0.034 0.29414,0.023 0.37315,-0.056 0.0761,-0.079 0.0381,-0.181 -0.11328,-0.3168 -1.28973,-1.0974 -2.40984,-2.2402 -3.3489,-3.4394 -0.95,-1.188 -1.70848,-2.3986 -2.31941,-3.6092 -0.36173,-0.6336 -0.65586,-1.3125 -0.85957,-2.0592 -0.20371,-0.7468 -0.31699,-1.3803 -0.31699,-1.9121 -0.01,-0.7806 0.15802,-1.4821 0.50927,-2.0704 0.3503,-0.5883 0.92811,-0.8825 1.69706,-0.9164 m 2.37596,5.5552 c -0.31699,0.046 -0.61113,0.1923 -0.89384,0.3733 -0.36173,0.2603 -0.57686,0.6562 -0.5997,1.2332 -0.0571,0.8712 0.52069,2.0479 1.71971,3.53 1.19931,1.4708 3.39421,2.8512 6.56216,4.2089 0.18086,0.1018 0.38457,0.1244 0.62254,0.023 0.24845,-0.1019 0.38457,-0.3281 0.40742,-0.7128 -0.10186,-1.6631 -0.92811,-3.4734 -2.46649,-5.442 -1.53866,-1.9687 -3.20183,-3.0322 -5.01207,-3.2132 -0.11327,0 -0.23797,-0.012 -0.33983,0 m -2.26277,19.3923 c 0.11327,-0.011 0.22655,0.01 0.33983,0.034 0.44168,0.056 0.95,0.3281 1.5161,0.8825 0.57685,0.5544 0.87099,1.0296 0.91668,1.3803 0,0.249 -0.019,0.4526 -0.11327,0.6223 -0.0762,0.1811 -0.23798,0.3621 -0.45216,0.5771 -0.43026,0.4299 -0.88241,0.9617 -1.38036,1.5726 -0.48642,0.6223 -0.78056,1.2672 -0.82625,1.9234 0.01,0.4639 0.20371,0.8599 0.57685,1.1993 0.36173,0.3394 0.85957,0.5317 1.48222,0.543 0.5997,0.046 1.39159,-0.181 2.3533,-0.6562 0.95,-0.4752 2.39861,-1.4482 4.32194,-2.953 0.97304,-0.6788 1.91209,-1.2219 2.86247,-1.5726 0.95001,-0.3507 1.87811,-0.4865 2.7493,-0.4299 1.16532,0.09 2.26287,0.577 3.32634,1.4369 1.05224,0.8485 2.01395,1.9121 2.86248,3.2019 0.75771,1.1992 1.28983,2.2854 1.60662,3.2923 0.30556,1.007 0.46358,1.8895 0.45216,2.6362 -0.0381,1.2106 -0.41884,2.1949 -1.14276,2.919 -0.72441,0.7242 -1.58398,1.0975 -2.54559,1.1428 -0.45311,0.01 -0.97304,-0.091 -1.58397,-0.3055 -0.61113,-0.2263 -1.13144,-0.577 -1.5161,-1.0975 -0.0571,-0.1018 -0.0476,-0.2489 0,-0.4298 0.0571,-0.1698 0.1247,-0.3168 0.25987,-0.4187 0.73582,-0.5544 1.58397,-1.2898 2.54568,-2.2062 0.96171,-0.9278 1.5161,-2.0592 1.60663,-3.4169 -0.019,-0.7806 -0.28272,-1.4147 -0.74725,-1.8899 -0.46358,-0.4752 -1.01825,-0.7014 -1.71971,-0.6788 -0.5997,-0.01 -1.3124,0.1811 -2.14969,0.5431 -0.82626,0.362 -1.87811,0.939 -3.08875,1.7763 -1.516,1.1088 -2.74929,1.8894 -3.68835,2.3194 -0.95,0.4186 -1.78758,0.6222 -2.50037,0.5996 -0.70155,0.011 -1.61795,-0.2376 -2.71541,-0.7468 -1.10878,-0.5091 -2.22889,-1.4256 -3.34899,-2.6927 -0.84815,-0.9957 -1.48212,-1.9913 -1.92333,-2.9756 -0.44168,-0.9957 -0.65586,-1.799 -0.65586,-2.4326 -0.01,-0.6901 0.1247,-1.335 0.33983,-1.9233 0.22655,-0.5883 0.57685,-1.0636 1.08612,-1.4369 0.16944,-0.1244 0.36173,-0.2263 0.57686,-0.2828 0.10185,-0.023 0.20371,-0.046 0.31698,-0.056 z m -0.57686,17.6159 c 0.1247,-0.011 0.2713,0 0.40742,0.023 0.81483,0.2489 2.1949,0.7354 4.17487,1.4369 1.97996,0.7014 4.16354,1.4708 6.50561,2.3194 2.34197,0.8372 4.43512,1.5952 6.32456,2.2628 0.3503,0.1245 0.57685,0.147 0.69013,0.056 0.11328,-0.09 0.18086,-0.2602 0.16944,-0.4638 -0.019,-0.7015 -0.39599,-1.5279 -1.05224,-2.4556 -0.66728,-0.9391 -1.47079,-1.7764 -2.44383,-2.557 -0.2494,-0.1924 -0.31698,-0.3621 -0.22655,-0.4865 0.0952,-0.1132 0.30556,-0.1132 0.63397,-0.023 0.16944,0.068 0.35125,0.1358 0.56543,0.2603 0.22656,0.1131 0.43026,0.2376 0.63397,0.3733 1.81024,1.154 3.38288,2.6927 4.72926,4.5822 1.33505,1.8781 2.04784,3.7449 2.11571,5.6118 -0.01,0.5091 -0.1466,0.8938 -0.396,1.1427 -0.24844,0.2489 -0.53211,0.3733 -0.83672,0.3394 -0.40742,-0.011 -1.40292,-0.2941 -2.97566,-0.8598 -1.57264,-0.5544 -3.54128,-1.3124 -5.92857,-2.2289 -0.18086,-0.068 -0.28271,-0.079 -0.37314,-0.034 -0.0952,0.056 -0.0666,0.1584 0.11327,0.2942 3.79021,3.0548 6.49429,5.657 8.07826,7.818 1.5952,2.161 2.36463,3.9147 2.31932,5.2723 -0.01,0.5658 -0.25987,1.0749 -0.7463,1.5161 -0.48642,0.43 -1.17674,0.6563 -2.08181,0.6788 -1.0748,-0.023 -2.34198,-0.3506 -3.79021,-0.9956 -1.4369,-0.6449 -2.8738,-1.4708 -4.28805,-2.4325 -1.58397,-1.0409 -3.08874,-2.2289 -4.55953,-3.6092 -1.47089,-1.3916 -2.9077,-2.953 -4.32194,-4.6953 -1.08622,-1.3577 -2.01395,-2.6588 -2.71541,-3.926 -0.71298,-1.2672 -1.06356,-2.1271 -1.09745,-2.5457 0.01,-0.3508 0.0761,-0.6222 0.23797,-0.8598 0.1466,-0.249 0.33888,-0.5318 0.54259,-0.8033 0,-0.012 0,-0.056 0,-0.1471 0,-0.09 -0.0571,-0.1811 -0.14659,-0.2603 -0.79199,-0.4752 -1.33505,-0.8372 -1.62929,-1.1087 -0.30556,-0.2716 -0.45215,-0.5092 -0.43026,-0.6902 0.01,-0.4073 0.10186,-0.8146 0.28272,-1.2558 0.18086,-0.4526 0.41884,-0.8486 0.69013,-1.1767 0.0761,-0.1132 0.21513,-0.2036 0.45311,-0.2941 0.1247,-0.034 0.24845,-0.079 0.37315,-0.079 m 3.75631,6.5508 c -0.1247,0.023 -0.21513,0.056 -0.31698,0.1244 -0.0952,0.1358 -0.25987,0.4412 -0.45311,0.8599 -0.20371,0.4073 -0.32841,0.8712 -0.3503,1.4029 0.01,0.9617 0.33888,1.9121 0.97294,2.8285 0.63397,0.9164 1.52743,1.8216 2.67019,2.7267 1.33505,1.0749 2.95291,2.0365 4.865,2.8851 1.9121,0.8599 3.81286,1.3351 5.7023,1.3803 0.44169,0.011 0.85957,-0.1018 1.22187,-0.2941 0.37315,-0.1811 0.55401,-0.4979 0.57685,-0.9391 -0.0476,-0.543 -0.33983,-1.188 -0.91668,-1.9234 -0.57686,-0.7354 -1.15409,-1.392 -1.77635,-2.003 -1.90077,-1.7763 -3.85808,-3.2132 -5.83804,-4.2994 -1.97997,-1.0748 -3.98259,-1.9686 -5.98511,-2.6814 -0.13613,-0.068 -0.2494,-0.079 -0.37315,-0.068 m -4.26549,14.663 c 0.0761,0 0.22655,0.1019 0.43026,0.3168 0.19229,0.2263 0.31699,0.5771 0.39599,1.0975 0.0666,0.7241 0.1466,1.5048 0.20371,2.342 0.0476,0.8372 0.0571,1.403 0.0571,1.7197 0.01,0.1358 0.13612,0.2603 0.33983,0.3734 0.2037,0.1131 0.39599,0.2149 0.57685,0.2828 1.61796,0.5544 3.84675,1.3351 6.6979,2.3194 2.85115,0.9843 5.71362,1.9234 8.58743,2.8398 0.27129,0.068 0.52069,0.079 0.7244,0.023 0.20371,-0.046 0.30556,-0.2037 0.31698,-0.43 0.01,-0.3395 -0.23797,-0.9278 -0.74724,-1.799 -0.50927,-0.8711 -1.36903,-1.8555 -2.54569,-3.0095 -0.50927,-0.5092 -0.554,-0.7693 -0.14659,-0.7128 0.40742,0.046 0.80341,0.1697 1.17665,0.3733 2.18367,1.5953 3.99391,3.4282 5.44205,5.4987 1.4369,2.0591 2.17234,3.6884 2.22889,4.899 -0.01,0.4978 -0.18087,0.9164 -0.54354,1.2785 -0.36173,0.3733 -0.81483,0.5657 -1.38036,0.577 -0.52069,-0.01 -1.154,-0.1132 -1.85546,-0.2828 -0.70155,-0.1811 -1.23319,-0.3395 -1.62918,-0.4865 l -16.38278,-5.5326 c -0.14755,-0.034 -0.29414,-0.034 -0.43026,0 -0.1466,0.034 -0.22656,0.079 -0.22656,0.1697 l 0,2.5796 c -0.019,0.2603 -0.0952,0.4639 -0.23797,0.5771 -0.1466,0.1131 -0.25987,0.1357 -0.33983,0.1357 -0.15802,-0.023 -0.30557,-0.1471 -0.40742,-0.396 -0.0952,-0.2489 -0.13612,-0.4752 -0.16944,-0.6336 -0.0381,-0.181 -0.10185,-0.5317 -0.16944,-1.0861 -0.0666,-0.5544 -0.13612,-1.1654 -0.16944,-1.8555 -0.0476,-0.1019 -0.11327,-0.2036 -0.22655,-0.2942 -0.11328,-0.079 -0.21513,-0.1357 -0.29414,-0.1697 -0.89384,-0.3733 -1.7537,-0.8033 -2.60223,-1.2559 -0.8491,-0.4525 -1.52742,-0.8372 -1.97996,-1.1427 -0.44168,-0.3621 -0.88242,-0.9164 -1.31249,-1.6971 -0.43026,-0.7806 -0.63397,-1.5953 -0.65586,-2.4325 0.0476,-0.3055 0.27129,-0.4752 0.71298,-0.4865 0.44073,-0.01 0.81483,0.034 1.08612,0.1131 0.96171,0.2376 1.87811,0.4752 2.7493,0.7467 0.87099,0.2716 1.52742,0.4866 2.00262,0.6563 0.25987,0.056 0.40741,0.023 0.40741,-0.1132 0,-0.6109 -0.01,-1.2785 -0.0381,-2.0026 -0.01,-0.7354 -0.019,-1.5613 -0.019,-2.4664 0,-0.1358 0.019,-0.2603 0.0762,-0.396 0.0666,-0.1471 0.15802,-0.2263 0.29414,-0.2376" />
      <path
         id="path462-6-5-2"
         style="fill:#e30073;fill-opacity:1;fill-rule:nonzero;stroke:none;display:inline"
         d="m 976.03762,523.49207 -53.83219,0 0,-45.7201 53.83219,0 0,45.7201 z"
         inkscape:connector-curvature="0" />
      <path
         id="path464-0-7-2"
         style="fill:#e30073;fill-opacity:1;fill-rule:nonzero;stroke:none;display:inline"
         d="m 976.03762,396.11847 -53.83219,0 0,-45.7201 53.83219,0 0,45.7201 z"
         inkscape:connector-curvature="0" />
      <path
         id="path466-8-6-1"
         style="fill:#e30073;fill-opacity:1;fill-rule:nonzero;stroke:none;display:inline"
         d="m 587.51299,350.39837 71.05226,0 0,109.4069 -71.05226,0 0,-109.4069 z"
         inkscape:connector-curvature="0" />
      <path
         id="path468-5-8-6"
         style="fill:#e30073;fill-opacity:1;fill-rule:nonzero;stroke:none;display:inline"
         d="m 697.44033,459.80527 -53.83228,0 0,-45.7201 53.83228,0 0,45.7201 z"
         inkscape:connector-curvature="0" />
      <path
         id="path470-5-4-8"
         style="fill:#e30073;fill-opacity:1;fill-rule:nonzero;stroke:none;display:inline"
         d="m 697.44033,396.11847 -53.83228,0 0,-45.7201 53.83228,0 0,45.7201 z"
         inkscape:connector-curvature="0" />
      <path
         id="path472-6-1-5"
         style="fill:#e30073;fill-opacity:1;fill-rule:nonzero;stroke:none;display:inline"
         d="m 697.44033,414.08517 -71.05226,0 0,109.4069 71.05226,0 0,-109.4069 z"
         inkscape:connector-curvature="0" />
      <path
         id="path474-3-5-7"
         style="fill:#e30073;fill-opacity:1;fill-rule:nonzero;stroke:none;display:inline"
         d="m 587.51299,523.49207 53.83228,0 0,-45.7201 -53.83228,0 0,45.7201 z"
         inkscape:connector-curvature="0" />
      <path
         id="path476-5-7-6"
         style="fill:#e30073;fill-opacity:1;fill-rule:nonzero;stroke:none;display:inline"
         d="m 587.51299,459.80527 53.83228,0 0,-45.7201 -53.83228,0 0,45.7201 z"
         inkscape:connector-curvature="0" />
      <path
         inkscape:connector-curvature="0"
         id="path486-9-4-1"
         style="fill:#0c141a;fill-opacity:1;fill-rule:nonzero;stroke:none;display:inline"
         d="m 397.08618,524.22747 158.28361,0 0,-173.0937 -158.28361,0 0,173.0937 z m 25.96572,-148.0557 c 0.25987,-0.023 0.52069,-0.011 0.78056,0 2.04784,0.046 4.11833,0.8712 5.72495,2.4891 l 29.60885,29.6089 c 4.97818,-3.0322 10.82755,-4.7859 17.07291,-4.7859 6.23403,0 12.04951,1.7424 17.00504,4.7633 l 0.0381,0 29.58628,-29.5863 c 1.60663,-1.6179 3.69968,-2.4438 5.75884,-2.4891 2.04784,-0.056 4.07311,0.6901 5.61178,2.2289 3.07741,3.0774 2.98698,8.1461 -0.23798,11.3706 l -29.6315,29.6089 c 2.97518,4.9442 4.69489,10.7597 4.69489,16.9598 0,6.234 -1.74237,12.0721 -4.75191,17.0389 l 0,0.023 29.68814,29.6767 c 3.22448,3.2132 3.31501,8.2932 0.23797,11.3707 -3.07751,3.0774 -8.15745,2.9869 -11.3707,-0.2376 l -29.73326,-29.756 c -4.93297,2.9756 -10.70314,4.7067 -16.89196,4.7067 -6.20005,0 -12.0042,-1.7198 -16.95973,-4.7067 l -29.72202,29.756 c -3.22449,3.2245 -8.2932,3.315 -11.37062,0.2376 -3.07741,-3.0775 -2.93034,-8.1575 0.28272,-11.3707 l 29.67681,-29.6767 0,-0.023 c -3.02087,-4.9668 -4.75191,-10.8049 -4.75191,-17.0389 0,-6.2001 1.70838,-12.0156 4.69527,-16.9598 l -29.62017,-29.6089 c -3.21316,-3.2245 -3.36023,-8.2932 -0.28272,-11.3706 1.34638,-1.3464 3.07742,-2.1044 4.86501,-2.2289 m 53.18736,37.4269 c -12.55859,0 -22.74122,10.1713 -22.74122,22.7413 0,12.5586 10.18263,22.7412 22.74122,22.7412 12.55859,0 22.70734,-10.1826 22.70734,-22.7412 0,-12.57 -10.14875,-22.7413 -22.70734,-22.7413 m 0,7.4447 c 8.44036,0 15.26267,6.8563 15.26267,15.2966 0,8.4289 -6.82231,15.2626 -15.26267,15.2626 -8.44026,0 -15.29656,-6.8337 -15.29656,-15.2626 0,-8.4403 6.8563,-15.2966 15.29656,-15.2966 m -0.80341,6.5621 1.55009,0 0,-5.295 -1.55009,0 0,5.295 z m 9.59436,-1.1767 -2.63621,2.6023 1.08622,1.1201 2.63612,-2.6362 -1.08613,-1.0862 z m -8.79104,2.2629 c -4.22009,0 -7.64828,3.4281 -7.64828,7.6483 0,4.2201 3.42819,7.6143 7.64828,7.6143 4.22018,0 7.61439,-3.3942 7.61439,-7.6143 0,-4.2202 -3.39421,-7.6483 -7.61439,-7.6483 m -14.06337,8.4176 5.29498,0 0,-1.55 -5.29498,0 0,1.55 z m 22.76388,0 5.29498,0 0,-1.55 -5.29498,0 0,1.55 z m -16.00934,5.4081 -2.62488,2.6136 1.08612,1.1201 2.63621,-2.6362 -1.09745,-1.0975 z m 6.50551,7.852 1.55009,0 0,-5.3289 -1.55009,0 0,5.3289 z m 0.80341,32.1885 c 3.08875,0 5.58921,2.5004 5.58921,5.5891 0,2.1271 -1.1993,3.9826 -2.953,4.9216 l 0,6.2454 c 0,1.5953 -1.16532,2.8624 -2.63621,2.8624 -1.47079,0 -2.65877,-1.2671 -2.65877,-2.8624 l 0,-6.2454 c -1.76502,-0.939 -2.953,-2.7945 -2.953,-4.9216 0,-3.0887 2.52303,-5.5891 5.61177,-5.5891" />
      <path
         id="path488-3-6-8"
         style="fill:#0c141a;fill-opacity:1;fill-rule:nonzero;stroke:none;display:inline"
         d="m 388.38568,369.14577 13.93885,0 0,41.8167 -13.93885,0 0,-41.8167 z"
         inkscape:connector-curvature="0" />
      <path
         id="path490-2-6-9"
         style="fill:#0c141a;fill-opacity:1;fill-rule:nonzero;stroke:none;display:inline"
         d="m 388.38568,463.98017 13.93885,0 0,41.8167 -13.93885,0 0,-41.8167 z"
         inkscape:connector-curvature="0" />
      <path
         inkscape:connector-curvature="0"
         id="path500-5-9-2"
         style="fill:#0c141a;fill-opacity:1;fill-rule:nonzero;stroke:none;display:inline"
         d="m 911.73989,579.80217 2.31941,0 0,-4.0052 -2.31941,0 0,4.0052 z m -459.56557,-3.2358 c -0.36172,0 -0.63397,0.09 -0.80341,0.2376 -0.15801,0.147 -0.22655,0.3168 -0.22655,0.543 0,0.2263 0.0666,0.4187 0.22655,0.5657 0.16944,0.1471 0.44169,0.2376 0.80341,0.2376 l 2.09305,0 0,20.1051 -1.74237,0 c -0.37314,0 -0.64539,0.079 -0.80341,0.2263 -0.15801,0.1357 -0.22655,0.3054 -0.22655,0.543 0,0.215 0.0666,0.4187 0.22655,0.5771 0.15802,0.1471 0.43027,0.1924 0.80341,0.1924 l 5.06871,0 c 0.36173,0 0.63397,-0.046 0.80341,-0.1924 0.15802,-0.1584 0.22655,-0.362 0.22655,-0.5771 0,-0.2376 -0.0666,-0.4073 -0.22655,-0.543 -0.16944,-0.1471 -0.44168,-0.2263 -0.80341,-0.2263 l -1.77635,0 0,-9.8545 c 1.33514,-1.4709 2.30809,-2.3873 2.88513,-2.7833 0.80341,-0.5544 1.76503,-0.8259 2.89637,-0.8259 1.44823,0 2.56833,0.362 3.38298,1.1201 0.8034,0.7468 1.19921,1.6745 1.19921,2.8059 l 0,9.5378 -1.71972,0 c -0.38457,0 -0.66728,0.079 -0.82625,0.2262 -0.15802,0.1358 -0.22656,0.3055 -0.22656,0.5431 0,0.2149 0.0666,0.4186 0.22656,0.577 0.15801,0.1471 0.44168,0.1924 0.82625,0.1924 l 5.04606,0 c 0.38457,0 0.64444,-0.046 0.80341,-0.1924 0.14659,-0.1584 0.22655,-0.362 0.22655,-0.577 0,-0.2376 -0.0761,-0.4073 -0.22655,-0.5431 -0.15802,-0.147 -0.41884,-0.2262 -0.80341,-0.2262 l -1.7537,0 0,-9.6509 c 0,-0.9844 -0.25987,-1.9008 -0.82625,-2.7833 -0.56544,-0.8825 -1.27851,-1.5274 -2.11571,-1.946 -0.84815,-0.43 -1.88944,-0.6562 -3.10007,-0.6562 -1.12011,0 -2.12704,0.2149 -3.0322,0.6562 -0.90527,0.4412 -1.87811,1.188 -2.86248,2.2628 l 0,-9.5717 -3.64304,0 z m 145.77022,0 c -0.37314,0 -0.63397,0.09 -0.79198,0.2376 -0.16944,0.147 -0.25987,0.3168 -0.25987,0.543 0,0.2263 0.0952,0.4187 0.25987,0.5657 0.15801,0.1471 0.41884,0.2376 0.79198,0.2376 l 2.09315,0 0,8.7571 c -1.84422,-2.4665 -4.12965,-3.6884 -6.84506,-3.6884 -1.41425,0 -2.77195,0.3847 -4.06169,1.1427 -1.28983,0.7468 -2.31941,1.799 -3.06609,3.1793 -0.74629,1.3803 -1.12011,2.8172 -1.12011,4.2993 0,1.4596 0.37315,2.8851 1.12011,4.2654 0.7463,1.3804 1.77626,2.4552 3.06609,3.2019 1.28974,0.7468 2.62488,1.1201 4.03913,1.1201 2.77195,0 5.06871,-1.2559 6.86762,-3.7223 l 0,3.0887 3.64313,0 c 0.37315,0 0.63397,-0.046 0.80341,-0.1924 0.15802,-0.1584 0.24845,-0.362 0.24845,-0.577 0,-0.2376 -0.0952,-0.4073 -0.24845,-0.5431 -0.16944,-0.147 -0.43026,-0.2262 -0.80341,-0.2262 l -2.07049,0 0,-21.6891 -3.66579,0 z m 53.24401,0 c -0.38457,0 -0.66729,0.09 -0.82625,0.2376 -0.16944,0.147 -0.23798,0.3168 -0.23798,0.543 0,0.2263 0.0666,0.4187 0.23798,0.5657 0.15801,0.1471 0.44168,0.2376 0.82625,0.2376 l 2.05916,0 0,8.7571 c -1.84422,-2.4665 -4.12965,-3.6884 -6.84506,-3.6884 -1.41424,0 -2.77195,0.3847 -4.06169,1.1427 -1.28983,0.7468 -2.31941,1.799 -3.06618,3.1793 -0.74629,1.3803 -1.12011,2.8172 -1.12011,4.2993 0,1.4596 0.37315,2.8851 1.12011,4.2654 0.74725,1.3804 1.77635,2.4552 3.06618,3.2019 1.28974,0.7468 2.62479,1.1201 4.03904,1.1201 2.77195,0 5.06871,-1.2559 6.86771,-3.7223 l 0,3.0887 3.64304,0 c 0.38457,0 0.66729,-0.046 0.82626,-0.1924 0.15801,-0.1584 0.22655,-0.362 0.22655,-0.577 0,-0.2376 -0.0666,-0.4073 -0.22655,-0.5431 -0.15802,-0.147 -0.44169,-0.2262 -0.82626,-0.2262 l -2.07039,0 0,-21.6891 -3.63181,0 z m 45.24486,1.5839 c -0.21514,0 -0.41884,0.091 -0.56544,0.2489 -0.14659,0.1698 -0.2037,0.4074 -0.2037,0.7807 l 0,4.6048 -2.89646,0 c -0.36173,0 -0.61113,0.056 -0.76914,0.2036 -0.15802,0.1471 -0.25987,0.3508 -0.25987,0.5771 0,0.2262 0.10185,0.4186 0.25987,0.5657 0.15801,0.1471 0.40741,0.2263 0.76914,0.2263 l 2.89646,0 0,10.341 c 0,1.4482 0.53211,2.5909 1.60662,3.4395 1.0748,0.8485 2.5117,1.2898 4.32194,1.2898 1.39159,0 2.86248,-0.2376 4.37848,-0.7128 1.52743,-0.4752 2.46649,-0.9164 2.86248,-1.3238 0.16944,-0.1583 0.25987,-0.3281 0.25987,-0.5091 0,-0.215 -0.0761,-0.4187 -0.22655,-0.5771 -0.1466,-0.1584 -0.31699,-0.2262 -0.5207,-0.2262 -0.15801,0 -0.3503,0.09 -0.5997,0.2602 -0.67871,0.3847 -1.64051,0.7355 -2.86247,1.0522 -1.22187,0.3168 -2.35331,0.4639 -3.40554,0.4639 -1.39159,0 -2.45516,-0.2828 -3.17927,-0.8939 -0.7244,-0.5996 -1.06347,-1.3577 -1.06347,-2.2628 l 0,-10.341 8.41761,0 c 0.37314,0 0.64444,-0.079 0.80341,-0.2263 0.15801,-0.1471 0.23797,-0.3508 0.23797,-0.5657 0,-0.2376 -0.0761,-0.4299 -0.23797,-0.5771 -0.15802,-0.147 -0.43027,-0.2036 -0.80341,-0.2036 l -8.41761,0 0,-4.6048 c 0,-0.3733 -0.0762,-0.6109 -0.22656,-0.7806 -0.14659,-0.1584 -0.33983,-0.249 -0.57685,-0.249 m 239.48461,0 c -0.22656,0 -0.43026,0.091 -0.57686,0.249 -0.14659,0.1697 -0.22655,0.4073 -0.22655,0.7806 l 0,4.6048 -2.86248,0 c -0.37314,0 -0.64444,0.056 -0.80341,0.2036 -0.15801,0.1471 -0.22655,0.3508 -0.22655,0.5771 0,0.2263 0.0666,0.4186 0.22655,0.5657 0.15802,0.1471 0.43027,0.2263 0.80341,0.2263 l 2.86248,0 0,10.341 c 0,1.4482 0.55401,2.5909 1.62928,3.4395 1.0748,0.8485 2.5117,1.2898 4.32194,1.2898 1.40292,0 2.86248,-0.2376 4.38981,-0.7128 1.5161,-0.4752 2.46648,-0.9164 2.86248,-1.3237 0.15801,-0.1584 0.25987,-0.3282 0.25987,-0.5092 0,-0.215 -0.0952,-0.4187 -0.23798,-0.5771 -0.14659,-0.1584 -0.31698,-0.2262 -0.50927,-0.2262 -0.16944,0 -0.36172,0.09 -0.5997,0.2602 -0.67871,0.3847 -1.65184,0.7355 -2.8738,1.0522 -1.22187,0.3168 -2.35331,0.4639 -3.40554,0.4639 -1.39159,0 -2.45516,-0.2828 -3.17918,-0.8938 -0.7244,-0.5996 -1.08622,-1.3577 -1.08622,-2.2629 l 0,-10.341 8.45159,0 c 0.36173,0 0.63397,-0.079 0.80341,-0.2263 0.15802,-0.147 0.22656,-0.3508 0.22656,-0.5657 0,-0.2376 -0.0666,-0.4299 -0.22656,-0.577 -0.16944,-0.1471 -0.44168,-0.2036 -0.80341,-0.2036 l -8.45159,0 0,-4.6049 c 0,-0.3733 -0.0571,-0.6109 -0.20371,-0.7806 -0.14659,-0.1584 -0.33983,-0.2489 -0.56543,-0.2489 m -528.46824,5.0687 c -2.47771,0 -4.5482,0.8146 -6.2227,2.4325 -1.6745,1.6179 -2.48904,3.5526 -2.48904,5.8154 0,2.4778 0.88241,4.5822 2.65876,6.3246 1.78759,1.7423 4.01648,2.6361 6.67534,2.6361 1.5952,0 3.15662,-0.2715 4.67262,-0.8033 1.50477,-0.5317 2.55701,-1.1314 3.14538,-1.7423 0.20371,-0.2037 0.29414,-0.396 0.29414,-0.611 0,-0.2036 -0.0952,-0.3846 -0.23797,-0.543 -0.1466,-0.1471 -0.31699,-0.2263 -0.50927,-0.2263 -0.18086,0 -0.37315,0.079 -0.5997,0.2602 -0.80341,0.6336 -1.85555,1.1314 -3.12273,1.5161 -1.27841,0.3847 -2.47772,0.5771 -3.64304,0.5771 -2.08182,0 -3.82419,-0.611 -5.23843,-1.8329 -1.41425,-1.2332 -2.27411,-2.8625 -2.54569,-4.8764 l 15.86228,0 c 0.019,-2.6361 -0.79199,-4.7745 -2.4325,-6.4377 -1.64052,-1.6631 -3.73366,-2.4891 -6.26802,-2.4891 m 27.77605,0 c -1.09745,0 -2.10438,0.2037 -2.97556,0.6223 -0.88242,0.4187 -1.84423,1.1993 -2.93035,2.2968 l 0,-2.3534 -2.88513,0 c -0.37315,0 -0.61113,0.056 -0.78057,0.2036 -0.15801,0.1471 -0.2494,0.3508 -0.2494,0.5771 0,0.2263 0.0952,0.4186 0.2494,0.5657 0.16944,0.1471 0.40742,0.2263 0.78057,0.2263 l 1.31249,0 0,12.898 -1.74237,0 c -0.37315,0 -0.6454,0.079 -0.80341,0.2263 -0.15802,0.1357 -0.22656,0.3054 -0.22656,0.543 0,0.215 0.0666,0.4187 0.22656,0.5771 0.15801,0.147 0.43026,0.1924 0.80341,0.1924 l 5.06871,0 c 0.36172,0 0.63396,-0.046 0.8034,-0.1924 0.15802,-0.1584 0.22656,-0.362 0.22656,-0.5771 0,-0.2376 -0.0666,-0.4073 -0.22656,-0.543 -0.16944,-0.1471 -0.44168,-0.2263 -0.8034,-0.2263 l -1.7537,0 0,-9.7753 c 1.40292,-1.6406 2.45516,-2.6475 3.21316,-3.0548 0.74724,-0.4187 1.64051,-0.6336 2.65877,-0.6336 1.34637,0 2.43259,0.3846 3.23581,1.1427 0.80341,0.758 1.21063,1.6858 1.21063,2.7833 l 0,9.5377 -1.32372,0 c -0.38457,0 -0.63397,0.079 -0.8034,0.2263 -0.15802,0.1357 -0.22656,0.3054 -0.22656,0.543 0,0.215 0.0666,0.4187 0.22656,0.5771 0.16943,0.147 0.41883,0.1924 0.8034,0.1924 l 4.1862,0 c 0.36173,0 0.63397,-0.046 0.80341,-0.1924 0.15802,-0.1584 0.22655,-0.362 0.22655,-0.5771 0,-0.2376 -0.0666,-0.4073 -0.22655,-0.543 -0.16944,-0.1471 -0.44168,-0.2263 -0.80341,-0.2263 l -1.32372,0 0,-9.798 c 0,-0.9051 -0.25987,-1.7763 -0.82625,-2.6361 -0.56544,-0.8599 -1.19931,-1.4596 -1.88944,-1.8329 -0.97304,-0.5091 -2.04784,-0.7694 -3.23582,-0.7694 m 52.14646,0 c -0.98427,0 -2.45515,0.249 -4.37848,0.7694 -1.22196,0.3168 -1.92342,0.5884 -2.09315,0.7693 -0.1247,0.1244 -0.2037,0.2828 -0.2037,0.4865 0,0.2263 0.0952,0.4299 0.23797,0.5771 0.13613,0.147 0.31699,0.2036 0.50927,0.2036 0.11328,0 0.3503,-0.056 0.7463,-0.1697 2.18357,-0.7128 3.89206,-1.0636 5.10259,-1.0636 1.57265,0 2.76063,0.3168 3.55261,0.9391 0.78057,0.6336 1.16542,1.3916 1.16542,2.2402 l 0,2.523 c -0.97304,-0.2036 -1.8782,-0.3733 -2.71541,-0.4639 -0.83767,-0.09 -1.60662,-0.1131 -2.31941,-0.1131 -2.65877,0 -4.66139,0.5317 -6.04165,1.6631 -1.38036,1.1201 -2.09315,2.4439 -2.09315,3.9486 0,1.369 0.52069,2.5231 1.57265,3.4621 1.05223,0.9504 2.52302,1.4369 4.37857,1.4369 2.56825,0 4.96686,-0.9617 7.2184,-2.8624 l 0,2.2288 3.6657,0 c 0.38457,0 0.64444,-0.046 0.8034,-0.1923 0.15802,-0.1584 0.25988,-0.362 0.25988,-0.5771 0,-0.2376 -0.10186,-0.4073 -0.25988,-0.543 -0.15801,-0.1471 -0.41883,-0.2263 -0.8034,-0.2263 l -2.08182,0 0,-10.2845 c 0,-1.2219 -0.54259,-2.3307 -1.64052,-3.2924 -1.09745,-0.973 -2.61355,-1.4595 -4.58219,-1.4595 m 27.66287,0 c -1.09745,0 -2.07049,0.2036 -2.94168,0.6223 -0.88241,0.4186 -1.86678,1.1993 -2.95291,2.2967 l 0,-2.3533 -2.86247,0 c -0.37315,0 -0.64444,0.056 -0.80341,0.2036 -0.15802,0.1471 -0.22655,0.3508 -0.22655,0.5771 0,0.2262 0.0666,0.4186 0.22655,0.5657 0.15802,0.147 0.43026,0.2262 0.80341,0.2262 l 1.31239,0 0,12.8981 -1.77626,0 c -0.36172,0 -0.63396,0.079 -0.79198,0.2262 -0.16944,0.1358 -0.23798,0.3055 -0.23798,0.5431 0,0.2149 0.0666,0.4186 0.23798,0.577 0.15802,0.1471 0.43026,0.1924 0.79198,0.1924 l 5.06871,0 c 0.37315,0 0.64444,-0.046 0.80341,-0.1924 0.15802,-0.1584 0.25987,-0.362 0.25987,-0.577 0,-0.2376 -0.10185,-0.4073 -0.25987,-0.5431 -0.15801,-0.147 -0.43026,-0.2262 -0.80341,-0.2262 l -1.74237,0 0,-9.7754 c 1.3916,-1.6405 2.45516,-2.6475 3.21316,-3.0548 0.7463,-0.4186 1.62929,-0.6336 2.65887,-0.6336 1.34628,0 2.4325,0.3847 3.23581,1.1428 0.80341,0.758 1.19921,1.6858 1.19921,2.7832 l 0,9.5378 -1.28973,0 c -0.37315,0 -0.66729,0.079 -0.82626,0.2262 -0.15802,0.1358 -0.22655,0.3055 -0.22655,0.5431 0,0.2149 0.0666,0.4186 0.22655,0.577 0.15802,0.1471 0.45216,0.1924 0.82626,0.1924 l 4.15221,0 c 0.37315,0 0.64539,-0.046 0.80341,-0.1924 0.15801,-0.1584 0.22655,-0.362 0.23797,-0.577 -0.01,-0.2376 -0.0761,-0.4073 -0.23797,-0.5431 -0.15802,-0.147 -0.43026,-0.2262 -0.80341,-0.2262 l -1.31239,0 0,-9.798 c 0,-0.9052 -0.2713,-1.7763 -0.83768,-2.6362 -0.55401,-0.8598 -1.18798,-1.4595 -1.88944,-1.8329 -0.97294,-0.509 -2.04783,-0.7693 -3.23581,-0.7693 m 26.23729,0 c -2.50037,0 -4.59352,0.8372 -6.24536,2.4891 -1.64052,1.6519 -2.45516,3.7336 -2.45516,6.2454 0,2.4551 0.79199,4.469 2.39861,6.0643 1.61796,1.6066 3.67703,2.4099 6.18882,2.4099 2.46639,0 4.68395,-0.6563 6.6979,-1.98 1.24452,-0.8146 1.88944,-1.5047 1.88944,-2.0252 0,-0.2149 -0.0762,-0.3733 -0.22656,-0.5204 -0.13612,-0.1471 -0.30556,-0.2263 -0.50927,-0.2263 -0.20371,0 -0.43026,0.1245 -0.69013,0.3734 -1.01825,0.9843 -2.16102,1.6971 -3.41687,2.1383 -1.24452,0.4526 -2.47771,0.6675 -3.68835,0.6675 -2.09314,0 -3.80153,-0.6449 -5.12525,-1.946 -1.32372,-1.3124 -1.97996,-2.9756 -1.97996,-4.9895 0,-1.8668 0.61112,-3.5074 1.81024,-4.9556 1.18797,-1.4368 2.93034,-2.1723 5.23843,-2.1723 1.82157,0 3.30369,0.4074 4.37848,1.1993 1.08622,0.792 1.65184,1.6179 1.71981,2.4891 0.019,0.3395 0.11328,0.5771 0.25987,0.7241 0.13612,0.1358 0.30556,0.1923 0.50927,0.1923 0.23798,0 0.43026,-0.068 0.57686,-0.2262 0.14754,-0.1584 0.21513,-0.4412 0.22655,-0.826 l 0,-3.53 c 0,-0.3733 -0.0761,-0.6336 -0.22655,-0.792 -0.14755,-0.1697 -0.33983,-0.2376 -0.57686,-0.2376 -0.21513,0 -0.39599,0.068 -0.54259,0.2376 -0.14754,0.1584 -0.22655,0.4187 -0.22655,0.792 l 0,0.5431 c -1.61795,-1.4143 -3.59792,-2.1384 -5.9852,-2.1384 m 25.82997,0 c -2.46639,0 -4.53688,0.8147 -6.21138,2.4325 -1.6745,1.6179 -2.52303,3.5527 -2.52303,5.8155 0,2.4777 0.91669,4.5822 2.69275,6.3245 1.78759,1.7424 4.00515,2.6362 6.67525,2.6362 1.59529,0 3.12272,-0.2715 4.63882,-0.8033 1.5161,-0.5318 2.55692,-1.1314 3.14529,-1.7424 0.20371,-0.2036 0.31699,-0.396 0.31699,-0.6109 0,-0.2036 -0.0762,-0.3847 -0.22656,-0.5431 -0.14659,-0.147 -0.31698,-0.2262 -0.52069,-0.2262 -0.16944,0 -0.39599,0.079 -0.62255,0.2602 -0.80341,0.6336 -1.82156,1.1314 -3.10007,1.5161 -1.26708,0.3847 -2.47772,0.577 -3.63181,0.577 -2.08172,0 -3.85807,-0.6109 -5.27232,-1.8328 -1.41424,-1.2333 -2.25145,-2.8625 -2.52302,-4.8764 l 15.83971,0 c 0.019,-2.6362 -0.75772,-4.7745 -2.39861,-6.4377 -1.64052,-1.6632 -3.73366,-2.4891 -6.27934,-2.4891 m 106.51057,0 c -0.98437,0 -2.4325,0.2489 -4.35592,0.7693 -1.22197,0.3168 -1.9121,0.5884 -2.09315,0.7694 -0.1247,0.1244 -0.19228,0.2828 -0.19228,0.4865 0,0.2263 0.0761,0.4299 0.22655,0.577 0.13612,0.1471 0.29414,0.2037 0.48642,0.2037 0.11328,0 0.37315,-0.056 0.76914,-0.1698 2.18358,-0.7128 3.89206,-1.0635 5.1027,-1.0635 1.57264,0 2.76062,0.3168 3.5526,0.9391 0.79199,0.6336 1.17665,1.3916 1.17665,2.2402 l 0,2.523 c -0.98436,-0.2036 -1.88943,-0.3734 -2.72673,-0.4639 -0.83768,-0.09 -1.60653,-0.1132 -2.31932,-0.1132 -2.64754,0 -4.68404,0.5318 -6.07573,1.6632 -1.38026,1.1201 -2.05916,2.4438 -2.05916,3.9486 0,1.369 0.53211,2.523 1.57274,3.4621 1.05214,0.9504 2.48904,1.4369 4.35582,1.4369 2.56834,0 4.98951,-0.9617 7.25238,-2.8625 l 0,2.2289 3.63181,0 c 0.38457,0 0.66729,-0.046 0.82626,-0.1924 0.16944,-0.1584 0.23797,-0.362 0.23797,-0.577 0,-0.2376 -0.0666,-0.4073 -0.23797,-0.5431 -0.15802,-0.147 -0.44169,-0.2262 -0.82626,-0.2262 l -2.05916,0 0,-10.2845 c 0,-1.2219 -0.56543,-2.3307 -1.66317,-3.2924 -1.09745,-0.973 -2.62488,-1.4595 -4.58219,-1.4595 m 53.21002,0 c -0.98436,0 -2.43259,0.2489 -4.35592,0.7693 -1.22196,0.3168 -1.91209,0.5884 -2.08182,0.7693 -0.1247,0.1245 -0.20371,0.2829 -0.20371,0.4866 0,0.2262 0.0762,0.4298 0.22656,0.577 0.14659,0.1471 0.31698,0.2036 0.52069,0.2036 0.10185,0 0.33983,-0.056 0.73582,-0.1697 2.18358,-0.7128 3.89206,-1.0635 5.1026,-1.0635 1.58397,0 2.76062,0.3168 3.55261,0.939 0.79198,0.6336 1.17665,1.3917 1.17665,2.2402 l 0,2.523 c -0.98427,-0.2036 -1.88944,-0.3733 -2.72664,-0.4638 -0.83673,-0.09 -1.60663,-0.1132 -2.31941,-0.1132 -2.64744,0 -4.68395,0.5317 -6.06431,1.6632 -1.39159,1.1201 -2.07049,2.4438 -2.07049,3.9486 0,1.369 0.53211,2.523 1.57264,3.4621 1.05224,0.9504 2.52303,1.4369 4.38991,1.4369 2.56824,0 4.95552,-0.9617 7.2183,-2.8625 l 0,2.2289 3.66579,0 c 0.37315,0 0.63397,-0.046 0.80341,-0.1924 0.15802,-0.1584 0.22655,-0.362 0.22655,-0.577 0,-0.2376 -0.0666,-0.4074 -0.22655,-0.5431 -0.16944,-0.1471 -0.43026,-0.2263 -0.80341,-0.2263 l -2.09305,0 0,-10.2844 c 0,-1.222 -0.53212,-2.3308 -1.62928,-3.2924 -1.10878,-0.9731 -2.65877,-1.4596 -4.61608,-1.4596 m 53.32311,0 c -1.81024,0 -3.38288,0.3847 -4.69537,1.1654 -1.3124,0.792 -1.94598,1.8555 -1.94598,3.1792 0,0.7468 0.21513,1.4482 0.69013,2.0931 0.46358,0.645 1.13143,1.1088 1.96863,1.4369 0.8491,0.3168 2.22889,0.5771 4.15231,0.7694 1.93466,0.2036 3.40554,0.5996 4.41247,1.1766 1.00692,0.5771 1.49344,1.3577 1.49344,2.3194 0,0.8372 -0.475,1.6179 -1.45946,2.3759 -0.99569,0.7468 -2.50046,1.1201 -4.52565,1.1201 -1.36903,0 -2.52302,-0.1922 -3.46208,-0.577 -0.95,-0.3847 -1.64061,-0.8712 -2.07049,-1.4595 -0.28271,-0.3847 -0.43026,-0.8599 -0.43026,-1.4369 0,-0.2603 -0.0666,-0.4752 -0.22655,-0.6223 -0.15802,-0.1584 -0.3503,-0.2376 -0.57686,-0.2376 -0.22655,0 -0.43026,0.1019 -0.56543,0.2603 -0.14755,0.1584 -0.20371,0.4073 -0.20371,0.7807 l 0,3.2018 c 0,0.3734 0.0761,0.6449 0.22656,0.8033 0.14659,0.1584 0.3284,0.2263 0.54353,0.2263 0.16944,0 0.30557,-0.023 0.43027,-0.1132 0.13612,-0.079 0.23797,-0.1924 0.29413,-0.3168 0.0476,-0.1244 0.0571,-0.4073 0.0571,-0.8258 1.56131,1.2445 3.58649,1.8894 6.04165,1.8894 2.45516,0 4.31071,-0.5204 5.57788,-1.55 1.27841,-1.0296 1.92333,-2.195 1.92333,-3.5187 0,-0.8938 -0.30556,-1.731 -0.88242,-2.4891 -0.58827,-0.7693 -1.47079,-1.3803 -2.67009,-1.8102 -0.83673,-0.2942 -2.33027,-0.5657 -4.49119,-0.8033 -1.65184,-0.1811 -2.79461,-0.4187 -3.38288,-0.7694 -0.85958,-0.4978 -1.28984,-1.1201 -1.28984,-1.8668 0,-0.6449 0.36173,-1.2445 1.08613,-1.765 0.96171,-0.7128 2.29676,-1.0635 4.03913,-1.0635 1.66317,0 3.0322,0.3394 4.03912,1.0296 0.69014,0.4865 1.0748,1.0974 1.14267,1.8328 0.0381,0.3055 0.0952,0.5544 0.23798,0.6902 0.13612,0.1357 0.32841,0.1924 0.54354,0.1924 0.22655,0 0.41883,-0.091 0.56543,-0.249 0.14754,-0.1584 0.23797,-0.4073 0.23797,-0.7806 l 0,-2.6928 c 0,-0.3733 -0.0952,-0.6336 -0.23797,-0.7919 -0.14755,-0.1698 -0.33983,-0.2376 -0.56543,-0.2376 -0.22656,0 -0.43027,0.067 -0.57686,0.2376 -0.14659,0.1583 -0.20371,0.4073 -0.20371,0.7693 -1.34637,-1.0522 -3.08865,-1.5727 -5.23834,-1.5727 z m 26.40701,0 c -2.46648,0 -4.51432,0.8147 -6.18881,2.4326 -1.6745,1.6179 -2.5117,3.5526 -2.5117,5.8154 0,2.4778 0.87099,4.5822 2.65877,6.3245 1.78768,1.7424 4.00524,2.6362 6.67533,2.6362 1.58397,0 3.15662,-0.2715 4.66139,-0.8033 1.5161,-0.5317 2.55701,-1.1314 3.15662,-1.7424 0.19228,-0.2036 0.28271,-0.3959 0.28271,-0.6109 0,-0.2036 -0.0571,-0.3847 -0.20371,-0.5431 -0.14659,-0.147 -0.31698,-0.2262 -0.50926,-0.2262 -0.18087,0 -0.396,0.079 -0.63397,0.2602 -0.80341,0.6336 -1.82157,1.1314 -3.08875,1.5161 -1.27841,0.3847 -2.5117,0.5771 -3.66569,0.5771 -2.09315,0 -3.83552,-0.611 -5.23844,-1.8329 -1.41424,-1.2332 -2.25145,-2.8625 -2.52302,-4.8764 l 15.83971,0 c 0.019,-2.6361 -0.76914,-4.7745 -2.40994,-6.4377 -1.64051,-1.6631 -3.75622,-2.4891 -6.3019,-2.4891 m 27.40261,0 c -2.50037,0 -4.59352,0.8372 -6.23403,2.4891 -1.65184,1.6519 -2.46648,3.7337 -2.46648,6.2454 0,2.4551 0.79198,4.469 2.40994,6.0643 1.60653,1.6066 3.67702,2.4099 6.17749,2.4099 2.46638,0 4.69527,-0.6562 6.70922,-1.9799 1.24452,-0.8147 1.88944,-1.5048 1.88944,-2.0253 0,-0.2149 -0.0952,-0.3733 -0.23798,-0.5204 -0.13612,-0.147 -0.30556,-0.2262 -0.50927,-0.2262 -0.20371,0 -0.43026,0.1244 -0.69013,0.3733 -1.00693,0.9843 -2.14969,1.6971 -3.40554,2.1384 -1.25585,0.4525 -2.48904,0.6674 -3.69968,0.6674 -2.09314,0 -3.80153,-0.6449 -5.12525,-1.946 -1.31249,-1.3124 -1.96864,-2.9756 -1.96864,-4.9895 0,-1.8668 0.5997,-3.5073 1.79892,-4.9555 1.1993,-1.4369 2.93034,-2.1723 5.23843,-2.1723 1.8328,0 3.30368,0.4073 4.38981,1.1993 1.0748,0.7919 1.64051,1.6179 1.70838,2.4891 0.0381,0.3394 0.1247,0.577 0.25987,0.7241 0.1466,0.1357 0.30557,0.1923 0.5207,0.1923 0.23797,0 0.43026,-0.068 0.56543,-0.2263 0.14755,-0.1584 0.22655,-0.4412 0.23798,-0.826 l 0,-3.53 c 0,-0.3733 -0.0857,-0.6336 -0.23798,-0.7919 -0.14659,-0.1698 -0.32841,-0.2376 -0.56543,-0.2376 -0.22656,0 -0.396,0.067 -0.54354,0.2376 -0.14659,0.1583 -0.23798,0.4186 -0.23798,0.7919 l 0,0.5431 c -1.60653,-1.4143 -3.59782,-2.1384 -5.98511,-2.1384 m 58.19954,0.1698 c -0.84815,0 -1.79891,0.2716 -2.80594,0.8033 -1.00692,0.5204 -2.50037,1.6971 -4.52555,3.5186 l 0,-3.9259 -4.43512,0 c -0.38457,0 -0.65586,0.056 -0.80341,0.2036 -0.15801,0.1471 -0.23797,0.3508 -0.23797,0.577 0,0.2263 0.0666,0.4187 0.23797,0.5658 0.15802,0.147 0.43026,0.2262 0.80341,0.2262 l 2.86238,0 0,12.9546 -3.75622,0 c -0.38457,0 -0.64444,0.056 -0.80341,0.1924 -0.14754,0.1471 -0.22655,0.3394 -0.22655,0.5431 0,0.2262 0.0666,0.4073 0.22655,0.5543 0.15802,0.1358 0.43027,0.1924 0.80341,0.1924 l 12.19658,0 c 0.38457,0 0.67871,-0.046 0.83768,-0.1924 0.15802,-0.1584 0.22655,-0.362 0.22655,-0.577 0,-0.2376 -0.0666,-0.4073 -0.22655,-0.5431 -0.15802,-0.147 -0.45215,-0.2262 -0.83768,-0.2262 l -6.86762,0 0,-8.5082 c 2.3533,-2.1157 3.99382,-3.4395 4.95553,-3.9825 0.95,-0.5431 1.78758,-0.8372 2.46648,-0.8372 0.30557,0 0.62255,0.1018 0.93954,0.2602 0.31698,0.1584 0.69013,0.4639 1.1201,0.8938 0.22656,0.2263 0.396,0.3507 0.48643,0.396 0.0762,0.046 0.19228,0.091 0.31698,0.091 0.22656,0 0.41884,-0.1019 0.56543,-0.2603 0.15802,-0.1584 0.25987,-0.3394 0.25987,-0.577 0,-0.3168 -0.40741,-0.7807 -1.1993,-1.403 -0.80341,-0.6222 -1.65184,-0.939 -2.57957,-0.939 m -40.75329,0.396 c -0.37315,0 -0.61112,0.056 -0.76914,0.2036 -0.16944,0.1471 -0.25987,0.3508 -0.25987,0.577 0,0.2263 0.0952,0.4187 0.25987,0.5658 0.15802,0.147 0.39599,0.2262 0.76914,0.2262 l 2.09315,0 0,10.0243 c 0,1.4482 0.52069,2.704 1.53866,3.7902 0.79198,0.8259 1.94608,1.2558 3.4735,1.2558 2.46639,0 4.75182,-0.973 6.86762,-2.8964 l 0,2.2629 2.89637,0 c 0.37315,0 0.61112,-0.046 0.76914,-0.1924 0.15802,-0.1584 0.25987,-0.362 0.25987,-0.5771 0,-0.2376 -0.10185,-0.4073 -0.25987,-0.543 -0.15802,-0.1471 -0.39599,-0.2263 -0.76914,-0.2263 l -1.32372,0 0,-14.4707 -4.43512,0 c -0.37315,0 -0.64444,0.056 -0.80341,0.2036 -0.15802,0.1471 -0.22655,0.3508 -0.22655,0.5771 0,0.2263 0.0666,0.4186 0.22655,0.5657 0.15802,0.1471 0.43026,0.2263 0.80341,0.2263 l 2.86247,0 0,10.0242 c -2.10447,2.3194 -4.42379,3.4734 -6.95814,3.4734 -0.96171,0 -1.76503,-0.3281 -2.39862,-0.973 -0.64444,-0.6562 -0.95,-1.4821 -0.95,-2.5004 l 0,-11.5969 -3.66579,0 z m 56.61556,0 c -0.38457,0 -0.66728,0.056 -0.82625,0.2036 -0.15802,0.1471 -0.22655,0.3394 -0.22655,0.577 0,0.215 0.0952,0.4187 0.2494,0.5658 0.16943,0.147 0.44168,0.2262 0.8034,0.2262 l 4.52565,0 0,12.898 -6.09829,0 c -0.37315,0 -0.64444,0.079 -0.80341,0.2263 -0.15802,0.1358 -0.22655,0.3055 -0.22655,0.5431 0,0.2149 0.0666,0.4186 0.22655,0.577 0.15802,0.1471 0.43026,0.1924 0.80341,0.1924 l 13.78055,0 c 0.37315,0 0.63397,-0.046 0.79199,-0.1924 0.16944,-0.1584 0.25987,-0.362 0.25987,-0.577 0,-0.2376 -0.0952,-0.4073 -0.25987,-0.5431 -0.15802,-0.1471 -0.41884,-0.2263 -0.79199,-0.2263 l -6.10962,0 0,-14.4706 -6.09829,0 z m 50.55126,0 c -0.10186,0.01 -0.19229,0.056 -0.25987,0.09 -0.1247,0.056 -0.23798,0.1244 -0.31699,0.2603 -0.0761,0.1244 -0.11327,0.2602 -0.11327,0.4298 0,0.215 0.0666,0.4187 0.22655,0.5658 0.16944,0.147 0.44168,0.2262 0.80341,0.2262 l 0.46358,0 7.24105,14.4368 -2.74929,5.6117 -4.8651,0 c -0.37315,0 -0.64444,0.068 -0.80341,0.2036 -0.15802,0.1471 -0.22655,0.3395 -0.22655,0.5771 0,0.2263 0.0666,0.396 0.22655,0.5431 0.15802,0.1357 0.43026,0.2262 0.80341,0.2262 l 8.96077,0 c 0.37314,0 0.64539,-0.079 0.80341,-0.2262 0.15801,-0.1471 0.22655,-0.3282 0.22655,-0.5431 0,-0.2376 -0.0666,-0.43 -0.22655,-0.5771 -0.15802,-0.1357 -0.43027,-0.2036 -0.80341,-0.2036 l -2.4326,0 9.85461,-20.0485 c 0.56543,0 0.90526,-0.034 1.02958,-0.079 0.1247,-0.046 0.23798,-0.1244 0.33888,-0.2602 0.10185,-0.1358 0.14754,-0.2942 0.14754,-0.4526 0,-0.2376 -0.0666,-0.4299 -0.22655,-0.577 -0.16944,-0.1471 -0.45216,-0.2036 -0.83673,-0.2036 l -4.23141,0 c -0.37314,0 -0.64444,0.056 -0.80341,0.2036 -0.15801,0.1471 -0.22655,0.3508 -0.22655,0.577 0,0.2263 0.0666,0.4187 0.22655,0.5657 0.15802,0.1471 0.43027,0.2263 0.80341,0.2263 l 2.08173,0 -6.23404,12.751 -6.35844,-12.751 2.08172,0 c 0.37315,0 0.64444,-0.079 0.80341,-0.2263 0.15801,-0.147 0.23797,-0.3507 0.23797,-0.5657 0,-0.2376 -0.0761,-0.4299 -0.23797,-0.577 -0.15802,-0.1471 -0.43026,-0.2036 -0.80341,-0.2036 l -4.2654,0 c -0.13612,0 -0.23797,-0.011 -0.33983,0 m -551.11903,1.0069 c 1.81034,0 3.37165,0.5318 4.69537,1.6066 1.3124,1.0749 2.12704,2.4665 2.4325,4.1749 l -14.26697,0 c 0.3284,-1.7424 1.13134,-3.1227 2.4325,-4.1749 1.31239,-1.0635 2.88503,-1.6066 4.7066,-1.6066 m 159.65263,0 c 1.82157,0 3.36033,0.5318 4.67272,1.6066 1.31249,1.0749 2.12703,2.4665 2.43259,4.1749 l -14.23308,0 c 0.31698,-1.7424 1.12001,-3.1227 2.4325,-4.1749 1.31239,-1.0635 2.88503,-1.6066 4.69527,-1.6066 m 26.18075,0 c 1.8329,0 3.41687,0.6788 4.75191,2.0366 1.33505,1.3576 2.00262,3.0321 2.00262,5.0121 0,1.9573 -0.66728,3.6092 -2.00262,4.9782 -1.33504,1.369 -2.91901,2.0365 -4.75191,2.0365 -1.85546,0 -3.45075,-0.6675 -4.7858,-2.0365 -1.33505,-1.369 -2.00262,-3.0209 -2.00262,-4.9782 0,-1.98 0.66728,-3.6545 2.00262,-5.0121 1.33505,-1.3577 2.93034,-2.0366 4.7858,-2.0366 m 53.21002,0 c 1.8329,0 3.41687,0.6788 4.75192,2.0366 1.33505,1.3576 2.00262,3.0321 2.00262,5.0121 0,1.9573 -0.66729,3.6092 -2.00262,4.9782 -1.33505,1.369 -2.91902,2.0365 -4.75192,2.0365 -1.85555,0 -3.45075,-0.6675 -4.7858,-2.0365 -1.33514,-1.369 -2.00262,-3.0209 -2.00262,-4.9782 0,-1.98 0.66729,-3.6545 2.00262,-5.0121 1.33505,-1.3577 2.93025,-2.0366 4.7858,-2.0366 m 160.05995,0 c 1.81024,0 3.38289,0.5318 4.69528,1.6066 1.31249,1.0749 2.12713,2.4665 2.4326,4.1749 l -14.23309,0 c 0.32841,-1.7424 1.13134,-3.1227 2.4325,-4.1749 1.31239,-1.0635 2.86247,-1.6066 4.67271,-1.6066 m -319.40711,6.6753 c 0.90526,0 1.76502,0.046 2.57957,0.1358 0.81483,0.1018 1.56141,0.2489 2.28553,0.4638 l 0,3.4395 c -1.22197,1.1653 -2.39862,2.0026 -3.55271,2.5457 -1.15399,0.5317 -2.39852,0.8033 -3.74489,0.8033 -1.40292,0 -2.47781,-0.3055 -3.21316,-0.9504 -0.73582,-0.6449 -1.10878,-1.4369 -1.10878,-2.376 0,-1.0069 0.49785,-1.8781 1.45946,-2.6022 1.26718,-0.973 3.0322,-1.4595 5.29498,-1.4595 m 186.2407,0 c 0.89384,0 1.75369,0.046 2.57957,0.1357 0.81483,0.1019 1.58397,0.2489 2.31941,0.4639 l 0,3.4395 c -1.22196,1.1653 -2.39861,2.0026 -3.55261,2.5456 -1.15409,0.5318 -2.40994,0.8033 -3.75631,0.8033 -1.40292,0 -2.47772,-0.3054 -3.20183,-0.9503 -0.73583,-0.645 -1.12011,-1.4369 -1.12011,-2.376 0,-1.0069 0.49785,-1.8781 1.45946,-2.6022 1.26718,-0.973 3.00955,-1.4595 5.27242,-1.4595 m 53.23258,0 c 0.90526,0 1.74237,0.046 2.55701,0.1357 0.81483,0.1019 1.58397,0.2489 2.31932,0.4639 l 0,3.4394 c -1.22187,1.1654 -2.39852,2.0026 -3.55261,2.5457 -1.15399,0.5317 -2.40984,0.8033 -3.75622,0.8033 -1.40292,0 -2.46648,-0.3055 -3.20193,-0.9504 -0.73487,-0.6449 -1.12001,-1.4369 -1.12001,-2.3759 0,-1.007 0.49785,-1.8782 1.45946,-2.6023 1.26718,-0.973 3.04353,-1.4595 5.29498,-1.4595" />
      <path
         d="m 482.39524,443.60577 2.62488,2.6249 1.08613,-1.0975 -2.62488,-2.6248 -1.08613,1.0974 z"
         style="fill:#000000;fill-opacity:1;fill-rule:nonzero;stroke:none;display:inline"
         id="path504-6-0-7"
         inkscape:connector-curvature="0" />
      <path
         d="m 466.29651,427.50707 2.62479,2.6248 1.09755,-1.0974 -2.62488,-2.6249 -1.09746,1.0975 z"
         style="fill:#000000;fill-opacity:1;fill-rule:nonzero;stroke:none;display:inline"
         id="path508-1-3-9"
         inkscape:connector-curvature="0" />
    </g>
  </g>
</svg>
